%TF.GenerationSoftware,KiCad,Pcbnew,(7.0.0)*%
%TF.CreationDate,2024-02-05T18:27:12+01:00*%
%TF.ProjectId,the expanse,74686520-6578-4706-916e-73652e6b6963,rev?*%
%TF.SameCoordinates,Original*%
%TF.FileFunction,Legend,Bot*%
%TF.FilePolarity,Positive*%
%FSLAX46Y46*%
G04 Gerber Fmt 4.6, Leading zero omitted, Abs format (unit mm)*
G04 Created by KiCad (PCBNEW (7.0.0)) date 2024-02-05 18:27:12*
%MOMM*%
%LPD*%
G01*
G04 APERTURE LIST*
%ADD10C,0.150000*%
%ADD11C,0.120000*%
G04 APERTURE END LIST*
D10*
X188563094Y-70900119D02*
X188515475Y-70852500D01*
X188515475Y-70852500D02*
X188420237Y-70804880D01*
X188420237Y-70804880D02*
X188182142Y-70804880D01*
X188182142Y-70804880D02*
X188086904Y-70852500D01*
X188086904Y-70852500D02*
X188039285Y-70900119D01*
X188039285Y-70900119D02*
X187991666Y-70995357D01*
X187991666Y-70995357D02*
X187991666Y-71090595D01*
X187991666Y-71090595D02*
X188039285Y-71233452D01*
X188039285Y-71233452D02*
X188610713Y-71804880D01*
X188610713Y-71804880D02*
X187991666Y-71804880D01*
X187658332Y-70804880D02*
X186991666Y-70804880D01*
X186991666Y-70804880D02*
X187420237Y-71804880D01*
X186134523Y-70804880D02*
X186610713Y-70804880D01*
X186610713Y-70804880D02*
X186658332Y-71281071D01*
X186658332Y-71281071D02*
X186610713Y-71233452D01*
X186610713Y-71233452D02*
X186515475Y-71185833D01*
X186515475Y-71185833D02*
X186277380Y-71185833D01*
X186277380Y-71185833D02*
X186182142Y-71233452D01*
X186182142Y-71233452D02*
X186134523Y-71281071D01*
X186134523Y-71281071D02*
X186086904Y-71376309D01*
X186086904Y-71376309D02*
X186086904Y-71614404D01*
X186086904Y-71614404D02*
X186134523Y-71709642D01*
X186134523Y-71709642D02*
X186182142Y-71757261D01*
X186182142Y-71757261D02*
X186277380Y-71804880D01*
X186277380Y-71804880D02*
X186515475Y-71804880D01*
X186515475Y-71804880D02*
X186610713Y-71757261D01*
X186610713Y-71757261D02*
X186658332Y-71709642D01*
X126174404Y-70804880D02*
X126364880Y-70804880D01*
X126364880Y-70804880D02*
X126460118Y-70852500D01*
X126460118Y-70852500D02*
X126507737Y-70900119D01*
X126507737Y-70900119D02*
X126602975Y-71042976D01*
X126602975Y-71042976D02*
X126650594Y-71233452D01*
X126650594Y-71233452D02*
X126650594Y-71614404D01*
X126650594Y-71614404D02*
X126602975Y-71709642D01*
X126602975Y-71709642D02*
X126555356Y-71757261D01*
X126555356Y-71757261D02*
X126460118Y-71804880D01*
X126460118Y-71804880D02*
X126269642Y-71804880D01*
X126269642Y-71804880D02*
X126174404Y-71757261D01*
X126174404Y-71757261D02*
X126126785Y-71709642D01*
X126126785Y-71709642D02*
X126079166Y-71614404D01*
X126079166Y-71614404D02*
X126079166Y-71376309D01*
X126079166Y-71376309D02*
X126126785Y-71281071D01*
X126126785Y-71281071D02*
X126174404Y-71233452D01*
X126174404Y-71233452D02*
X126269642Y-71185833D01*
X126269642Y-71185833D02*
X126460118Y-71185833D01*
X126460118Y-71185833D02*
X126555356Y-71233452D01*
X126555356Y-71233452D02*
X126602975Y-71281071D01*
X126602975Y-71281071D02*
X126650594Y-71376309D01*
X125698213Y-70900119D02*
X125650594Y-70852500D01*
X125650594Y-70852500D02*
X125555356Y-70804880D01*
X125555356Y-70804880D02*
X125317261Y-70804880D01*
X125317261Y-70804880D02*
X125222023Y-70852500D01*
X125222023Y-70852500D02*
X125174404Y-70900119D01*
X125174404Y-70900119D02*
X125126785Y-70995357D01*
X125126785Y-70995357D02*
X125126785Y-71090595D01*
X125126785Y-71090595D02*
X125174404Y-71233452D01*
X125174404Y-71233452D02*
X125745832Y-71804880D01*
X125745832Y-71804880D02*
X125126785Y-71804880D01*
X124222023Y-70804880D02*
X124698213Y-70804880D01*
X124698213Y-70804880D02*
X124745832Y-71281071D01*
X124745832Y-71281071D02*
X124698213Y-71233452D01*
X124698213Y-71233452D02*
X124602975Y-71185833D01*
X124602975Y-71185833D02*
X124364880Y-71185833D01*
X124364880Y-71185833D02*
X124269642Y-71233452D01*
X124269642Y-71233452D02*
X124222023Y-71281071D01*
X124222023Y-71281071D02*
X124174404Y-71376309D01*
X124174404Y-71376309D02*
X124174404Y-71614404D01*
X124174404Y-71614404D02*
X124222023Y-71709642D01*
X124222023Y-71709642D02*
X124269642Y-71757261D01*
X124269642Y-71757261D02*
X124364880Y-71804880D01*
X124364880Y-71804880D02*
X124602975Y-71804880D01*
X124602975Y-71804880D02*
X124698213Y-71757261D01*
X124698213Y-71757261D02*
X124745832Y-71709642D01*
X76168154Y-85092380D02*
X76358630Y-85092380D01*
X76358630Y-85092380D02*
X76453868Y-85140000D01*
X76453868Y-85140000D02*
X76501487Y-85187619D01*
X76501487Y-85187619D02*
X76596725Y-85330476D01*
X76596725Y-85330476D02*
X76644344Y-85520952D01*
X76644344Y-85520952D02*
X76644344Y-85901904D01*
X76644344Y-85901904D02*
X76596725Y-85997142D01*
X76596725Y-85997142D02*
X76549106Y-86044761D01*
X76549106Y-86044761D02*
X76453868Y-86092380D01*
X76453868Y-86092380D02*
X76263392Y-86092380D01*
X76263392Y-86092380D02*
X76168154Y-86044761D01*
X76168154Y-86044761D02*
X76120535Y-85997142D01*
X76120535Y-85997142D02*
X76072916Y-85901904D01*
X76072916Y-85901904D02*
X76072916Y-85663809D01*
X76072916Y-85663809D02*
X76120535Y-85568571D01*
X76120535Y-85568571D02*
X76168154Y-85520952D01*
X76168154Y-85520952D02*
X76263392Y-85473333D01*
X76263392Y-85473333D02*
X76453868Y-85473333D01*
X76453868Y-85473333D02*
X76549106Y-85520952D01*
X76549106Y-85520952D02*
X76596725Y-85568571D01*
X76596725Y-85568571D02*
X76644344Y-85663809D01*
X75691963Y-85187619D02*
X75644344Y-85140000D01*
X75644344Y-85140000D02*
X75549106Y-85092380D01*
X75549106Y-85092380D02*
X75311011Y-85092380D01*
X75311011Y-85092380D02*
X75215773Y-85140000D01*
X75215773Y-85140000D02*
X75168154Y-85187619D01*
X75168154Y-85187619D02*
X75120535Y-85282857D01*
X75120535Y-85282857D02*
X75120535Y-85378095D01*
X75120535Y-85378095D02*
X75168154Y-85520952D01*
X75168154Y-85520952D02*
X75739582Y-86092380D01*
X75739582Y-86092380D02*
X75120535Y-86092380D01*
X74215773Y-85092380D02*
X74691963Y-85092380D01*
X74691963Y-85092380D02*
X74739582Y-85568571D01*
X74739582Y-85568571D02*
X74691963Y-85520952D01*
X74691963Y-85520952D02*
X74596725Y-85473333D01*
X74596725Y-85473333D02*
X74358630Y-85473333D01*
X74358630Y-85473333D02*
X74263392Y-85520952D01*
X74263392Y-85520952D02*
X74215773Y-85568571D01*
X74215773Y-85568571D02*
X74168154Y-85663809D01*
X74168154Y-85663809D02*
X74168154Y-85901904D01*
X74168154Y-85901904D02*
X74215773Y-85997142D01*
X74215773Y-85997142D02*
X74263392Y-86044761D01*
X74263392Y-86044761D02*
X74358630Y-86092380D01*
X74358630Y-86092380D02*
X74596725Y-86092380D01*
X74596725Y-86092380D02*
X74691963Y-86044761D01*
X74691963Y-86044761D02*
X74739582Y-85997142D01*
X283336904Y-70804880D02*
X283527380Y-70804880D01*
X283527380Y-70804880D02*
X283622618Y-70852500D01*
X283622618Y-70852500D02*
X283670237Y-70900119D01*
X283670237Y-70900119D02*
X283765475Y-71042976D01*
X283765475Y-71042976D02*
X283813094Y-71233452D01*
X283813094Y-71233452D02*
X283813094Y-71614404D01*
X283813094Y-71614404D02*
X283765475Y-71709642D01*
X283765475Y-71709642D02*
X283717856Y-71757261D01*
X283717856Y-71757261D02*
X283622618Y-71804880D01*
X283622618Y-71804880D02*
X283432142Y-71804880D01*
X283432142Y-71804880D02*
X283336904Y-71757261D01*
X283336904Y-71757261D02*
X283289285Y-71709642D01*
X283289285Y-71709642D02*
X283241666Y-71614404D01*
X283241666Y-71614404D02*
X283241666Y-71376309D01*
X283241666Y-71376309D02*
X283289285Y-71281071D01*
X283289285Y-71281071D02*
X283336904Y-71233452D01*
X283336904Y-71233452D02*
X283432142Y-71185833D01*
X283432142Y-71185833D02*
X283622618Y-71185833D01*
X283622618Y-71185833D02*
X283717856Y-71233452D01*
X283717856Y-71233452D02*
X283765475Y-71281071D01*
X283765475Y-71281071D02*
X283813094Y-71376309D01*
X282860713Y-70900119D02*
X282813094Y-70852500D01*
X282813094Y-70852500D02*
X282717856Y-70804880D01*
X282717856Y-70804880D02*
X282479761Y-70804880D01*
X282479761Y-70804880D02*
X282384523Y-70852500D01*
X282384523Y-70852500D02*
X282336904Y-70900119D01*
X282336904Y-70900119D02*
X282289285Y-70995357D01*
X282289285Y-70995357D02*
X282289285Y-71090595D01*
X282289285Y-71090595D02*
X282336904Y-71233452D01*
X282336904Y-71233452D02*
X282908332Y-71804880D01*
X282908332Y-71804880D02*
X282289285Y-71804880D01*
X281384523Y-70804880D02*
X281860713Y-70804880D01*
X281860713Y-70804880D02*
X281908332Y-71281071D01*
X281908332Y-71281071D02*
X281860713Y-71233452D01*
X281860713Y-71233452D02*
X281765475Y-71185833D01*
X281765475Y-71185833D02*
X281527380Y-71185833D01*
X281527380Y-71185833D02*
X281432142Y-71233452D01*
X281432142Y-71233452D02*
X281384523Y-71281071D01*
X281384523Y-71281071D02*
X281336904Y-71376309D01*
X281336904Y-71376309D02*
X281336904Y-71614404D01*
X281336904Y-71614404D02*
X281384523Y-71709642D01*
X281384523Y-71709642D02*
X281432142Y-71757261D01*
X281432142Y-71757261D02*
X281527380Y-71804880D01*
X281527380Y-71804880D02*
X281765475Y-71804880D01*
X281765475Y-71804880D02*
X281860713Y-71757261D01*
X281860713Y-71757261D02*
X281908332Y-71709642D01*
X48716369Y-90188214D02*
X48716369Y-91188214D01*
X48716369Y-90235833D02*
X48621131Y-90188214D01*
X48621131Y-90188214D02*
X48430655Y-90188214D01*
X48430655Y-90188214D02*
X48335417Y-90235833D01*
X48335417Y-90235833D02*
X48287798Y-90283452D01*
X48287798Y-90283452D02*
X48240179Y-90378690D01*
X48240179Y-90378690D02*
X48240179Y-90664404D01*
X48240179Y-90664404D02*
X48287798Y-90759642D01*
X48287798Y-90759642D02*
X48335417Y-90807261D01*
X48335417Y-90807261D02*
X48430655Y-90854880D01*
X48430655Y-90854880D02*
X48621131Y-90854880D01*
X48621131Y-90854880D02*
X48716369Y-90807261D01*
X47383036Y-90807261D02*
X47478274Y-90854880D01*
X47478274Y-90854880D02*
X47668750Y-90854880D01*
X47668750Y-90854880D02*
X47763988Y-90807261D01*
X47763988Y-90807261D02*
X47811607Y-90759642D01*
X47811607Y-90759642D02*
X47859226Y-90664404D01*
X47859226Y-90664404D02*
X47859226Y-90378690D01*
X47859226Y-90378690D02*
X47811607Y-90283452D01*
X47811607Y-90283452D02*
X47763988Y-90235833D01*
X47763988Y-90235833D02*
X47668750Y-90188214D01*
X47668750Y-90188214D02*
X47478274Y-90188214D01*
X47478274Y-90188214D02*
X47383036Y-90235833D01*
X46954464Y-90854880D02*
X46954464Y-89854880D01*
X46954464Y-90235833D02*
X46859226Y-90188214D01*
X46859226Y-90188214D02*
X46668750Y-90188214D01*
X46668750Y-90188214D02*
X46573512Y-90235833D01*
X46573512Y-90235833D02*
X46525893Y-90283452D01*
X46525893Y-90283452D02*
X46478274Y-90378690D01*
X46478274Y-90378690D02*
X46478274Y-90664404D01*
X46478274Y-90664404D02*
X46525893Y-90759642D01*
X46525893Y-90759642D02*
X46573512Y-90807261D01*
X46573512Y-90807261D02*
X46668750Y-90854880D01*
X46668750Y-90854880D02*
X46859226Y-90854880D01*
X46859226Y-90854880D02*
X46954464Y-90807261D01*
X45449702Y-90854880D02*
X45449702Y-89854880D01*
X45449702Y-90235833D02*
X45354464Y-90188214D01*
X45354464Y-90188214D02*
X45163988Y-90188214D01*
X45163988Y-90188214D02*
X45068750Y-90235833D01*
X45068750Y-90235833D02*
X45021131Y-90283452D01*
X45021131Y-90283452D02*
X44973512Y-90378690D01*
X44973512Y-90378690D02*
X44973512Y-90664404D01*
X44973512Y-90664404D02*
X45021131Y-90759642D01*
X45021131Y-90759642D02*
X45068750Y-90807261D01*
X45068750Y-90807261D02*
X45163988Y-90854880D01*
X45163988Y-90854880D02*
X45354464Y-90854880D01*
X45354464Y-90854880D02*
X45449702Y-90807261D01*
X44640178Y-90188214D02*
X44402083Y-90854880D01*
X44163988Y-90188214D02*
X44402083Y-90854880D01*
X44402083Y-90854880D02*
X44497321Y-91092976D01*
X44497321Y-91092976D02*
X44544940Y-91140595D01*
X44544940Y-91140595D02*
X44640178Y-91188214D01*
X42754464Y-90807261D02*
X42849702Y-90854880D01*
X42849702Y-90854880D02*
X43040178Y-90854880D01*
X43040178Y-90854880D02*
X43135416Y-90807261D01*
X43135416Y-90807261D02*
X43183035Y-90759642D01*
X43183035Y-90759642D02*
X43230654Y-90664404D01*
X43230654Y-90664404D02*
X43230654Y-90378690D01*
X43230654Y-90378690D02*
X43183035Y-90283452D01*
X43183035Y-90283452D02*
X43135416Y-90235833D01*
X43135416Y-90235833D02*
X43040178Y-90188214D01*
X43040178Y-90188214D02*
X42849702Y-90188214D01*
X42849702Y-90188214D02*
X42754464Y-90235833D01*
X41897321Y-90854880D02*
X41897321Y-90331071D01*
X41897321Y-90331071D02*
X41944940Y-90235833D01*
X41944940Y-90235833D02*
X42040178Y-90188214D01*
X42040178Y-90188214D02*
X42230654Y-90188214D01*
X42230654Y-90188214D02*
X42325892Y-90235833D01*
X41897321Y-90807261D02*
X41992559Y-90854880D01*
X41992559Y-90854880D02*
X42230654Y-90854880D01*
X42230654Y-90854880D02*
X42325892Y-90807261D01*
X42325892Y-90807261D02*
X42373511Y-90712023D01*
X42373511Y-90712023D02*
X42373511Y-90616785D01*
X42373511Y-90616785D02*
X42325892Y-90521547D01*
X42325892Y-90521547D02*
X42230654Y-90473928D01*
X42230654Y-90473928D02*
X41992559Y-90473928D01*
X41992559Y-90473928D02*
X41897321Y-90426309D01*
X41278273Y-90854880D02*
X41373511Y-90807261D01*
X41373511Y-90807261D02*
X41421130Y-90712023D01*
X41421130Y-90712023D02*
X41421130Y-89854880D01*
X40992558Y-90188214D02*
X40754463Y-90854880D01*
X40754463Y-90854880D02*
X40516368Y-90188214D01*
X40135415Y-90854880D02*
X40135415Y-90188214D01*
X40135415Y-89854880D02*
X40183034Y-89902500D01*
X40183034Y-89902500D02*
X40135415Y-89950119D01*
X40135415Y-89950119D02*
X40087796Y-89902500D01*
X40087796Y-89902500D02*
X40135415Y-89854880D01*
X40135415Y-89854880D02*
X40135415Y-89950119D01*
X39659225Y-90188214D02*
X39659225Y-90854880D01*
X39659225Y-90283452D02*
X39611606Y-90235833D01*
X39611606Y-90235833D02*
X39516368Y-90188214D01*
X39516368Y-90188214D02*
X39373511Y-90188214D01*
X39373511Y-90188214D02*
X39278273Y-90235833D01*
X39278273Y-90235833D02*
X39230654Y-90331071D01*
X39230654Y-90331071D02*
X39230654Y-90854880D01*
X38563987Y-89854880D02*
X38468749Y-89854880D01*
X38468749Y-89854880D02*
X38373511Y-89902500D01*
X38373511Y-89902500D02*
X38325892Y-89950119D01*
X38325892Y-89950119D02*
X38278273Y-90045357D01*
X38278273Y-90045357D02*
X38230654Y-90235833D01*
X38230654Y-90235833D02*
X38230654Y-90473928D01*
X38230654Y-90473928D02*
X38278273Y-90664404D01*
X38278273Y-90664404D02*
X38325892Y-90759642D01*
X38325892Y-90759642D02*
X38373511Y-90807261D01*
X38373511Y-90807261D02*
X38468749Y-90854880D01*
X38468749Y-90854880D02*
X38563987Y-90854880D01*
X38563987Y-90854880D02*
X38659225Y-90807261D01*
X38659225Y-90807261D02*
X38706844Y-90759642D01*
X38706844Y-90759642D02*
X38754463Y-90664404D01*
X38754463Y-90664404D02*
X38802082Y-90473928D01*
X38802082Y-90473928D02*
X38802082Y-90235833D01*
X38802082Y-90235833D02*
X38754463Y-90045357D01*
X38754463Y-90045357D02*
X38706844Y-89950119D01*
X38706844Y-89950119D02*
X38659225Y-89902500D01*
X38659225Y-89902500D02*
X38563987Y-89854880D01*
X37325892Y-89854880D02*
X37802082Y-89854880D01*
X37802082Y-89854880D02*
X37849701Y-90331071D01*
X37849701Y-90331071D02*
X37802082Y-90283452D01*
X37802082Y-90283452D02*
X37706844Y-90235833D01*
X37706844Y-90235833D02*
X37468749Y-90235833D01*
X37468749Y-90235833D02*
X37373511Y-90283452D01*
X37373511Y-90283452D02*
X37325892Y-90331071D01*
X37325892Y-90331071D02*
X37278273Y-90426309D01*
X37278273Y-90426309D02*
X37278273Y-90664404D01*
X37278273Y-90664404D02*
X37325892Y-90759642D01*
X37325892Y-90759642D02*
X37373511Y-90807261D01*
X37373511Y-90807261D02*
X37468749Y-90854880D01*
X37468749Y-90854880D02*
X37706844Y-90854880D01*
X37706844Y-90854880D02*
X37802082Y-90807261D01*
X37802082Y-90807261D02*
X37849701Y-90759642D01*
X36421130Y-89854880D02*
X36611606Y-89854880D01*
X36611606Y-89854880D02*
X36706844Y-89902500D01*
X36706844Y-89902500D02*
X36754463Y-89950119D01*
X36754463Y-89950119D02*
X36849701Y-90092976D01*
X36849701Y-90092976D02*
X36897320Y-90283452D01*
X36897320Y-90283452D02*
X36897320Y-90664404D01*
X36897320Y-90664404D02*
X36849701Y-90759642D01*
X36849701Y-90759642D02*
X36802082Y-90807261D01*
X36802082Y-90807261D02*
X36706844Y-90854880D01*
X36706844Y-90854880D02*
X36516368Y-90854880D01*
X36516368Y-90854880D02*
X36421130Y-90807261D01*
X36421130Y-90807261D02*
X36373511Y-90759642D01*
X36373511Y-90759642D02*
X36325892Y-90664404D01*
X36325892Y-90664404D02*
X36325892Y-90426309D01*
X36325892Y-90426309D02*
X36373511Y-90331071D01*
X36373511Y-90331071D02*
X36421130Y-90283452D01*
X36421130Y-90283452D02*
X36516368Y-90235833D01*
X36516368Y-90235833D02*
X36706844Y-90235833D01*
X36706844Y-90235833D02*
X36802082Y-90283452D01*
X36802082Y-90283452D02*
X36849701Y-90331071D01*
X36849701Y-90331071D02*
X36897320Y-90426309D01*
X35992558Y-89854880D02*
X35373511Y-89854880D01*
X35373511Y-89854880D02*
X35706844Y-90235833D01*
X35706844Y-90235833D02*
X35563987Y-90235833D01*
X35563987Y-90235833D02*
X35468749Y-90283452D01*
X35468749Y-90283452D02*
X35421130Y-90331071D01*
X35421130Y-90331071D02*
X35373511Y-90426309D01*
X35373511Y-90426309D02*
X35373511Y-90664404D01*
X35373511Y-90664404D02*
X35421130Y-90759642D01*
X35421130Y-90759642D02*
X35468749Y-90807261D01*
X35468749Y-90807261D02*
X35563987Y-90854880D01*
X35563987Y-90854880D02*
X35849701Y-90854880D01*
X35849701Y-90854880D02*
X35944939Y-90807261D01*
X35944939Y-90807261D02*
X35992558Y-90759642D01*
X183324404Y-70804880D02*
X183514880Y-70804880D01*
X183514880Y-70804880D02*
X183610118Y-70852500D01*
X183610118Y-70852500D02*
X183657737Y-70900119D01*
X183657737Y-70900119D02*
X183752975Y-71042976D01*
X183752975Y-71042976D02*
X183800594Y-71233452D01*
X183800594Y-71233452D02*
X183800594Y-71614404D01*
X183800594Y-71614404D02*
X183752975Y-71709642D01*
X183752975Y-71709642D02*
X183705356Y-71757261D01*
X183705356Y-71757261D02*
X183610118Y-71804880D01*
X183610118Y-71804880D02*
X183419642Y-71804880D01*
X183419642Y-71804880D02*
X183324404Y-71757261D01*
X183324404Y-71757261D02*
X183276785Y-71709642D01*
X183276785Y-71709642D02*
X183229166Y-71614404D01*
X183229166Y-71614404D02*
X183229166Y-71376309D01*
X183229166Y-71376309D02*
X183276785Y-71281071D01*
X183276785Y-71281071D02*
X183324404Y-71233452D01*
X183324404Y-71233452D02*
X183419642Y-71185833D01*
X183419642Y-71185833D02*
X183610118Y-71185833D01*
X183610118Y-71185833D02*
X183705356Y-71233452D01*
X183705356Y-71233452D02*
X183752975Y-71281071D01*
X183752975Y-71281071D02*
X183800594Y-71376309D01*
X182848213Y-70900119D02*
X182800594Y-70852500D01*
X182800594Y-70852500D02*
X182705356Y-70804880D01*
X182705356Y-70804880D02*
X182467261Y-70804880D01*
X182467261Y-70804880D02*
X182372023Y-70852500D01*
X182372023Y-70852500D02*
X182324404Y-70900119D01*
X182324404Y-70900119D02*
X182276785Y-70995357D01*
X182276785Y-70995357D02*
X182276785Y-71090595D01*
X182276785Y-71090595D02*
X182324404Y-71233452D01*
X182324404Y-71233452D02*
X182895832Y-71804880D01*
X182895832Y-71804880D02*
X182276785Y-71804880D01*
X181372023Y-70804880D02*
X181848213Y-70804880D01*
X181848213Y-70804880D02*
X181895832Y-71281071D01*
X181895832Y-71281071D02*
X181848213Y-71233452D01*
X181848213Y-71233452D02*
X181752975Y-71185833D01*
X181752975Y-71185833D02*
X181514880Y-71185833D01*
X181514880Y-71185833D02*
X181419642Y-71233452D01*
X181419642Y-71233452D02*
X181372023Y-71281071D01*
X181372023Y-71281071D02*
X181324404Y-71376309D01*
X181324404Y-71376309D02*
X181324404Y-71614404D01*
X181324404Y-71614404D02*
X181372023Y-71709642D01*
X181372023Y-71709642D02*
X181419642Y-71757261D01*
X181419642Y-71757261D02*
X181514880Y-71804880D01*
X181514880Y-71804880D02*
X181752975Y-71804880D01*
X181752975Y-71804880D02*
X181848213Y-71757261D01*
X181848213Y-71757261D02*
X181895832Y-71709642D01*
X28447916Y-86092380D02*
X29019344Y-86092380D01*
X28733630Y-86092380D02*
X28733630Y-85092380D01*
X28733630Y-85092380D02*
X28828868Y-85235238D01*
X28828868Y-85235238D02*
X28924106Y-85330476D01*
X28924106Y-85330476D02*
X29019344Y-85378095D01*
X28066963Y-85187619D02*
X28019344Y-85140000D01*
X28019344Y-85140000D02*
X27924106Y-85092380D01*
X27924106Y-85092380D02*
X27686011Y-85092380D01*
X27686011Y-85092380D02*
X27590773Y-85140000D01*
X27590773Y-85140000D02*
X27543154Y-85187619D01*
X27543154Y-85187619D02*
X27495535Y-85282857D01*
X27495535Y-85282857D02*
X27495535Y-85378095D01*
X27495535Y-85378095D02*
X27543154Y-85520952D01*
X27543154Y-85520952D02*
X28114582Y-86092380D01*
X28114582Y-86092380D02*
X27495535Y-86092380D01*
X26590773Y-85092380D02*
X27066963Y-85092380D01*
X27066963Y-85092380D02*
X27114582Y-85568571D01*
X27114582Y-85568571D02*
X27066963Y-85520952D01*
X27066963Y-85520952D02*
X26971725Y-85473333D01*
X26971725Y-85473333D02*
X26733630Y-85473333D01*
X26733630Y-85473333D02*
X26638392Y-85520952D01*
X26638392Y-85520952D02*
X26590773Y-85568571D01*
X26590773Y-85568571D02*
X26543154Y-85663809D01*
X26543154Y-85663809D02*
X26543154Y-85901904D01*
X26543154Y-85901904D02*
X26590773Y-85997142D01*
X26590773Y-85997142D02*
X26638392Y-86044761D01*
X26638392Y-86044761D02*
X26733630Y-86092380D01*
X26733630Y-86092380D02*
X26971725Y-86092380D01*
X26971725Y-86092380D02*
X27066963Y-86044761D01*
X27066963Y-86044761D02*
X27114582Y-85997142D01*
X52228870Y-88473630D02*
X52324108Y-88426011D01*
X52324108Y-88426011D02*
X52371727Y-88330773D01*
X52371727Y-88330773D02*
X52371727Y-87473630D01*
X51419346Y-88473630D02*
X51419346Y-87949821D01*
X51419346Y-87949821D02*
X51466965Y-87854583D01*
X51466965Y-87854583D02*
X51562203Y-87806964D01*
X51562203Y-87806964D02*
X51752679Y-87806964D01*
X51752679Y-87806964D02*
X51847917Y-87854583D01*
X51419346Y-88426011D02*
X51514584Y-88473630D01*
X51514584Y-88473630D02*
X51752679Y-88473630D01*
X51752679Y-88473630D02*
X51847917Y-88426011D01*
X51847917Y-88426011D02*
X51895536Y-88330773D01*
X51895536Y-88330773D02*
X51895536Y-88235535D01*
X51895536Y-88235535D02*
X51847917Y-88140297D01*
X51847917Y-88140297D02*
X51752679Y-88092678D01*
X51752679Y-88092678D02*
X51514584Y-88092678D01*
X51514584Y-88092678D02*
X51419346Y-88045059D01*
X51038393Y-87806964D02*
X50800298Y-88473630D01*
X50562203Y-87806964D02*
X50800298Y-88473630D01*
X50800298Y-88473630D02*
X50895536Y-88711726D01*
X50895536Y-88711726D02*
X50943155Y-88759345D01*
X50943155Y-88759345D02*
X51038393Y-88806964D01*
X50038393Y-88473630D02*
X50133631Y-88426011D01*
X50133631Y-88426011D02*
X50181250Y-88378392D01*
X50181250Y-88378392D02*
X50228869Y-88283154D01*
X50228869Y-88283154D02*
X50228869Y-87997440D01*
X50228869Y-87997440D02*
X50181250Y-87902202D01*
X50181250Y-87902202D02*
X50133631Y-87854583D01*
X50133631Y-87854583D02*
X50038393Y-87806964D01*
X50038393Y-87806964D02*
X49895536Y-87806964D01*
X49895536Y-87806964D02*
X49800298Y-87854583D01*
X49800298Y-87854583D02*
X49752679Y-87902202D01*
X49752679Y-87902202D02*
X49705060Y-87997440D01*
X49705060Y-87997440D02*
X49705060Y-88283154D01*
X49705060Y-88283154D02*
X49752679Y-88378392D01*
X49752679Y-88378392D02*
X49800298Y-88426011D01*
X49800298Y-88426011D02*
X49895536Y-88473630D01*
X49895536Y-88473630D02*
X50038393Y-88473630D01*
X48847917Y-87806964D02*
X48847917Y-88473630D01*
X49276488Y-87806964D02*
X49276488Y-88330773D01*
X49276488Y-88330773D02*
X49228869Y-88426011D01*
X49228869Y-88426011D02*
X49133631Y-88473630D01*
X49133631Y-88473630D02*
X48990774Y-88473630D01*
X48990774Y-88473630D02*
X48895536Y-88426011D01*
X48895536Y-88426011D02*
X48847917Y-88378392D01*
X48514583Y-87806964D02*
X48133631Y-87806964D01*
X48371726Y-87473630D02*
X48371726Y-88330773D01*
X48371726Y-88330773D02*
X48324107Y-88426011D01*
X48324107Y-88426011D02*
X48228869Y-88473630D01*
X48228869Y-88473630D02*
X48133631Y-88473630D01*
X47200297Y-88473630D02*
X47200297Y-87473630D01*
X47200297Y-87854583D02*
X47105059Y-87806964D01*
X47105059Y-87806964D02*
X46914583Y-87806964D01*
X46914583Y-87806964D02*
X46819345Y-87854583D01*
X46819345Y-87854583D02*
X46771726Y-87902202D01*
X46771726Y-87902202D02*
X46724107Y-87997440D01*
X46724107Y-87997440D02*
X46724107Y-88283154D01*
X46724107Y-88283154D02*
X46771726Y-88378392D01*
X46771726Y-88378392D02*
X46819345Y-88426011D01*
X46819345Y-88426011D02*
X46914583Y-88473630D01*
X46914583Y-88473630D02*
X47105059Y-88473630D01*
X47105059Y-88473630D02*
X47200297Y-88426011D01*
X46390773Y-87806964D02*
X46152678Y-88473630D01*
X45914583Y-87806964D02*
X46152678Y-88473630D01*
X46152678Y-88473630D02*
X46247916Y-88711726D01*
X46247916Y-88711726D02*
X46295535Y-88759345D01*
X46295535Y-88759345D02*
X46390773Y-88806964D01*
X44933630Y-88473630D02*
X44933630Y-87473630D01*
X44838392Y-88092678D02*
X44552678Y-88473630D01*
X44552678Y-87806964D02*
X44933630Y-88187916D01*
X44124106Y-88473630D02*
X44124106Y-87806964D01*
X44124106Y-87473630D02*
X44171725Y-87521250D01*
X44171725Y-87521250D02*
X44124106Y-87568869D01*
X44124106Y-87568869D02*
X44076487Y-87521250D01*
X44076487Y-87521250D02*
X44124106Y-87473630D01*
X44124106Y-87473630D02*
X44124106Y-87568869D01*
X43695535Y-88426011D02*
X43600297Y-88473630D01*
X43600297Y-88473630D02*
X43409821Y-88473630D01*
X43409821Y-88473630D02*
X43314583Y-88426011D01*
X43314583Y-88426011D02*
X43266964Y-88330773D01*
X43266964Y-88330773D02*
X43266964Y-88283154D01*
X43266964Y-88283154D02*
X43314583Y-88187916D01*
X43314583Y-88187916D02*
X43409821Y-88140297D01*
X43409821Y-88140297D02*
X43552678Y-88140297D01*
X43552678Y-88140297D02*
X43647916Y-88092678D01*
X43647916Y-88092678D02*
X43695535Y-87997440D01*
X43695535Y-87997440D02*
X43695535Y-87949821D01*
X43695535Y-87949821D02*
X43647916Y-87854583D01*
X43647916Y-87854583D02*
X43552678Y-87806964D01*
X43552678Y-87806964D02*
X43409821Y-87806964D01*
X43409821Y-87806964D02*
X43314583Y-87854583D01*
X42457440Y-88426011D02*
X42552678Y-88473630D01*
X42552678Y-88473630D02*
X42743154Y-88473630D01*
X42743154Y-88473630D02*
X42838392Y-88426011D01*
X42838392Y-88426011D02*
X42886011Y-88330773D01*
X42886011Y-88330773D02*
X42886011Y-87949821D01*
X42886011Y-87949821D02*
X42838392Y-87854583D01*
X42838392Y-87854583D02*
X42743154Y-87806964D01*
X42743154Y-87806964D02*
X42552678Y-87806964D01*
X42552678Y-87806964D02*
X42457440Y-87854583D01*
X42457440Y-87854583D02*
X42409821Y-87949821D01*
X42409821Y-87949821D02*
X42409821Y-88045059D01*
X42409821Y-88045059D02*
X42886011Y-88140297D01*
X41981249Y-88473630D02*
X41981249Y-87806964D01*
X41981249Y-87997440D02*
X41933630Y-87902202D01*
X41933630Y-87902202D02*
X41886011Y-87854583D01*
X41886011Y-87854583D02*
X41790773Y-87806964D01*
X41790773Y-87806964D02*
X41695535Y-87806964D01*
X40933630Y-88473630D02*
X40933630Y-87473630D01*
X40933630Y-88426011D02*
X41028868Y-88473630D01*
X41028868Y-88473630D02*
X41219344Y-88473630D01*
X41219344Y-88473630D02*
X41314582Y-88426011D01*
X41314582Y-88426011D02*
X41362201Y-88378392D01*
X41362201Y-88378392D02*
X41409820Y-88283154D01*
X41409820Y-88283154D02*
X41409820Y-87997440D01*
X41409820Y-87997440D02*
X41362201Y-87902202D01*
X41362201Y-87902202D02*
X41314582Y-87854583D01*
X41314582Y-87854583D02*
X41219344Y-87806964D01*
X41219344Y-87806964D02*
X41028868Y-87806964D01*
X41028868Y-87806964D02*
X40933630Y-87854583D01*
X40076487Y-88426011D02*
X40171725Y-88473630D01*
X40171725Y-88473630D02*
X40362201Y-88473630D01*
X40362201Y-88473630D02*
X40457439Y-88426011D01*
X40457439Y-88426011D02*
X40505058Y-88330773D01*
X40505058Y-88330773D02*
X40505058Y-87949821D01*
X40505058Y-87949821D02*
X40457439Y-87854583D01*
X40457439Y-87854583D02*
X40362201Y-87806964D01*
X40362201Y-87806964D02*
X40171725Y-87806964D01*
X40171725Y-87806964D02*
X40076487Y-87854583D01*
X40076487Y-87854583D02*
X40028868Y-87949821D01*
X40028868Y-87949821D02*
X40028868Y-88045059D01*
X40028868Y-88045059D02*
X40505058Y-88140297D01*
X39647915Y-88426011D02*
X39552677Y-88473630D01*
X39552677Y-88473630D02*
X39362201Y-88473630D01*
X39362201Y-88473630D02*
X39266963Y-88426011D01*
X39266963Y-88426011D02*
X39219344Y-88330773D01*
X39219344Y-88330773D02*
X39219344Y-88283154D01*
X39219344Y-88283154D02*
X39266963Y-88187916D01*
X39266963Y-88187916D02*
X39362201Y-88140297D01*
X39362201Y-88140297D02*
X39505058Y-88140297D01*
X39505058Y-88140297D02*
X39600296Y-88092678D01*
X39600296Y-88092678D02*
X39647915Y-87997440D01*
X39647915Y-87997440D02*
X39647915Y-87949821D01*
X39647915Y-87949821D02*
X39600296Y-87854583D01*
X39600296Y-87854583D02*
X39505058Y-87806964D01*
X39505058Y-87806964D02*
X39362201Y-87806964D01*
X39362201Y-87806964D02*
X39266963Y-87854583D01*
X38790772Y-88473630D02*
X38790772Y-87806964D01*
X38790772Y-87473630D02*
X38838391Y-87521250D01*
X38838391Y-87521250D02*
X38790772Y-87568869D01*
X38790772Y-87568869D02*
X38743153Y-87521250D01*
X38743153Y-87521250D02*
X38790772Y-87473630D01*
X38790772Y-87473630D02*
X38790772Y-87568869D01*
X37886011Y-87806964D02*
X37886011Y-88616488D01*
X37886011Y-88616488D02*
X37933630Y-88711726D01*
X37933630Y-88711726D02*
X37981249Y-88759345D01*
X37981249Y-88759345D02*
X38076487Y-88806964D01*
X38076487Y-88806964D02*
X38219344Y-88806964D01*
X38219344Y-88806964D02*
X38314582Y-88759345D01*
X37886011Y-88426011D02*
X37981249Y-88473630D01*
X37981249Y-88473630D02*
X38171725Y-88473630D01*
X38171725Y-88473630D02*
X38266963Y-88426011D01*
X38266963Y-88426011D02*
X38314582Y-88378392D01*
X38314582Y-88378392D02*
X38362201Y-88283154D01*
X38362201Y-88283154D02*
X38362201Y-87997440D01*
X38362201Y-87997440D02*
X38314582Y-87902202D01*
X38314582Y-87902202D02*
X38266963Y-87854583D01*
X38266963Y-87854583D02*
X38171725Y-87806964D01*
X38171725Y-87806964D02*
X37981249Y-87806964D01*
X37981249Y-87806964D02*
X37886011Y-87854583D01*
X37409820Y-87806964D02*
X37409820Y-88473630D01*
X37409820Y-87902202D02*
X37362201Y-87854583D01*
X37362201Y-87854583D02*
X37266963Y-87806964D01*
X37266963Y-87806964D02*
X37124106Y-87806964D01*
X37124106Y-87806964D02*
X37028868Y-87854583D01*
X37028868Y-87854583D02*
X36981249Y-87949821D01*
X36981249Y-87949821D02*
X36981249Y-88473630D01*
X36552677Y-88426011D02*
X36457439Y-88473630D01*
X36457439Y-88473630D02*
X36266963Y-88473630D01*
X36266963Y-88473630D02*
X36171725Y-88426011D01*
X36171725Y-88426011D02*
X36124106Y-88330773D01*
X36124106Y-88330773D02*
X36124106Y-88283154D01*
X36124106Y-88283154D02*
X36171725Y-88187916D01*
X36171725Y-88187916D02*
X36266963Y-88140297D01*
X36266963Y-88140297D02*
X36409820Y-88140297D01*
X36409820Y-88140297D02*
X36505058Y-88092678D01*
X36505058Y-88092678D02*
X36552677Y-87997440D01*
X36552677Y-87997440D02*
X36552677Y-87949821D01*
X36552677Y-87949821D02*
X36505058Y-87854583D01*
X36505058Y-87854583D02*
X36409820Y-87806964D01*
X36409820Y-87806964D02*
X36266963Y-87806964D01*
X36266963Y-87806964D02*
X36171725Y-87854583D01*
X34286010Y-88473630D02*
X34333630Y-88473630D01*
X34333630Y-88473630D02*
X34428868Y-88426011D01*
X34428868Y-88426011D02*
X34571725Y-88283154D01*
X34571725Y-88283154D02*
X34809820Y-87997440D01*
X34809820Y-87997440D02*
X34905058Y-87854583D01*
X34905058Y-87854583D02*
X34952677Y-87711726D01*
X34952677Y-87711726D02*
X34952677Y-87616488D01*
X34952677Y-87616488D02*
X34905058Y-87521250D01*
X34905058Y-87521250D02*
X34809820Y-87473630D01*
X34809820Y-87473630D02*
X34762201Y-87473630D01*
X34762201Y-87473630D02*
X34666963Y-87521250D01*
X34666963Y-87521250D02*
X34619344Y-87616488D01*
X34619344Y-87616488D02*
X34619344Y-87664107D01*
X34619344Y-87664107D02*
X34666963Y-87759345D01*
X34666963Y-87759345D02*
X34714582Y-87806964D01*
X34714582Y-87806964D02*
X35000296Y-87997440D01*
X35000296Y-87997440D02*
X35047915Y-88045059D01*
X35047915Y-88045059D02*
X35095534Y-88140297D01*
X35095534Y-88140297D02*
X35095534Y-88283154D01*
X35095534Y-88283154D02*
X35047915Y-88378392D01*
X35047915Y-88378392D02*
X35000296Y-88426011D01*
X35000296Y-88426011D02*
X34905058Y-88473630D01*
X34905058Y-88473630D02*
X34762201Y-88473630D01*
X34762201Y-88473630D02*
X34666963Y-88426011D01*
X34666963Y-88426011D02*
X34619344Y-88378392D01*
X34619344Y-88378392D02*
X34476487Y-88187916D01*
X34476487Y-88187916D02*
X34428868Y-88045059D01*
X34428868Y-88045059D02*
X34428868Y-87949821D01*
X33400296Y-87806964D02*
X33019344Y-87806964D01*
X33257439Y-88473630D02*
X33257439Y-87616488D01*
X33257439Y-87616488D02*
X33209820Y-87521250D01*
X33209820Y-87521250D02*
X33114582Y-87473630D01*
X33114582Y-87473630D02*
X33019344Y-87473630D01*
X32686010Y-88473630D02*
X32686010Y-87806964D01*
X32686010Y-87997440D02*
X32638391Y-87902202D01*
X32638391Y-87902202D02*
X32590772Y-87854583D01*
X32590772Y-87854583D02*
X32495534Y-87806964D01*
X32495534Y-87806964D02*
X32400296Y-87806964D01*
X32066962Y-88473630D02*
X32066962Y-87806964D01*
X32066962Y-87473630D02*
X32114581Y-87521250D01*
X32114581Y-87521250D02*
X32066962Y-87568869D01*
X32066962Y-87568869D02*
X32019343Y-87521250D01*
X32019343Y-87521250D02*
X32066962Y-87473630D01*
X32066962Y-87473630D02*
X32066962Y-87568869D01*
X31209820Y-88426011D02*
X31305058Y-88473630D01*
X31305058Y-88473630D02*
X31495534Y-88473630D01*
X31495534Y-88473630D02*
X31590772Y-88426011D01*
X31590772Y-88426011D02*
X31638391Y-88330773D01*
X31638391Y-88330773D02*
X31638391Y-87949821D01*
X31638391Y-87949821D02*
X31590772Y-87854583D01*
X31590772Y-87854583D02*
X31495534Y-87806964D01*
X31495534Y-87806964D02*
X31305058Y-87806964D01*
X31305058Y-87806964D02*
X31209820Y-87854583D01*
X31209820Y-87854583D02*
X31162201Y-87949821D01*
X31162201Y-87949821D02*
X31162201Y-88045059D01*
X31162201Y-88045059D02*
X31638391Y-88140297D01*
X30733629Y-87806964D02*
X30733629Y-88473630D01*
X30733629Y-87902202D02*
X30686010Y-87854583D01*
X30686010Y-87854583D02*
X30590772Y-87806964D01*
X30590772Y-87806964D02*
X30447915Y-87806964D01*
X30447915Y-87806964D02*
X30352677Y-87854583D01*
X30352677Y-87854583D02*
X30305058Y-87949821D01*
X30305058Y-87949821D02*
X30305058Y-88473630D01*
X29400296Y-88473630D02*
X29400296Y-87473630D01*
X29400296Y-88426011D02*
X29495534Y-88473630D01*
X29495534Y-88473630D02*
X29686010Y-88473630D01*
X29686010Y-88473630D02*
X29781248Y-88426011D01*
X29781248Y-88426011D02*
X29828867Y-88378392D01*
X29828867Y-88378392D02*
X29876486Y-88283154D01*
X29876486Y-88283154D02*
X29876486Y-87997440D01*
X29876486Y-87997440D02*
X29828867Y-87902202D01*
X29828867Y-87902202D02*
X29781248Y-87854583D01*
X29781248Y-87854583D02*
X29686010Y-87806964D01*
X29686010Y-87806964D02*
X29495534Y-87806964D01*
X29495534Y-87806964D02*
X29400296Y-87854583D01*
X28971724Y-88426011D02*
X28876486Y-88473630D01*
X28876486Y-88473630D02*
X28686010Y-88473630D01*
X28686010Y-88473630D02*
X28590772Y-88426011D01*
X28590772Y-88426011D02*
X28543153Y-88330773D01*
X28543153Y-88330773D02*
X28543153Y-88283154D01*
X28543153Y-88283154D02*
X28590772Y-88187916D01*
X28590772Y-88187916D02*
X28686010Y-88140297D01*
X28686010Y-88140297D02*
X28828867Y-88140297D01*
X28828867Y-88140297D02*
X28924105Y-88092678D01*
X28924105Y-88092678D02*
X28971724Y-87997440D01*
X28971724Y-87997440D02*
X28971724Y-87949821D01*
X28971724Y-87949821D02*
X28924105Y-87854583D01*
X28924105Y-87854583D02*
X28828867Y-87806964D01*
X28828867Y-87806964D02*
X28686010Y-87806964D01*
X28686010Y-87806964D02*
X28590772Y-87854583D01*
X280860416Y-86092380D02*
X281431844Y-86092380D01*
X281146130Y-86092380D02*
X281146130Y-85092380D01*
X281146130Y-85092380D02*
X281241368Y-85235238D01*
X281241368Y-85235238D02*
X281336606Y-85330476D01*
X281336606Y-85330476D02*
X281431844Y-85378095D01*
X280479463Y-85187619D02*
X280431844Y-85140000D01*
X280431844Y-85140000D02*
X280336606Y-85092380D01*
X280336606Y-85092380D02*
X280098511Y-85092380D01*
X280098511Y-85092380D02*
X280003273Y-85140000D01*
X280003273Y-85140000D02*
X279955654Y-85187619D01*
X279955654Y-85187619D02*
X279908035Y-85282857D01*
X279908035Y-85282857D02*
X279908035Y-85378095D01*
X279908035Y-85378095D02*
X279955654Y-85520952D01*
X279955654Y-85520952D02*
X280527082Y-86092380D01*
X280527082Y-86092380D02*
X279908035Y-86092380D01*
X279003273Y-85092380D02*
X279479463Y-85092380D01*
X279479463Y-85092380D02*
X279527082Y-85568571D01*
X279527082Y-85568571D02*
X279479463Y-85520952D01*
X279479463Y-85520952D02*
X279384225Y-85473333D01*
X279384225Y-85473333D02*
X279146130Y-85473333D01*
X279146130Y-85473333D02*
X279050892Y-85520952D01*
X279050892Y-85520952D02*
X279003273Y-85568571D01*
X279003273Y-85568571D02*
X278955654Y-85663809D01*
X278955654Y-85663809D02*
X278955654Y-85901904D01*
X278955654Y-85901904D02*
X279003273Y-85997142D01*
X279003273Y-85997142D02*
X279050892Y-86044761D01*
X279050892Y-86044761D02*
X279146130Y-86092380D01*
X279146130Y-86092380D02*
X279384225Y-86092380D01*
X279384225Y-86092380D02*
X279479463Y-86044761D01*
X279479463Y-86044761D02*
X279527082Y-85997142D01*
X71310416Y-86092380D02*
X71881844Y-86092380D01*
X71596130Y-86092380D02*
X71596130Y-85092380D01*
X71596130Y-85092380D02*
X71691368Y-85235238D01*
X71691368Y-85235238D02*
X71786606Y-85330476D01*
X71786606Y-85330476D02*
X71881844Y-85378095D01*
X70929463Y-85187619D02*
X70881844Y-85140000D01*
X70881844Y-85140000D02*
X70786606Y-85092380D01*
X70786606Y-85092380D02*
X70548511Y-85092380D01*
X70548511Y-85092380D02*
X70453273Y-85140000D01*
X70453273Y-85140000D02*
X70405654Y-85187619D01*
X70405654Y-85187619D02*
X70358035Y-85282857D01*
X70358035Y-85282857D02*
X70358035Y-85378095D01*
X70358035Y-85378095D02*
X70405654Y-85520952D01*
X70405654Y-85520952D02*
X70977082Y-86092380D01*
X70977082Y-86092380D02*
X70358035Y-86092380D01*
X69453273Y-85092380D02*
X69929463Y-85092380D01*
X69929463Y-85092380D02*
X69977082Y-85568571D01*
X69977082Y-85568571D02*
X69929463Y-85520952D01*
X69929463Y-85520952D02*
X69834225Y-85473333D01*
X69834225Y-85473333D02*
X69596130Y-85473333D01*
X69596130Y-85473333D02*
X69500892Y-85520952D01*
X69500892Y-85520952D02*
X69453273Y-85568571D01*
X69453273Y-85568571D02*
X69405654Y-85663809D01*
X69405654Y-85663809D02*
X69405654Y-85901904D01*
X69405654Y-85901904D02*
X69453273Y-85997142D01*
X69453273Y-85997142D02*
X69500892Y-86044761D01*
X69500892Y-86044761D02*
X69596130Y-86092380D01*
X69596130Y-86092380D02*
X69834225Y-86092380D01*
X69834225Y-86092380D02*
X69929463Y-86044761D01*
X69929463Y-86044761D02*
X69977082Y-85997142D01*
X212375594Y-70900119D02*
X212327975Y-70852500D01*
X212327975Y-70852500D02*
X212232737Y-70804880D01*
X212232737Y-70804880D02*
X211994642Y-70804880D01*
X211994642Y-70804880D02*
X211899404Y-70852500D01*
X211899404Y-70852500D02*
X211851785Y-70900119D01*
X211851785Y-70900119D02*
X211804166Y-70995357D01*
X211804166Y-70995357D02*
X211804166Y-71090595D01*
X211804166Y-71090595D02*
X211851785Y-71233452D01*
X211851785Y-71233452D02*
X212423213Y-71804880D01*
X212423213Y-71804880D02*
X211804166Y-71804880D01*
X211470832Y-70804880D02*
X210804166Y-70804880D01*
X210804166Y-70804880D02*
X211232737Y-71804880D01*
X209947023Y-70804880D02*
X210423213Y-70804880D01*
X210423213Y-70804880D02*
X210470832Y-71281071D01*
X210470832Y-71281071D02*
X210423213Y-71233452D01*
X210423213Y-71233452D02*
X210327975Y-71185833D01*
X210327975Y-71185833D02*
X210089880Y-71185833D01*
X210089880Y-71185833D02*
X209994642Y-71233452D01*
X209994642Y-71233452D02*
X209947023Y-71281071D01*
X209947023Y-71281071D02*
X209899404Y-71376309D01*
X209899404Y-71376309D02*
X209899404Y-71614404D01*
X209899404Y-71614404D02*
X209947023Y-71709642D01*
X209947023Y-71709642D02*
X209994642Y-71757261D01*
X209994642Y-71757261D02*
X210089880Y-71804880D01*
X210089880Y-71804880D02*
X210327975Y-71804880D01*
X210327975Y-71804880D02*
X210423213Y-71757261D01*
X210423213Y-71757261D02*
X210470832Y-71709642D01*
X281193749Y-38467380D02*
X281193749Y-37467380D01*
X280765178Y-38419761D02*
X280622321Y-38467380D01*
X280622321Y-38467380D02*
X280384226Y-38467380D01*
X280384226Y-38467380D02*
X280288988Y-38419761D01*
X280288988Y-38419761D02*
X280241369Y-38372142D01*
X280241369Y-38372142D02*
X280193750Y-38276904D01*
X280193750Y-38276904D02*
X280193750Y-38181666D01*
X280193750Y-38181666D02*
X280241369Y-38086428D01*
X280241369Y-38086428D02*
X280288988Y-38038809D01*
X280288988Y-38038809D02*
X280384226Y-37991190D01*
X280384226Y-37991190D02*
X280574702Y-37943571D01*
X280574702Y-37943571D02*
X280669940Y-37895952D01*
X280669940Y-37895952D02*
X280717559Y-37848333D01*
X280717559Y-37848333D02*
X280765178Y-37753095D01*
X280765178Y-37753095D02*
X280765178Y-37657857D01*
X280765178Y-37657857D02*
X280717559Y-37562619D01*
X280717559Y-37562619D02*
X280669940Y-37515000D01*
X280669940Y-37515000D02*
X280574702Y-37467380D01*
X280574702Y-37467380D02*
X280336607Y-37467380D01*
X280336607Y-37467380D02*
X280193750Y-37515000D01*
X279574702Y-37467380D02*
X279384226Y-37467380D01*
X279384226Y-37467380D02*
X279288988Y-37515000D01*
X279288988Y-37515000D02*
X279193750Y-37610238D01*
X279193750Y-37610238D02*
X279146131Y-37800714D01*
X279146131Y-37800714D02*
X279146131Y-38134047D01*
X279146131Y-38134047D02*
X279193750Y-38324523D01*
X279193750Y-38324523D02*
X279288988Y-38419761D01*
X279288988Y-38419761D02*
X279384226Y-38467380D01*
X279384226Y-38467380D02*
X279574702Y-38467380D01*
X279574702Y-38467380D02*
X279669940Y-38419761D01*
X279669940Y-38419761D02*
X279765178Y-38324523D01*
X279765178Y-38324523D02*
X279812797Y-38134047D01*
X279812797Y-38134047D02*
X279812797Y-37800714D01*
X279812797Y-37800714D02*
X279765178Y-37610238D01*
X279765178Y-37610238D02*
X279669940Y-37515000D01*
X279669940Y-37515000D02*
X279574702Y-37467380D01*
X121888094Y-70900119D02*
X121840475Y-70852500D01*
X121840475Y-70852500D02*
X121745237Y-70804880D01*
X121745237Y-70804880D02*
X121507142Y-70804880D01*
X121507142Y-70804880D02*
X121411904Y-70852500D01*
X121411904Y-70852500D02*
X121364285Y-70900119D01*
X121364285Y-70900119D02*
X121316666Y-70995357D01*
X121316666Y-70995357D02*
X121316666Y-71090595D01*
X121316666Y-71090595D02*
X121364285Y-71233452D01*
X121364285Y-71233452D02*
X121935713Y-71804880D01*
X121935713Y-71804880D02*
X121316666Y-71804880D01*
X120983332Y-70804880D02*
X120316666Y-70804880D01*
X120316666Y-70804880D02*
X120745237Y-71804880D01*
X119459523Y-70804880D02*
X119935713Y-70804880D01*
X119935713Y-70804880D02*
X119983332Y-71281071D01*
X119983332Y-71281071D02*
X119935713Y-71233452D01*
X119935713Y-71233452D02*
X119840475Y-71185833D01*
X119840475Y-71185833D02*
X119602380Y-71185833D01*
X119602380Y-71185833D02*
X119507142Y-71233452D01*
X119507142Y-71233452D02*
X119459523Y-71281071D01*
X119459523Y-71281071D02*
X119411904Y-71376309D01*
X119411904Y-71376309D02*
X119411904Y-71614404D01*
X119411904Y-71614404D02*
X119459523Y-71709642D01*
X119459523Y-71709642D02*
X119507142Y-71757261D01*
X119507142Y-71757261D02*
X119602380Y-71804880D01*
X119602380Y-71804880D02*
X119840475Y-71804880D01*
X119840475Y-71804880D02*
X119935713Y-71757261D01*
X119935713Y-71757261D02*
X119983332Y-71709642D01*
X237997916Y-86092380D02*
X238569344Y-86092380D01*
X238283630Y-86092380D02*
X238283630Y-85092380D01*
X238283630Y-85092380D02*
X238378868Y-85235238D01*
X238378868Y-85235238D02*
X238474106Y-85330476D01*
X238474106Y-85330476D02*
X238569344Y-85378095D01*
X237616963Y-85187619D02*
X237569344Y-85140000D01*
X237569344Y-85140000D02*
X237474106Y-85092380D01*
X237474106Y-85092380D02*
X237236011Y-85092380D01*
X237236011Y-85092380D02*
X237140773Y-85140000D01*
X237140773Y-85140000D02*
X237093154Y-85187619D01*
X237093154Y-85187619D02*
X237045535Y-85282857D01*
X237045535Y-85282857D02*
X237045535Y-85378095D01*
X237045535Y-85378095D02*
X237093154Y-85520952D01*
X237093154Y-85520952D02*
X237664582Y-86092380D01*
X237664582Y-86092380D02*
X237045535Y-86092380D01*
X236140773Y-85092380D02*
X236616963Y-85092380D01*
X236616963Y-85092380D02*
X236664582Y-85568571D01*
X236664582Y-85568571D02*
X236616963Y-85520952D01*
X236616963Y-85520952D02*
X236521725Y-85473333D01*
X236521725Y-85473333D02*
X236283630Y-85473333D01*
X236283630Y-85473333D02*
X236188392Y-85520952D01*
X236188392Y-85520952D02*
X236140773Y-85568571D01*
X236140773Y-85568571D02*
X236093154Y-85663809D01*
X236093154Y-85663809D02*
X236093154Y-85901904D01*
X236093154Y-85901904D02*
X236140773Y-85997142D01*
X236140773Y-85997142D02*
X236188392Y-86044761D01*
X236188392Y-86044761D02*
X236283630Y-86092380D01*
X236283630Y-86092380D02*
X236521725Y-86092380D01*
X236521725Y-86092380D02*
X236616963Y-86044761D01*
X236616963Y-86044761D02*
X236664582Y-85997142D01*
X48926785Y-86092380D02*
X49498213Y-86092380D01*
X49212499Y-86092380D02*
X49212499Y-85092380D01*
X49212499Y-85092380D02*
X49307737Y-85235238D01*
X49307737Y-85235238D02*
X49402975Y-85330476D01*
X49402975Y-85330476D02*
X49498213Y-85378095D01*
X26161904Y-70804880D02*
X26352380Y-70804880D01*
X26352380Y-70804880D02*
X26447618Y-70852500D01*
X26447618Y-70852500D02*
X26495237Y-70900119D01*
X26495237Y-70900119D02*
X26590475Y-71042976D01*
X26590475Y-71042976D02*
X26638094Y-71233452D01*
X26638094Y-71233452D02*
X26638094Y-71614404D01*
X26638094Y-71614404D02*
X26590475Y-71709642D01*
X26590475Y-71709642D02*
X26542856Y-71757261D01*
X26542856Y-71757261D02*
X26447618Y-71804880D01*
X26447618Y-71804880D02*
X26257142Y-71804880D01*
X26257142Y-71804880D02*
X26161904Y-71757261D01*
X26161904Y-71757261D02*
X26114285Y-71709642D01*
X26114285Y-71709642D02*
X26066666Y-71614404D01*
X26066666Y-71614404D02*
X26066666Y-71376309D01*
X26066666Y-71376309D02*
X26114285Y-71281071D01*
X26114285Y-71281071D02*
X26161904Y-71233452D01*
X26161904Y-71233452D02*
X26257142Y-71185833D01*
X26257142Y-71185833D02*
X26447618Y-71185833D01*
X26447618Y-71185833D02*
X26542856Y-71233452D01*
X26542856Y-71233452D02*
X26590475Y-71281071D01*
X26590475Y-71281071D02*
X26638094Y-71376309D01*
X25685713Y-70900119D02*
X25638094Y-70852500D01*
X25638094Y-70852500D02*
X25542856Y-70804880D01*
X25542856Y-70804880D02*
X25304761Y-70804880D01*
X25304761Y-70804880D02*
X25209523Y-70852500D01*
X25209523Y-70852500D02*
X25161904Y-70900119D01*
X25161904Y-70900119D02*
X25114285Y-70995357D01*
X25114285Y-70995357D02*
X25114285Y-71090595D01*
X25114285Y-71090595D02*
X25161904Y-71233452D01*
X25161904Y-71233452D02*
X25733332Y-71804880D01*
X25733332Y-71804880D02*
X25114285Y-71804880D01*
X24209523Y-70804880D02*
X24685713Y-70804880D01*
X24685713Y-70804880D02*
X24733332Y-71281071D01*
X24733332Y-71281071D02*
X24685713Y-71233452D01*
X24685713Y-71233452D02*
X24590475Y-71185833D01*
X24590475Y-71185833D02*
X24352380Y-71185833D01*
X24352380Y-71185833D02*
X24257142Y-71233452D01*
X24257142Y-71233452D02*
X24209523Y-71281071D01*
X24209523Y-71281071D02*
X24161904Y-71376309D01*
X24161904Y-71376309D02*
X24161904Y-71614404D01*
X24161904Y-71614404D02*
X24209523Y-71709642D01*
X24209523Y-71709642D02*
X24257142Y-71757261D01*
X24257142Y-71757261D02*
X24352380Y-71804880D01*
X24352380Y-71804880D02*
X24590475Y-71804880D01*
X24590475Y-71804880D02*
X24685713Y-71757261D01*
X24685713Y-71757261D02*
X24733332Y-71709642D01*
X98075594Y-70900119D02*
X98027975Y-70852500D01*
X98027975Y-70852500D02*
X97932737Y-70804880D01*
X97932737Y-70804880D02*
X97694642Y-70804880D01*
X97694642Y-70804880D02*
X97599404Y-70852500D01*
X97599404Y-70852500D02*
X97551785Y-70900119D01*
X97551785Y-70900119D02*
X97504166Y-70995357D01*
X97504166Y-70995357D02*
X97504166Y-71090595D01*
X97504166Y-71090595D02*
X97551785Y-71233452D01*
X97551785Y-71233452D02*
X98123213Y-71804880D01*
X98123213Y-71804880D02*
X97504166Y-71804880D01*
X97170832Y-70804880D02*
X96504166Y-70804880D01*
X96504166Y-70804880D02*
X96932737Y-71804880D01*
X95647023Y-70804880D02*
X96123213Y-70804880D01*
X96123213Y-70804880D02*
X96170832Y-71281071D01*
X96170832Y-71281071D02*
X96123213Y-71233452D01*
X96123213Y-71233452D02*
X96027975Y-71185833D01*
X96027975Y-71185833D02*
X95789880Y-71185833D01*
X95789880Y-71185833D02*
X95694642Y-71233452D01*
X95694642Y-71233452D02*
X95647023Y-71281071D01*
X95647023Y-71281071D02*
X95599404Y-71376309D01*
X95599404Y-71376309D02*
X95599404Y-71614404D01*
X95599404Y-71614404D02*
X95647023Y-71709642D01*
X95647023Y-71709642D02*
X95694642Y-71757261D01*
X95694642Y-71757261D02*
X95789880Y-71804880D01*
X95789880Y-71804880D02*
X96027975Y-71804880D01*
X96027975Y-71804880D02*
X96123213Y-71757261D01*
X96123213Y-71757261D02*
X96170832Y-71709642D01*
X109981844Y-85187619D02*
X109934225Y-85140000D01*
X109934225Y-85140000D02*
X109838987Y-85092380D01*
X109838987Y-85092380D02*
X109600892Y-85092380D01*
X109600892Y-85092380D02*
X109505654Y-85140000D01*
X109505654Y-85140000D02*
X109458035Y-85187619D01*
X109458035Y-85187619D02*
X109410416Y-85282857D01*
X109410416Y-85282857D02*
X109410416Y-85378095D01*
X109410416Y-85378095D02*
X109458035Y-85520952D01*
X109458035Y-85520952D02*
X110029463Y-86092380D01*
X110029463Y-86092380D02*
X109410416Y-86092380D01*
X109077082Y-85092380D02*
X108410416Y-85092380D01*
X108410416Y-85092380D02*
X108838987Y-86092380D01*
X107553273Y-85092380D02*
X108029463Y-85092380D01*
X108029463Y-85092380D02*
X108077082Y-85568571D01*
X108077082Y-85568571D02*
X108029463Y-85520952D01*
X108029463Y-85520952D02*
X107934225Y-85473333D01*
X107934225Y-85473333D02*
X107696130Y-85473333D01*
X107696130Y-85473333D02*
X107600892Y-85520952D01*
X107600892Y-85520952D02*
X107553273Y-85568571D01*
X107553273Y-85568571D02*
X107505654Y-85663809D01*
X107505654Y-85663809D02*
X107505654Y-85901904D01*
X107505654Y-85901904D02*
X107553273Y-85997142D01*
X107553273Y-85997142D02*
X107600892Y-86044761D01*
X107600892Y-86044761D02*
X107696130Y-86092380D01*
X107696130Y-86092380D02*
X107934225Y-86092380D01*
X107934225Y-86092380D02*
X108029463Y-86044761D01*
X108029463Y-86044761D02*
X108077082Y-85997142D01*
X200469344Y-85187619D02*
X200421725Y-85140000D01*
X200421725Y-85140000D02*
X200326487Y-85092380D01*
X200326487Y-85092380D02*
X200088392Y-85092380D01*
X200088392Y-85092380D02*
X199993154Y-85140000D01*
X199993154Y-85140000D02*
X199945535Y-85187619D01*
X199945535Y-85187619D02*
X199897916Y-85282857D01*
X199897916Y-85282857D02*
X199897916Y-85378095D01*
X199897916Y-85378095D02*
X199945535Y-85520952D01*
X199945535Y-85520952D02*
X200516963Y-86092380D01*
X200516963Y-86092380D02*
X199897916Y-86092380D01*
X199564582Y-85092380D02*
X198897916Y-85092380D01*
X198897916Y-85092380D02*
X199326487Y-86092380D01*
X198040773Y-85092380D02*
X198516963Y-85092380D01*
X198516963Y-85092380D02*
X198564582Y-85568571D01*
X198564582Y-85568571D02*
X198516963Y-85520952D01*
X198516963Y-85520952D02*
X198421725Y-85473333D01*
X198421725Y-85473333D02*
X198183630Y-85473333D01*
X198183630Y-85473333D02*
X198088392Y-85520952D01*
X198088392Y-85520952D02*
X198040773Y-85568571D01*
X198040773Y-85568571D02*
X197993154Y-85663809D01*
X197993154Y-85663809D02*
X197993154Y-85901904D01*
X197993154Y-85901904D02*
X198040773Y-85997142D01*
X198040773Y-85997142D02*
X198088392Y-86044761D01*
X198088392Y-86044761D02*
X198183630Y-86092380D01*
X198183630Y-86092380D02*
X198421725Y-86092380D01*
X198421725Y-86092380D02*
X198516963Y-86044761D01*
X198516963Y-86044761D02*
X198564582Y-85997142D01*
X233330654Y-85092380D02*
X233521130Y-85092380D01*
X233521130Y-85092380D02*
X233616368Y-85140000D01*
X233616368Y-85140000D02*
X233663987Y-85187619D01*
X233663987Y-85187619D02*
X233759225Y-85330476D01*
X233759225Y-85330476D02*
X233806844Y-85520952D01*
X233806844Y-85520952D02*
X233806844Y-85901904D01*
X233806844Y-85901904D02*
X233759225Y-85997142D01*
X233759225Y-85997142D02*
X233711606Y-86044761D01*
X233711606Y-86044761D02*
X233616368Y-86092380D01*
X233616368Y-86092380D02*
X233425892Y-86092380D01*
X233425892Y-86092380D02*
X233330654Y-86044761D01*
X233330654Y-86044761D02*
X233283035Y-85997142D01*
X233283035Y-85997142D02*
X233235416Y-85901904D01*
X233235416Y-85901904D02*
X233235416Y-85663809D01*
X233235416Y-85663809D02*
X233283035Y-85568571D01*
X233283035Y-85568571D02*
X233330654Y-85520952D01*
X233330654Y-85520952D02*
X233425892Y-85473333D01*
X233425892Y-85473333D02*
X233616368Y-85473333D01*
X233616368Y-85473333D02*
X233711606Y-85520952D01*
X233711606Y-85520952D02*
X233759225Y-85568571D01*
X233759225Y-85568571D02*
X233806844Y-85663809D01*
X232854463Y-85187619D02*
X232806844Y-85140000D01*
X232806844Y-85140000D02*
X232711606Y-85092380D01*
X232711606Y-85092380D02*
X232473511Y-85092380D01*
X232473511Y-85092380D02*
X232378273Y-85140000D01*
X232378273Y-85140000D02*
X232330654Y-85187619D01*
X232330654Y-85187619D02*
X232283035Y-85282857D01*
X232283035Y-85282857D02*
X232283035Y-85378095D01*
X232283035Y-85378095D02*
X232330654Y-85520952D01*
X232330654Y-85520952D02*
X232902082Y-86092380D01*
X232902082Y-86092380D02*
X232283035Y-86092380D01*
X231378273Y-85092380D02*
X231854463Y-85092380D01*
X231854463Y-85092380D02*
X231902082Y-85568571D01*
X231902082Y-85568571D02*
X231854463Y-85520952D01*
X231854463Y-85520952D02*
X231759225Y-85473333D01*
X231759225Y-85473333D02*
X231521130Y-85473333D01*
X231521130Y-85473333D02*
X231425892Y-85520952D01*
X231425892Y-85520952D02*
X231378273Y-85568571D01*
X231378273Y-85568571D02*
X231330654Y-85663809D01*
X231330654Y-85663809D02*
X231330654Y-85901904D01*
X231330654Y-85901904D02*
X231378273Y-85997142D01*
X231378273Y-85997142D02*
X231425892Y-86044761D01*
X231425892Y-86044761D02*
X231521130Y-86092380D01*
X231521130Y-86092380D02*
X231759225Y-86092380D01*
X231759225Y-86092380D02*
X231854463Y-86044761D01*
X231854463Y-86044761D02*
X231902082Y-85997142D01*
X171267261Y-78154880D02*
X171267261Y-77154880D01*
X171267261Y-77535833D02*
X171172023Y-77488214D01*
X171172023Y-77488214D02*
X170981547Y-77488214D01*
X170981547Y-77488214D02*
X170886309Y-77535833D01*
X170886309Y-77535833D02*
X170838690Y-77583452D01*
X170838690Y-77583452D02*
X170791071Y-77678690D01*
X170791071Y-77678690D02*
X170791071Y-77964404D01*
X170791071Y-77964404D02*
X170838690Y-78059642D01*
X170838690Y-78059642D02*
X170886309Y-78107261D01*
X170886309Y-78107261D02*
X170981547Y-78154880D01*
X170981547Y-78154880D02*
X171172023Y-78154880D01*
X171172023Y-78154880D02*
X171267261Y-78107261D01*
X170219642Y-78154880D02*
X170314880Y-78107261D01*
X170314880Y-78107261D02*
X170362499Y-78059642D01*
X170362499Y-78059642D02*
X170410118Y-77964404D01*
X170410118Y-77964404D02*
X170410118Y-77678690D01*
X170410118Y-77678690D02*
X170362499Y-77583452D01*
X170362499Y-77583452D02*
X170314880Y-77535833D01*
X170314880Y-77535833D02*
X170219642Y-77488214D01*
X170219642Y-77488214D02*
X170076785Y-77488214D01*
X170076785Y-77488214D02*
X169981547Y-77535833D01*
X169981547Y-77535833D02*
X169933928Y-77583452D01*
X169933928Y-77583452D02*
X169886309Y-77678690D01*
X169886309Y-77678690D02*
X169886309Y-77964404D01*
X169886309Y-77964404D02*
X169933928Y-78059642D01*
X169933928Y-78059642D02*
X169981547Y-78107261D01*
X169981547Y-78107261D02*
X170076785Y-78154880D01*
X170076785Y-78154880D02*
X170219642Y-78154880D01*
X169314880Y-78154880D02*
X169410118Y-78107261D01*
X169410118Y-78107261D02*
X169457737Y-78059642D01*
X169457737Y-78059642D02*
X169505356Y-77964404D01*
X169505356Y-77964404D02*
X169505356Y-77678690D01*
X169505356Y-77678690D02*
X169457737Y-77583452D01*
X169457737Y-77583452D02*
X169410118Y-77535833D01*
X169410118Y-77535833D02*
X169314880Y-77488214D01*
X169314880Y-77488214D02*
X169172023Y-77488214D01*
X169172023Y-77488214D02*
X169076785Y-77535833D01*
X169076785Y-77535833D02*
X169029166Y-77583452D01*
X169029166Y-77583452D02*
X168981547Y-77678690D01*
X168981547Y-77678690D02*
X168981547Y-77964404D01*
X168981547Y-77964404D02*
X169029166Y-78059642D01*
X169029166Y-78059642D02*
X169076785Y-78107261D01*
X169076785Y-78107261D02*
X169172023Y-78154880D01*
X169172023Y-78154880D02*
X169314880Y-78154880D01*
X168695832Y-77488214D02*
X168314880Y-77488214D01*
X168552975Y-77154880D02*
X168552975Y-78012023D01*
X168552975Y-78012023D02*
X168505356Y-78107261D01*
X168505356Y-78107261D02*
X168410118Y-78154880D01*
X168410118Y-78154880D02*
X168314880Y-78154880D01*
X258476785Y-86092380D02*
X259048213Y-86092380D01*
X258762499Y-86092380D02*
X258762499Y-85092380D01*
X258762499Y-85092380D02*
X258857737Y-85235238D01*
X258857737Y-85235238D02*
X258952975Y-85330476D01*
X258952975Y-85330476D02*
X259048213Y-85378095D01*
D11*
%TO.C,D11*%
X159637500Y-45666250D02*
X159637500Y-41806250D01*
X161637500Y-45666250D02*
X159637500Y-45666250D01*
X161637500Y-45666250D02*
X161637500Y-41806250D01*
%TO.C,G\u002A\u002A\u002A*%
G36*
X33004500Y-90459500D02*
G01*
X32890514Y-90573500D01*
X32735514Y-90573500D01*
X32580514Y-90573500D01*
X32694500Y-90459500D01*
X32808487Y-90345500D01*
X32963487Y-90345500D01*
X33118487Y-90345500D01*
X33004500Y-90459500D01*
G37*
G36*
X33396500Y-90573500D02*
G01*
X33168507Y-90801500D01*
X33015004Y-90801500D01*
X33010561Y-90801499D01*
X32986365Y-90801473D01*
X32963419Y-90801412D01*
X32942028Y-90801318D01*
X32922497Y-90801195D01*
X32905133Y-90801045D01*
X32890240Y-90800872D01*
X32878125Y-90800678D01*
X32869093Y-90800467D01*
X32863450Y-90800241D01*
X32861500Y-90800003D01*
X32862183Y-90799204D01*
X32865463Y-90795762D01*
X32871318Y-90789750D01*
X32879600Y-90781318D01*
X32890158Y-90770618D01*
X32902843Y-90757799D01*
X32917505Y-90743014D01*
X32933994Y-90726412D01*
X32952161Y-90708144D01*
X32971855Y-90688362D01*
X32992927Y-90667215D01*
X33015226Y-90644855D01*
X33038605Y-90621433D01*
X33062912Y-90597098D01*
X33087997Y-90572003D01*
X33314494Y-90345500D01*
X33469494Y-90345500D01*
X33624494Y-90345500D01*
X33396500Y-90573500D01*
G37*
G36*
X34319999Y-89788998D02*
G01*
X34711501Y-90180496D01*
X34711501Y-90573496D01*
X34711500Y-90966496D01*
X34320002Y-91357998D01*
X33928504Y-91749500D01*
X33437500Y-91749500D01*
X32946497Y-91749500D01*
X32554500Y-91357500D01*
X32162504Y-90965500D01*
X32946506Y-90965500D01*
X33730508Y-90965500D01*
X33926500Y-90769500D01*
X34122493Y-90573500D01*
X33926500Y-90377500D01*
X33730508Y-90181499D01*
X33147004Y-90181500D01*
X33106295Y-90181496D01*
X33059127Y-90181485D01*
X33013138Y-90181466D01*
X32968484Y-90181440D01*
X32925322Y-90181406D01*
X32883808Y-90181365D01*
X32844099Y-90181318D01*
X32806353Y-90181265D01*
X32770725Y-90181205D01*
X32737373Y-90181140D01*
X32706454Y-90181070D01*
X32678123Y-90180995D01*
X32652539Y-90180916D01*
X32629857Y-90180832D01*
X32610235Y-90180744D01*
X32593828Y-90180653D01*
X32580795Y-90180558D01*
X32571291Y-90180461D01*
X32565474Y-90180361D01*
X32563500Y-90180259D01*
X32564888Y-90177498D01*
X32568830Y-90172318D01*
X32574988Y-90165067D01*
X32583025Y-90156092D01*
X32592604Y-90145738D01*
X32603386Y-90134353D01*
X32615035Y-90122283D01*
X32627213Y-90109875D01*
X32639583Y-90097475D01*
X32651808Y-90085431D01*
X32663549Y-90074088D01*
X32674470Y-90063794D01*
X32684233Y-90054895D01*
X32692500Y-90047737D01*
X32723849Y-90022554D01*
X32773992Y-89986032D01*
X32825611Y-89952976D01*
X32878944Y-89923267D01*
X32934230Y-89896782D01*
X32991710Y-89873403D01*
X33051622Y-89853008D01*
X33114205Y-89835478D01*
X33120130Y-89833955D01*
X33129325Y-89831461D01*
X33136480Y-89829347D01*
X33140979Y-89827800D01*
X33142205Y-89827007D01*
X33140570Y-89826398D01*
X33135844Y-89825075D01*
X33129500Y-89823545D01*
X33123633Y-89822172D01*
X33108708Y-89818392D01*
X33091556Y-89813744D01*
X33073234Y-89808532D01*
X33054804Y-89803062D01*
X33037322Y-89797638D01*
X33021850Y-89792564D01*
X33013774Y-89789783D01*
X32954796Y-89767209D01*
X32897653Y-89741304D01*
X32842601Y-89712203D01*
X32789898Y-89680041D01*
X32739803Y-89644953D01*
X32738006Y-89643605D01*
X32730274Y-89637796D01*
X32723878Y-89632972D01*
X32719442Y-89629604D01*
X32717587Y-89628163D01*
X32717833Y-89627788D01*
X32720342Y-89625017D01*
X32725376Y-89619734D01*
X32732727Y-89612150D01*
X32742188Y-89602477D01*
X32753550Y-89590927D01*
X32766604Y-89577711D01*
X32781143Y-89563041D01*
X32796957Y-89547128D01*
X32813839Y-89530184D01*
X32831581Y-89512419D01*
X32946487Y-89397500D01*
X33437492Y-89397500D01*
X33928497Y-89397500D01*
X34319999Y-89788998D01*
G37*
G36*
X32250606Y-89194521D02*
G01*
X32259776Y-89230058D01*
X32277303Y-89285976D01*
X32298122Y-89339701D01*
X32322288Y-89391358D01*
X32349859Y-89441076D01*
X32380889Y-89488981D01*
X32398843Y-89513732D01*
X32434277Y-89557473D01*
X32472597Y-89598700D01*
X32513583Y-89637259D01*
X32557011Y-89672996D01*
X32602662Y-89705758D01*
X32650314Y-89735390D01*
X32699745Y-89761738D01*
X32750734Y-89784649D01*
X32803060Y-89803970D01*
X32856500Y-89819545D01*
X32858753Y-89820118D01*
X32868210Y-89822604D01*
X32876082Y-89824796D01*
X32881603Y-89826474D01*
X32884006Y-89827418D01*
X32883555Y-89828020D01*
X32880097Y-89829438D01*
X32873998Y-89831294D01*
X32866006Y-89833345D01*
X32847948Y-89837932D01*
X32812328Y-89848512D01*
X32775733Y-89861235D01*
X32739383Y-89875662D01*
X32704500Y-89891354D01*
X32667325Y-89910350D01*
X32618270Y-89939223D01*
X32571456Y-89971270D01*
X32527029Y-90006326D01*
X32485134Y-90044228D01*
X32445915Y-90084813D01*
X32409518Y-90127917D01*
X32376089Y-90173377D01*
X32345771Y-90221029D01*
X32318711Y-90270709D01*
X32295053Y-90322253D01*
X32274942Y-90375500D01*
X32272289Y-90383446D01*
X32269237Y-90392942D01*
X32266274Y-90402670D01*
X32263190Y-90413359D01*
X32259776Y-90425740D01*
X32255820Y-90440544D01*
X32251115Y-90458500D01*
X32250725Y-90459977D01*
X32249939Y-90462425D01*
X32249168Y-90463106D01*
X32248216Y-90461597D01*
X32246883Y-90457476D01*
X32244971Y-90450320D01*
X32242281Y-90439707D01*
X32241252Y-90435722D01*
X32237734Y-90422952D01*
X32233496Y-90408457D01*
X32228981Y-90393735D01*
X32224635Y-90380279D01*
X32209799Y-90339401D01*
X32187142Y-90286999D01*
X32161150Y-90236597D01*
X32131965Y-90188323D01*
X32099728Y-90142311D01*
X32064580Y-90098692D01*
X32026662Y-90057597D01*
X31986114Y-90019157D01*
X31943078Y-89983505D01*
X31897694Y-89950771D01*
X31850104Y-89921087D01*
X31800449Y-89894585D01*
X31748869Y-89871396D01*
X31695506Y-89851652D01*
X31640500Y-89835483D01*
X31634149Y-89833810D01*
X31625175Y-89831279D01*
X31618359Y-89829141D01*
X31614275Y-89827581D01*
X31613500Y-89826784D01*
X31613653Y-89826736D01*
X31617027Y-89825800D01*
X31623344Y-89824139D01*
X31631759Y-89821973D01*
X31641426Y-89819522D01*
X31663349Y-89813634D01*
X31713053Y-89797608D01*
X31762451Y-89778068D01*
X31810918Y-89755319D01*
X31857832Y-89729668D01*
X31902567Y-89701420D01*
X31944500Y-89670882D01*
X31963920Y-89655082D01*
X31987895Y-89634138D01*
X32011876Y-89611753D01*
X32034986Y-89588775D01*
X32056352Y-89566049D01*
X32075098Y-89544424D01*
X32090414Y-89525298D01*
X32124488Y-89478237D01*
X32155161Y-89429111D01*
X32182367Y-89378051D01*
X32206039Y-89325187D01*
X32226111Y-89270648D01*
X32242518Y-89214565D01*
X32243686Y-89210036D01*
X32246085Y-89201106D01*
X32247810Y-89195501D01*
X32249028Y-89192809D01*
X32249905Y-89192619D01*
X32250606Y-89194521D01*
G37*
%TO.C,D29*%
X154193750Y-52358750D02*
X154193750Y-56218750D01*
X152193750Y-52358750D02*
X154193750Y-52358750D01*
X152193750Y-52358750D02*
X152193750Y-56218750D01*
%TO.C,D6*%
X146143750Y-45666250D02*
X146143750Y-41806250D01*
X148143750Y-45666250D02*
X146143750Y-45666250D01*
X148143750Y-45666250D02*
X148143750Y-41806250D01*
%TO.C,D31*%
X172450000Y-52358750D02*
X172450000Y-56218750D01*
X170450000Y-52358750D02*
X172450000Y-52358750D01*
X170450000Y-52358750D02*
X170450000Y-56218750D01*
%TO.C,D10*%
X157256250Y-45666250D02*
X157256250Y-41806250D01*
X159256250Y-45666250D02*
X157256250Y-45666250D01*
X159256250Y-45666250D02*
X159256250Y-41806250D01*
%TO.C,D4*%
X141381250Y-45666250D02*
X141381250Y-41806250D01*
X143381250Y-45666250D02*
X141381250Y-45666250D01*
X143381250Y-45666250D02*
X143381250Y-41806250D01*
%TO.C,D12*%
X162018750Y-45666250D02*
X162018750Y-41806250D01*
X164018750Y-45666250D02*
X162018750Y-45666250D01*
X164018750Y-45666250D02*
X164018750Y-41806250D01*
%TO.C,C8*%
X152540580Y-65997500D02*
X152259420Y-65997500D01*
X152540580Y-64977500D02*
X152259420Y-64977500D01*
%TO.C,D32*%
X174831250Y-52358750D02*
X174831250Y-56218750D01*
X172831250Y-52358750D02*
X174831250Y-52358750D01*
X172831250Y-52358750D02*
X172831250Y-56218750D01*
%TO.C,D27*%
X158956250Y-52358750D02*
X158956250Y-56218750D01*
X156956250Y-52358750D02*
X158956250Y-52358750D01*
X156956250Y-52358750D02*
X156956250Y-56218750D01*
%TO.C,J1*%
X144525000Y-19759375D02*
X144525000Y-17759375D01*
X153925000Y-19759375D02*
X153925000Y-17759375D01*
%TO.C,U2*%
X147665000Y-25796875D02*
X147665000Y-26596875D01*
X147665000Y-25796875D02*
X147665000Y-24996875D01*
X150785000Y-25796875D02*
X150785000Y-27596875D01*
X150785000Y-25796875D02*
X150785000Y-24996875D01*
%TO.C,D26*%
X161337500Y-52358750D02*
X161337500Y-56218750D01*
X159337500Y-52358750D02*
X161337500Y-52358750D01*
X159337500Y-52358750D02*
X159337500Y-56218750D01*
%TO.C,D9*%
X154875000Y-45666250D02*
X154875000Y-41806250D01*
X156875000Y-45666250D02*
X154875000Y-45666250D01*
X156875000Y-45666250D02*
X156875000Y-41806250D01*
%TO.C,D18*%
X141493750Y-46802500D02*
X141493750Y-50662500D01*
X139493750Y-46802500D02*
X141493750Y-46802500D01*
X139493750Y-46802500D02*
X139493750Y-50662500D01*
%TO.C,G\u002A\u002A\u002A*%
G36*
X260012207Y-49244486D02*
G01*
X260703296Y-49250896D01*
X261250764Y-49269343D01*
X261676300Y-49303121D01*
X262001596Y-49355525D01*
X262248341Y-49429851D01*
X262438226Y-49529394D01*
X262592940Y-49657448D01*
X262638073Y-49704188D01*
X262828585Y-49951984D01*
X262955287Y-50199933D01*
X263001161Y-50406372D01*
X262949190Y-50529637D01*
X262932090Y-50536796D01*
X262771127Y-50562102D01*
X262484534Y-50582759D01*
X262106926Y-50596799D01*
X261672917Y-50602252D01*
X260508750Y-50603553D01*
X260508750Y-53095415D01*
X260508596Y-53274870D01*
X260505583Y-53896306D01*
X260499113Y-54456242D01*
X260489695Y-54932997D01*
X260477837Y-55304893D01*
X260464048Y-55550250D01*
X260448838Y-55647389D01*
X260349696Y-55673436D01*
X260127595Y-55686897D01*
X259835005Y-55682785D01*
X259281084Y-55658068D01*
X259258657Y-53130811D01*
X259236231Y-50603553D01*
X258073324Y-50602252D01*
X257954766Y-50601798D01*
X257534581Y-50594791D01*
X257181366Y-50580723D01*
X256929240Y-50561324D01*
X256812320Y-50538323D01*
X256746916Y-50431572D01*
X256768395Y-50227932D01*
X256884423Y-49979462D01*
X257081422Y-49727095D01*
X257176514Y-49635559D01*
X257347832Y-49508345D01*
X257552845Y-49411414D01*
X257814136Y-49340862D01*
X258154289Y-49292784D01*
X258595887Y-49263277D01*
X259161513Y-49248435D01*
X259873750Y-49244356D01*
X260012207Y-49244486D01*
G37*
G36*
X207550487Y-49287524D02*
G01*
X208080089Y-49290912D01*
X208483472Y-49298587D01*
X208783490Y-49312133D01*
X209002995Y-49333135D01*
X209164839Y-49363179D01*
X209291874Y-49403849D01*
X209406953Y-49456730D01*
X209468646Y-49490565D01*
X209723494Y-49671758D01*
X209914953Y-49866471D01*
X209950458Y-49918013D01*
X209994444Y-50001956D01*
X210028060Y-50111520D01*
X210052696Y-50267317D01*
X210069738Y-50489958D01*
X210080576Y-50800054D01*
X210086599Y-51218215D01*
X210089194Y-51765052D01*
X210089750Y-52461177D01*
X210089749Y-52499561D01*
X210088722Y-53195383D01*
X210085006Y-53742640D01*
X210077424Y-54161660D01*
X210064802Y-54472773D01*
X210045964Y-54696309D01*
X210019735Y-54852594D01*
X209984940Y-54961960D01*
X209940405Y-55044735D01*
X209875917Y-55134271D01*
X209534234Y-55436086D01*
X209092796Y-55617594D01*
X209081983Y-55620124D01*
X208870448Y-55658200D01*
X208735084Y-55663095D01*
X208715816Y-55616345D01*
X208691118Y-55411153D01*
X208669625Y-55050730D01*
X208651699Y-54543645D01*
X208637700Y-53898467D01*
X208627991Y-53123763D01*
X208605564Y-50603553D01*
X206957084Y-50603553D01*
X205308604Y-50603553D01*
X205286177Y-53130811D01*
X205263750Y-55658068D01*
X205052084Y-55633545D01*
X204740851Y-55560844D01*
X204338644Y-55348529D01*
X204036084Y-55038531D01*
X203824417Y-54723620D01*
X203824417Y-52465837D01*
X203824417Y-50208053D01*
X204061627Y-49896015D01*
X204064683Y-49891997D01*
X204204157Y-49715936D01*
X204338109Y-49577811D01*
X204488395Y-49473021D01*
X204676871Y-49396969D01*
X204925394Y-49345057D01*
X205255820Y-49312685D01*
X205690006Y-49295256D01*
X206249808Y-49288171D01*
X206957084Y-49286831D01*
X207550487Y-49287524D01*
G37*
G36*
X224557004Y-50603553D02*
G01*
X224564342Y-50751954D01*
X224575020Y-51157323D01*
X224583301Y-51690408D01*
X224590877Y-52372299D01*
X224596518Y-53000991D01*
X224598740Y-53556510D01*
X224595681Y-53982948D01*
X224586275Y-54301764D01*
X224569458Y-54534414D01*
X224544162Y-54702358D01*
X224509324Y-54827053D01*
X224463877Y-54929956D01*
X224343668Y-55122417D01*
X224009636Y-55434354D01*
X223583686Y-55609660D01*
X223421292Y-55642028D01*
X223280741Y-55647836D01*
X223186263Y-55597170D01*
X223128709Y-55467343D01*
X223098928Y-55235672D01*
X223087770Y-54879471D01*
X223086084Y-54376055D01*
X223086084Y-53154694D01*
X220694250Y-53132134D01*
X218302417Y-53109573D01*
X218302417Y-51792851D01*
X219784084Y-51792851D01*
X221435084Y-51792851D01*
X223086084Y-51792851D01*
X223086084Y-51198202D01*
X223086084Y-50603553D01*
X221435084Y-50603553D01*
X219784084Y-50603553D01*
X219784084Y-51198202D01*
X219784084Y-51792851D01*
X218302417Y-51792851D01*
X218302417Y-51707901D01*
X218306386Y-51182456D01*
X218325638Y-50699475D01*
X218368053Y-50335657D01*
X218441419Y-50063716D01*
X218553524Y-49856367D01*
X218712155Y-49686327D01*
X218925101Y-49526308D01*
X218990809Y-49484862D01*
X219166087Y-49401571D01*
X219384771Y-49338429D01*
X219667810Y-49293520D01*
X220036157Y-49264931D01*
X220510764Y-49250747D01*
X221112580Y-49249055D01*
X221862558Y-49257939D01*
X222466113Y-49270063D01*
X222991634Y-49289734D01*
X223393583Y-49321611D01*
X223695954Y-49371472D01*
X223922743Y-49445093D01*
X224097945Y-49548250D01*
X224245554Y-49686720D01*
X224389567Y-49866279D01*
X224415679Y-49902692D01*
X224463762Y-49985835D01*
X224500975Y-50091242D01*
X224529013Y-50240004D01*
X224549571Y-50453212D01*
X224557004Y-50603553D01*
G37*
G36*
X254624417Y-49312892D02*
G01*
X254988922Y-49402957D01*
X255375396Y-49644049D01*
X255658225Y-50007608D01*
X255673535Y-50036877D01*
X255730556Y-50156145D01*
X255773946Y-50280852D01*
X255805563Y-50434492D01*
X255827265Y-50640560D01*
X255840910Y-50922549D01*
X255848356Y-51303955D01*
X255851462Y-51808270D01*
X255852084Y-52458990D01*
X255851462Y-53023070D01*
X255848170Y-53553622D01*
X255840525Y-53957632D01*
X255826858Y-54258604D01*
X255805500Y-54480038D01*
X255774783Y-54645436D01*
X255733036Y-54778302D01*
X255678593Y-54902137D01*
X255497334Y-55198774D01*
X255219170Y-55441047D01*
X254825956Y-55602216D01*
X254799859Y-55609529D01*
X254587965Y-55656129D01*
X254455084Y-55664252D01*
X254447668Y-55658832D01*
X254413893Y-55536456D01*
X254384599Y-55270837D01*
X254361670Y-54884028D01*
X254346987Y-54398083D01*
X254323557Y-53152048D01*
X252677084Y-53152048D01*
X251030611Y-53152048D01*
X251007181Y-54405058D01*
X250983750Y-55658068D01*
X250729750Y-55630492D01*
X250413241Y-55560545D01*
X250011634Y-55336843D01*
X249710863Y-54981189D01*
X249668272Y-54907134D01*
X249613842Y-54798861D01*
X249572819Y-54680123D01*
X249543308Y-54528144D01*
X249523412Y-54320146D01*
X249511238Y-54033354D01*
X249504889Y-53644992D01*
X249502469Y-53132282D01*
X249502084Y-52472449D01*
X249502194Y-52033392D01*
X249503658Y-51470031D01*
X249508365Y-51039267D01*
X249518211Y-50718321D01*
X249535091Y-50484418D01*
X249560901Y-50314782D01*
X249597536Y-50186636D01*
X249646891Y-50077204D01*
X249710863Y-49963709D01*
X249900752Y-49710946D01*
X250271386Y-49442524D01*
X250729750Y-49314407D01*
X250983750Y-49286831D01*
X251007181Y-50539841D01*
X251030611Y-51792851D01*
X252677084Y-51792851D01*
X254323557Y-51792851D01*
X254346987Y-50539841D01*
X254370417Y-49286831D01*
X254624417Y-49312892D01*
G37*
G36*
X217291447Y-50603553D02*
G01*
X217310653Y-52387500D01*
X217311696Y-52485342D01*
X217317764Y-53148480D01*
X217319528Y-53666231D01*
X217315832Y-54060267D01*
X217305522Y-54352260D01*
X217287445Y-54563883D01*
X217260446Y-54716809D01*
X217223370Y-54832711D01*
X217175064Y-54933261D01*
X217065404Y-55107431D01*
X216730382Y-55431428D01*
X216302353Y-55614949D01*
X216279938Y-55620106D01*
X216066082Y-55658121D01*
X215931750Y-55663347D01*
X215927213Y-55661486D01*
X215882847Y-55559239D01*
X215845273Y-55335792D01*
X215822208Y-55035387D01*
X215797332Y-54426296D01*
X214153750Y-54426296D01*
X212510169Y-54426296D01*
X212485293Y-55042182D01*
X212460417Y-55658068D01*
X212206417Y-55627996D01*
X212056189Y-55601444D01*
X211634086Y-55420236D01*
X211297166Y-55108108D01*
X211075145Y-54689706D01*
X211047547Y-54551044D01*
X211018255Y-54230709D01*
X210996667Y-53762919D01*
X210983319Y-53160256D01*
X210982732Y-53067098D01*
X212502750Y-53067098D01*
X214153750Y-53067098D01*
X215804750Y-53067098D01*
X215804750Y-51835326D01*
X215804750Y-50603553D01*
X214153750Y-50603553D01*
X212502750Y-50603553D01*
X212502750Y-51835326D01*
X212502750Y-53067098D01*
X210982732Y-53067098D01*
X210978750Y-52435298D01*
X210979321Y-51871446D01*
X210982531Y-51369219D01*
X210990384Y-50990744D01*
X211004879Y-50711477D01*
X211028015Y-50506872D01*
X211061790Y-50352386D01*
X211108202Y-50223474D01*
X211169250Y-50095590D01*
X211380302Y-49765554D01*
X211703341Y-49487811D01*
X212128303Y-49325693D01*
X212147017Y-49321837D01*
X212356313Y-49298431D01*
X212698203Y-49277968D01*
X213140932Y-49261663D01*
X213652744Y-49250729D01*
X214201883Y-49246382D01*
X214749191Y-49248166D01*
X215362645Y-49260727D01*
X215844662Y-49288956D01*
X216216975Y-49337225D01*
X216501315Y-49409907D01*
X216719416Y-49511374D01*
X216893009Y-49645998D01*
X217043827Y-49818151D01*
X217286417Y-50136329D01*
X217291447Y-50603553D01*
G37*
G36*
X236603603Y-49287978D02*
G01*
X237183565Y-49294267D01*
X237634618Y-49309558D01*
X237978056Y-49337698D01*
X238235174Y-49382540D01*
X238427265Y-49447933D01*
X238575624Y-49537728D01*
X238701544Y-49655774D01*
X238826321Y-49805922D01*
X238900911Y-49909576D01*
X238993593Y-50082050D01*
X239063335Y-50291788D01*
X239112686Y-50560865D01*
X239144194Y-50911360D01*
X239160406Y-51365349D01*
X239163871Y-51944910D01*
X239157137Y-52672119D01*
X239152645Y-52987608D01*
X239142502Y-53553214D01*
X239130030Y-53983404D01*
X239113181Y-54301721D01*
X239089909Y-54531708D01*
X239058166Y-54696907D01*
X239015907Y-54820862D01*
X238961084Y-54927115D01*
X238852274Y-55089832D01*
X238498960Y-55425206D01*
X238061686Y-55618739D01*
X237991389Y-55629783D01*
X237746222Y-55647639D01*
X237375035Y-55661664D01*
X236905902Y-55671175D01*
X236366895Y-55675491D01*
X235786084Y-55673933D01*
X235387585Y-55670434D01*
X234838720Y-55663342D01*
X234422109Y-55653097D01*
X234114497Y-55637801D01*
X233892628Y-55615558D01*
X233733248Y-55584469D01*
X233613102Y-55542638D01*
X233508934Y-55488168D01*
X233245876Y-55296338D01*
X232990449Y-54981145D01*
X232883562Y-54636036D01*
X232865084Y-54383821D01*
X235214584Y-54361239D01*
X237564084Y-54338658D01*
X237564084Y-53747228D01*
X237564084Y-53155797D01*
X235976584Y-53132685D01*
X234389084Y-53109573D01*
X234389084Y-52472449D01*
X234389084Y-51835326D01*
X235976584Y-51812214D01*
X237564084Y-51789102D01*
X237564084Y-51197671D01*
X237564084Y-50606241D01*
X235214584Y-50583659D01*
X232865084Y-50561078D01*
X232883562Y-50308863D01*
X232944253Y-50059554D01*
X233159777Y-49733028D01*
X233508934Y-49456730D01*
X233515060Y-49453127D01*
X233613991Y-49401624D01*
X233727636Y-49361965D01*
X233878082Y-49332616D01*
X234087418Y-49312043D01*
X234377731Y-49298712D01*
X234771110Y-49291088D01*
X235289643Y-49287639D01*
X235955417Y-49286831D01*
X236603603Y-49287978D01*
G37*
G36*
X200353820Y-49287524D02*
G01*
X200883422Y-49290912D01*
X201286805Y-49298587D01*
X201586823Y-49312133D01*
X201806328Y-49333135D01*
X201968172Y-49363179D01*
X202095207Y-49403849D01*
X202210287Y-49456730D01*
X202324843Y-49516724D01*
X202524584Y-49640226D01*
X202671197Y-49779268D01*
X202772846Y-49959567D01*
X202837696Y-50206844D01*
X202873910Y-50546814D01*
X202889651Y-51005198D01*
X202893084Y-51607712D01*
X202893084Y-53109573D01*
X200501250Y-53132134D01*
X198109417Y-53154694D01*
X198109417Y-53748020D01*
X198109417Y-54341346D01*
X200482741Y-54341346D01*
X201059365Y-54341423D01*
X201670273Y-54343769D01*
X202139813Y-54352220D01*
X202483783Y-54370641D01*
X202717982Y-54402893D01*
X202858210Y-54452840D01*
X202920264Y-54524346D01*
X202919945Y-54621273D01*
X202873050Y-54747486D01*
X202795380Y-54906846D01*
X202672078Y-55112187D01*
X202340885Y-55431485D01*
X201909020Y-55615417D01*
X201872619Y-55622502D01*
X201637681Y-55646190D01*
X201275103Y-55664621D01*
X200817850Y-55677764D01*
X200298882Y-55685590D01*
X199751162Y-55688069D01*
X199207653Y-55685170D01*
X198701317Y-55676865D01*
X198265116Y-55663122D01*
X197932013Y-55643912D01*
X197734970Y-55619206D01*
X197515764Y-55552424D01*
X197108170Y-55309045D01*
X196797084Y-54927115D01*
X196787506Y-54910578D01*
X196726337Y-54785040D01*
X196682939Y-54637607D01*
X196654346Y-54438681D01*
X196637594Y-54158668D01*
X196629717Y-53767972D01*
X196627750Y-53236998D01*
X196627750Y-51835326D01*
X199019584Y-51812765D01*
X201411417Y-51790205D01*
X201411417Y-51198223D01*
X201411417Y-50606241D01*
X199061917Y-50583659D01*
X198435204Y-50577343D01*
X197879684Y-50570166D01*
X197457958Y-50561362D01*
X197151283Y-50549386D01*
X196940917Y-50532690D01*
X196808118Y-50509730D01*
X196734142Y-50478959D01*
X196700249Y-50438831D01*
X196687694Y-50387799D01*
X196723484Y-50178643D01*
X196867999Y-49918234D01*
X197087664Y-49662855D01*
X197347705Y-49461323D01*
X197353123Y-49458140D01*
X197454428Y-49404724D01*
X197567844Y-49363700D01*
X197715830Y-49333444D01*
X197920847Y-49312332D01*
X198205354Y-49298738D01*
X198591811Y-49291040D01*
X199102679Y-49287612D01*
X199760417Y-49286831D01*
X200353820Y-49287524D01*
G37*
G36*
X246155844Y-49287696D02*
G01*
X246664017Y-49291324D01*
X247049273Y-49299361D01*
X247334487Y-49313454D01*
X247542533Y-49335249D01*
X247696282Y-49366392D01*
X247818611Y-49408531D01*
X247932392Y-49463310D01*
X248183466Y-49641716D01*
X248461558Y-50007608D01*
X248476868Y-50036877D01*
X248533889Y-50156145D01*
X248577279Y-50280852D01*
X248608896Y-50434492D01*
X248630598Y-50640560D01*
X248644243Y-50922549D01*
X248651690Y-51303955D01*
X248654795Y-51808270D01*
X248655417Y-52458990D01*
X248654795Y-53023070D01*
X248651503Y-53553622D01*
X248643858Y-53957632D01*
X248630191Y-54258604D01*
X248608833Y-54480038D01*
X248578116Y-54645436D01*
X248536370Y-54778302D01*
X248481926Y-54902137D01*
X248296640Y-55203823D01*
X248020952Y-55442300D01*
X247629290Y-55606484D01*
X247592268Y-55615054D01*
X247369310Y-55639612D01*
X247006906Y-55658614D01*
X246527863Y-55671381D01*
X245954987Y-55677235D01*
X245311084Y-55675496D01*
X245258065Y-55675039D01*
X244628702Y-55668820D01*
X244143829Y-55661082D01*
X243780316Y-55649766D01*
X243515034Y-55632814D01*
X243324854Y-55608168D01*
X243186648Y-55573768D01*
X243077285Y-55527558D01*
X242973638Y-55467477D01*
X242892903Y-55409506D01*
X242657012Y-55172251D01*
X242465638Y-54891625D01*
X242416483Y-54796519D01*
X242331346Y-54602546D01*
X242324947Y-54493584D01*
X242390084Y-54425155D01*
X242482511Y-54405496D01*
X242730076Y-54385037D01*
X243108637Y-54367825D01*
X243597590Y-54354556D01*
X244176329Y-54345931D01*
X244824250Y-54342647D01*
X247131417Y-54341346D01*
X247131417Y-53748531D01*
X247131417Y-53155717D01*
X245501584Y-53132645D01*
X243871750Y-53109573D01*
X243871750Y-52472449D01*
X243871750Y-51835326D01*
X245501584Y-51812254D01*
X247131417Y-51789182D01*
X247131417Y-51196368D01*
X247131417Y-50603553D01*
X244824250Y-50602252D01*
X244317339Y-50600291D01*
X243703818Y-50592721D01*
X243185906Y-50580076D01*
X242782028Y-50562993D01*
X242510612Y-50542108D01*
X242390084Y-50518061D01*
X242350367Y-50470357D01*
X242350104Y-50305854D01*
X242441335Y-50084477D01*
X242600828Y-49844479D01*
X242805353Y-49624111D01*
X243031677Y-49461626D01*
X243144685Y-49407415D01*
X243267312Y-49365641D01*
X243422220Y-49334766D01*
X243632249Y-49313162D01*
X243920242Y-49299196D01*
X244309040Y-49291239D01*
X244821485Y-49287661D01*
X245480417Y-49286831D01*
X245501881Y-49286831D01*
X246155844Y-49287696D01*
G37*
G36*
X226934178Y-49310894D02*
G01*
X226957579Y-49412753D01*
X226974351Y-49636230D01*
X226980750Y-49932656D01*
X226980750Y-50507690D01*
X227594584Y-51008807D01*
X227718453Y-51109191D01*
X228014865Y-51343937D01*
X228270215Y-51539090D01*
X228439848Y-51660236D01*
X228671280Y-51810547D01*
X229477015Y-51194872D01*
X230282750Y-50579197D01*
X230282750Y-49961330D01*
X230288910Y-49645533D01*
X230325528Y-49417314D01*
X230417049Y-49313026D01*
X230587837Y-49308152D01*
X230862257Y-49378174D01*
X230953084Y-49407342D01*
X231343267Y-49607443D01*
X231608339Y-49901671D01*
X231758303Y-50305508D01*
X231803163Y-50834437D01*
X231799575Y-51325627D01*
X231080907Y-51870007D01*
X230848849Y-52050270D01*
X230602805Y-52253808D01*
X230439515Y-52404520D01*
X230385995Y-52478744D01*
X230424213Y-52524649D01*
X230569883Y-52657960D01*
X230788963Y-52842939D01*
X231044411Y-53049768D01*
X231299191Y-53248630D01*
X231516261Y-53409710D01*
X231658584Y-53503189D01*
X231678879Y-53515367D01*
X231756520Y-53612755D01*
X231795795Y-53797644D01*
X231806619Y-54110723D01*
X231805050Y-54204394D01*
X231724414Y-54732648D01*
X231524303Y-55146521D01*
X231208391Y-55440648D01*
X230780353Y-55609660D01*
X230593285Y-55643842D01*
X230425023Y-55635471D01*
X230331582Y-55539872D01*
X230291358Y-55329587D01*
X230282750Y-54977158D01*
X230282750Y-54356900D01*
X229475896Y-53740369D01*
X228669041Y-53123838D01*
X228396396Y-53323698D01*
X228362715Y-53348607D01*
X228143818Y-53515099D01*
X227857257Y-53737773D01*
X227555946Y-53975586D01*
X226988142Y-54427615D01*
X226963280Y-55042841D01*
X226938417Y-55658068D01*
X226684417Y-55627996D01*
X226385135Y-55559182D01*
X225997074Y-55338555D01*
X225705410Y-54992244D01*
X225521630Y-54535638D01*
X225457223Y-53984127D01*
X225457311Y-53959420D01*
X225469942Y-53815424D01*
X225521084Y-53690963D01*
X225635236Y-53556022D01*
X225836897Y-53380583D01*
X226150565Y-53134628D01*
X226358277Y-52974898D01*
X226629266Y-52767709D01*
X226831908Y-52614248D01*
X226933320Y-52539516D01*
X226966489Y-52483427D01*
X226882992Y-52369616D01*
X226829906Y-52328255D01*
X226647322Y-52187240D01*
X226387993Y-51987757D01*
X226089633Y-51758839D01*
X225435541Y-51257604D01*
X225480407Y-50761157D01*
X225547335Y-50366825D01*
X225742971Y-49905319D01*
X226055970Y-49566158D01*
X226126778Y-49519509D01*
X226351337Y-49412436D01*
X226599673Y-49330664D01*
X226813411Y-49291161D01*
X226934178Y-49310894D01*
G37*
G36*
X193154510Y-49287696D02*
G01*
X193662683Y-49291324D01*
X194047940Y-49299361D01*
X194333154Y-49313454D01*
X194541199Y-49335249D01*
X194694949Y-49366392D01*
X194817278Y-49408531D01*
X194931058Y-49463310D01*
X195183793Y-49643203D01*
X195464838Y-50015484D01*
X195508475Y-50099838D01*
X195558695Y-50212963D01*
X195596162Y-50337999D01*
X195622383Y-50497515D01*
X195638864Y-50714076D01*
X195647113Y-51010253D01*
X195648636Y-51408611D01*
X195644939Y-51931719D01*
X195637530Y-52602145D01*
X195632493Y-53023032D01*
X195624239Y-53602113D01*
X195614517Y-54045597D01*
X195601412Y-54374929D01*
X195583009Y-54611554D01*
X195557394Y-54776916D01*
X195522654Y-54892462D01*
X195476873Y-54979635D01*
X195418137Y-55059880D01*
X195311684Y-55186949D01*
X194984585Y-55466776D01*
X194605035Y-55623872D01*
X194527347Y-55635351D01*
X194279943Y-55651658D01*
X193907179Y-55664319D01*
X193436358Y-55672734D01*
X192894781Y-55676300D01*
X192309750Y-55674417D01*
X192214549Y-55673644D01*
X191595075Y-55667784D01*
X191118650Y-55660269D01*
X190762096Y-55649014D01*
X190502239Y-55631937D01*
X190315902Y-55606953D01*
X190179911Y-55571980D01*
X190071088Y-55524932D01*
X189966258Y-55463728D01*
X189898563Y-55416859D01*
X189692485Y-55219744D01*
X189517309Y-54980747D01*
X189395125Y-54740492D01*
X189348018Y-54539606D01*
X189398079Y-54418714D01*
X189399153Y-54418083D01*
X189517000Y-54398364D01*
X189780246Y-54380532D01*
X190165675Y-54365317D01*
X190650073Y-54353445D01*
X191210225Y-54345645D01*
X191822917Y-54342647D01*
X194130084Y-54341346D01*
X194130084Y-53746697D01*
X194130084Y-53152048D01*
X192613009Y-53152048D01*
X192177926Y-53149930D01*
X191725024Y-53142807D01*
X191351390Y-53131567D01*
X191087045Y-53117147D01*
X190962009Y-53100484D01*
X190953597Y-53096540D01*
X190876407Y-52973129D01*
X190830654Y-52742495D01*
X190816338Y-52459474D01*
X190833458Y-52178897D01*
X190882015Y-51955599D01*
X190962009Y-51844414D01*
X191062252Y-51829813D01*
X191310169Y-51815049D01*
X191671281Y-51803342D01*
X192115568Y-51795630D01*
X192613009Y-51792851D01*
X194130084Y-51792851D01*
X194130084Y-51198202D01*
X194130084Y-50603553D01*
X191822917Y-50602252D01*
X191802426Y-50602238D01*
X191191445Y-50599203D01*
X190634081Y-50591617D01*
X190153476Y-50580172D01*
X189772774Y-50565564D01*
X189515115Y-50548487D01*
X189403645Y-50529637D01*
X189352559Y-50482098D01*
X189344252Y-50372462D01*
X189420313Y-50169901D01*
X189427236Y-50154467D01*
X189593626Y-49842810D01*
X189787004Y-49629365D01*
X190066084Y-49448548D01*
X190144975Y-49409309D01*
X190261890Y-49367800D01*
X190413616Y-49336799D01*
X190622572Y-49314803D01*
X190911178Y-49300312D01*
X191301852Y-49291821D01*
X191817014Y-49287828D01*
X192479084Y-49286831D01*
X192500547Y-49286831D01*
X193154510Y-49287696D01*
G37*
%TO.C,R1*%
X165371250Y-76437258D02*
X165371250Y-75962742D01*
X166416250Y-76437258D02*
X166416250Y-75962742D01*
%TO.C,C1*%
X147796830Y-75916250D02*
X147515670Y-75916250D01*
X147796830Y-74896250D02*
X147515670Y-74896250D01*
%TO.C,C7*%
X154497500Y-87171920D02*
X154497500Y-87453080D01*
X153477500Y-87171920D02*
X153477500Y-87453080D01*
%TO.C,D15*%
X148637500Y-46802500D02*
X148637500Y-50662500D01*
X146637500Y-46802500D02*
X148637500Y-46802500D01*
X146637500Y-46802500D02*
X146637500Y-50662500D01*
%TO.C,D13*%
X153400000Y-46802500D02*
X153400000Y-50662500D01*
X151400000Y-46802500D02*
X153400000Y-46802500D01*
X151400000Y-46802500D02*
X151400000Y-50662500D01*
%TO.C,D14*%
X151018750Y-46802500D02*
X151018750Y-50662500D01*
X149018750Y-46802500D02*
X151018750Y-46802500D01*
X149018750Y-46802500D02*
X149018750Y-50662500D01*
%TO.C,D43*%
X164912500Y-58102500D02*
X164912500Y-61962500D01*
X162912500Y-58102500D02*
X164912500Y-58102500D01*
X162912500Y-58102500D02*
X162912500Y-61962500D01*
%TO.C,D30*%
X156575000Y-52358750D02*
X156575000Y-56218750D01*
X154575000Y-52358750D02*
X156575000Y-52358750D01*
X154575000Y-52358750D02*
X154575000Y-56218750D01*
%TO.C,F1*%
X144578750Y-25194811D02*
X144578750Y-26398939D01*
X142758750Y-25194811D02*
X142758750Y-26398939D01*
%TO.C,D5*%
X143762500Y-45666250D02*
X143762500Y-41806250D01*
X145762500Y-45666250D02*
X143762500Y-45666250D01*
X145762500Y-45666250D02*
X145762500Y-41806250D01*
%TO.C,D24*%
X164512500Y-46802500D02*
X164512500Y-50662500D01*
X162512500Y-46802500D02*
X164512500Y-46802500D01*
X162512500Y-46802500D02*
X162512500Y-50662500D01*
%TO.C,G\u002A\u002A\u002A*%
G36*
X22344999Y-53572608D02*
G01*
X22354965Y-53588302D01*
X22348563Y-53602062D01*
X22320967Y-53608959D01*
X22305119Y-53606955D01*
X22292451Y-53595932D01*
X22299903Y-53581739D01*
X22326385Y-53571852D01*
X22344999Y-53572608D01*
G37*
G36*
X22009760Y-53654563D02*
G01*
X22012029Y-53655448D01*
X22024477Y-53664060D01*
X22012420Y-53675268D01*
X21993421Y-53684306D01*
X21969984Y-53686549D01*
X21960147Y-53675539D01*
X21962787Y-53665338D01*
X21981630Y-53652389D01*
X22009760Y-53654563D01*
G37*
G36*
X22185164Y-53668977D02*
G01*
X22192084Y-53676418D01*
X22181992Y-53689366D01*
X22176185Y-53692738D01*
X22145868Y-53700291D01*
X22125240Y-53688870D01*
X22125463Y-53680362D01*
X22140772Y-53669831D01*
X22164268Y-53664843D01*
X22185164Y-53668977D01*
G37*
G36*
X22191669Y-53607696D02*
G01*
X22189895Y-53623029D01*
X22179749Y-53630212D01*
X22153489Y-53634861D01*
X22138368Y-53634310D01*
X22132766Y-53629744D01*
X22149624Y-53615542D01*
X22154219Y-53612334D01*
X22177083Y-53603630D01*
X22191669Y-53607696D01*
G37*
G36*
X22724566Y-53488598D02*
G01*
X22743105Y-53505884D01*
X22742279Y-53534239D01*
X22729289Y-53552187D01*
X22706116Y-53552131D01*
X22670973Y-53530569D01*
X22638224Y-53505408D01*
X22676542Y-53490839D01*
X22692634Y-53486323D01*
X22724566Y-53488598D01*
G37*
G36*
X23008301Y-53415628D02*
G01*
X23010309Y-53419067D01*
X23006957Y-53436995D01*
X23006782Y-53437274D01*
X22989722Y-53449136D01*
X22969879Y-53449240D01*
X22960354Y-53437458D01*
X22969801Y-53422832D01*
X22990707Y-53413050D01*
X23008301Y-53415628D01*
G37*
G36*
X22841908Y-53469364D02*
G01*
X22835897Y-53483316D01*
X22809007Y-53490513D01*
X22787368Y-53487246D01*
X22776105Y-53477353D01*
X22776449Y-53474239D01*
X22788189Y-53464192D01*
X22796018Y-53463305D01*
X22821091Y-53456204D01*
X22834059Y-53454500D01*
X22841908Y-53469364D01*
G37*
G36*
X22510803Y-53548587D02*
G01*
X22519979Y-53562717D01*
X22521686Y-53588197D01*
X22512241Y-53600054D01*
X22486571Y-53608959D01*
X22478211Y-53608272D01*
X22455373Y-53594809D01*
X22450760Y-53571412D01*
X22467384Y-53547704D01*
X22472433Y-53544131D01*
X22492506Y-53536549D01*
X22510803Y-53548587D01*
G37*
G36*
X22603988Y-53536043D02*
G01*
X22608063Y-53538220D01*
X22633926Y-53556018D01*
X22644499Y-53570689D01*
X22634412Y-53578991D01*
X22608307Y-53580222D01*
X22580004Y-53570581D01*
X22567796Y-53545576D01*
X22567130Y-53540788D01*
X22566834Y-53524076D01*
X22576984Y-53523057D01*
X22603988Y-53536043D01*
G37*
G36*
X21858511Y-53690311D02*
G01*
X21867217Y-53707652D01*
X21863379Y-53733840D01*
X21847341Y-53759366D01*
X21823481Y-53774569D01*
X21791119Y-53778883D01*
X21762017Y-53770181D01*
X21743679Y-53751022D01*
X21743611Y-53723969D01*
X21745922Y-53719920D01*
X21768932Y-53704246D01*
X21806700Y-53692529D01*
X21849926Y-53687922D01*
X21858511Y-53690311D01*
G37*
G36*
X28450836Y-52618886D02*
G01*
X28461729Y-52657054D01*
X28473103Y-52721478D01*
X28482165Y-52789282D01*
X28487924Y-52861414D01*
X28486011Y-52913554D01*
X28476245Y-52948738D01*
X28458449Y-52970004D01*
X28442964Y-52980444D01*
X28426633Y-52988458D01*
X28415303Y-52986819D01*
X28408469Y-52972761D01*
X28405627Y-52943518D01*
X28406274Y-52896325D01*
X28409907Y-52828416D01*
X28416021Y-52737026D01*
X28416701Y-52727529D01*
X28423357Y-52661298D01*
X28431419Y-52621071D01*
X28440656Y-52606913D01*
X28450836Y-52618886D01*
G37*
G36*
X27567901Y-52309371D02*
G01*
X27617493Y-52331074D01*
X27650551Y-52372697D01*
X27667866Y-52434718D01*
X27670925Y-52484295D01*
X27660367Y-52538390D01*
X27630926Y-52587863D01*
X27614681Y-52605350D01*
X27593724Y-52615888D01*
X27565878Y-52614929D01*
X27525729Y-52602114D01*
X27467867Y-52577085D01*
X27441669Y-52563558D01*
X27395632Y-52532950D01*
X27355554Y-52498590D01*
X27327247Y-52465751D01*
X27316520Y-52439708D01*
X27316729Y-52437099D01*
X27329720Y-52412096D01*
X27357958Y-52381189D01*
X27394534Y-52350302D01*
X27432539Y-52325362D01*
X27465065Y-52312295D01*
X27500982Y-52307109D01*
X27567901Y-52309371D01*
G37*
G36*
X28468582Y-51901368D02*
G01*
X28469526Y-51904325D01*
X28474915Y-51933164D01*
X28481600Y-51983908D01*
X28489308Y-52053123D01*
X28497765Y-52137371D01*
X28506698Y-52233217D01*
X28515832Y-52337224D01*
X28524895Y-52445958D01*
X28533612Y-52555981D01*
X28541709Y-52663857D01*
X28548914Y-52766152D01*
X28554951Y-52859427D01*
X28559548Y-52940248D01*
X28562431Y-53005178D01*
X28563326Y-53050782D01*
X28561959Y-53073622D01*
X28544883Y-53106497D01*
X28503872Y-53139674D01*
X28438343Y-53169245D01*
X28399754Y-53179389D01*
X28361482Y-53179436D01*
X28318745Y-53167667D01*
X28266144Y-53142584D01*
X28198281Y-53102691D01*
X28196225Y-53101422D01*
X28148018Y-53072482D01*
X28082811Y-53034418D01*
X28006380Y-52990546D01*
X27924499Y-52944182D01*
X27842945Y-52898643D01*
X27825626Y-52889040D01*
X27750626Y-52847229D01*
X27681644Y-52808433D01*
X27622940Y-52775071D01*
X27578775Y-52749560D01*
X27553411Y-52734320D01*
X27493028Y-52695605D01*
X27436892Y-52659203D01*
X27397197Y-52632755D01*
X27370715Y-52614046D01*
X27354222Y-52600865D01*
X27344490Y-52590997D01*
X27335104Y-52573641D01*
X27342959Y-52563511D01*
X27367561Y-52565325D01*
X27404927Y-52579820D01*
X27407607Y-52581164D01*
X27443098Y-52599923D01*
X27496090Y-52628966D01*
X27561872Y-52665621D01*
X27635734Y-52707213D01*
X27712966Y-52751069D01*
X27788858Y-52794515D01*
X27858700Y-52834879D01*
X27917780Y-52869486D01*
X27961390Y-52895663D01*
X27965131Y-52897956D01*
X28038606Y-52941217D01*
X28112136Y-52981518D01*
X28181241Y-53016673D01*
X28241437Y-53044492D01*
X28288245Y-53062788D01*
X28317182Y-53069373D01*
X28334708Y-53067444D01*
X28375524Y-53057244D01*
X28420469Y-53041209D01*
X28453064Y-53026061D01*
X28483215Y-53004233D01*
X28496773Y-52979043D01*
X28497728Y-52972057D01*
X28498462Y-52938750D01*
X28497309Y-52884690D01*
X28494507Y-52813704D01*
X28490297Y-52729621D01*
X28484918Y-52636268D01*
X28478609Y-52537473D01*
X28471610Y-52437065D01*
X28464161Y-52338871D01*
X28456501Y-52246718D01*
X28448870Y-52164435D01*
X28441506Y-52095850D01*
X28441071Y-52092148D01*
X28434318Y-52027715D01*
X28429891Y-51971661D01*
X28428166Y-51929892D01*
X28429521Y-51908311D01*
X28437535Y-51892940D01*
X28454245Y-51885850D01*
X28468582Y-51901368D01*
G37*
G36*
X27213828Y-54091552D02*
G01*
X27182220Y-54132531D01*
X27119110Y-54175541D01*
X27117324Y-54176478D01*
X27088793Y-54188030D01*
X27053119Y-54195187D01*
X27003932Y-54198780D01*
X26934862Y-54199644D01*
X26867041Y-54198765D01*
X26807404Y-54195847D01*
X26750647Y-54189945D01*
X26689693Y-54180107D01*
X26617464Y-54165382D01*
X26526882Y-54144820D01*
X26485535Y-54134961D01*
X26397235Y-54111648D01*
X26318417Y-54086544D01*
X26241089Y-54056675D01*
X26157258Y-54019069D01*
X26058934Y-53970753D01*
X25983855Y-53931845D01*
X25870345Y-53867741D01*
X25775318Y-53805916D01*
X25694380Y-53743411D01*
X25623139Y-53677268D01*
X25572090Y-53618705D01*
X25530764Y-53555002D01*
X25506334Y-53495646D01*
X25500649Y-53451626D01*
X25845326Y-53451626D01*
X25854567Y-53480297D01*
X25881636Y-53516209D01*
X25923486Y-53556155D01*
X25977072Y-53596932D01*
X26039347Y-53635332D01*
X26061569Y-53648835D01*
X26085874Y-53668297D01*
X26092582Y-53681394D01*
X26086533Y-53685555D01*
X26060163Y-53690097D01*
X26021594Y-53689836D01*
X25992275Y-53688019D01*
X25969149Y-53689381D01*
X25962181Y-53697839D01*
X25965481Y-53716157D01*
X25970640Y-53738118D01*
X25973949Y-53760306D01*
X25979439Y-53764259D01*
X26007949Y-53768596D01*
X26058562Y-53770679D01*
X26128766Y-53770343D01*
X26152172Y-53770000D01*
X26258392Y-53772928D01*
X26348355Y-53784690D01*
X26429640Y-53806677D01*
X26509827Y-53840279D01*
X26509904Y-53840316D01*
X26556060Y-53867034D01*
X26594455Y-53897068D01*
X26622303Y-53926771D01*
X26636817Y-53952500D01*
X26635211Y-53970610D01*
X26614699Y-53977456D01*
X26600154Y-53971497D01*
X26570887Y-53952435D01*
X26535079Y-53924814D01*
X26503569Y-53901102D01*
X26468832Y-53880214D01*
X26445279Y-53872171D01*
X26440286Y-53872733D01*
X26438376Y-53880847D01*
X26455390Y-53900033D01*
X26492774Y-53932117D01*
X26496363Y-53935055D01*
X26531767Y-53965782D01*
X26556844Y-53990645D01*
X26566364Y-54004500D01*
X26563996Y-54012512D01*
X26548410Y-54016008D01*
X26516713Y-54006275D01*
X26467101Y-53982671D01*
X26397770Y-53944555D01*
X26353712Y-53919870D01*
X26307638Y-53895239D01*
X26273826Y-53878542D01*
X26257501Y-53872464D01*
X26253840Y-53874204D01*
X26262608Y-53886246D01*
X26290345Y-53908040D01*
X26334366Y-53937580D01*
X26391986Y-53972863D01*
X26396759Y-53975697D01*
X26435976Y-54000527D01*
X26463717Y-54020788D01*
X26474240Y-54032330D01*
X26472564Y-54038062D01*
X26454595Y-54044179D01*
X26420967Y-54039377D01*
X26376715Y-54025430D01*
X26326879Y-54004114D01*
X26276495Y-53977204D01*
X26230600Y-53946474D01*
X26190388Y-53919296D01*
X26153511Y-53901930D01*
X26128264Y-53898834D01*
X26118903Y-53911346D01*
X26120362Y-53915183D01*
X26137675Y-53930925D01*
X26168255Y-53949197D01*
X26198282Y-53964577D01*
X26246792Y-53989744D01*
X26296571Y-54015835D01*
X26362378Y-54044397D01*
X26474240Y-54071120D01*
X26530859Y-54081248D01*
X26587574Y-54095331D01*
X26630550Y-54110074D01*
X26643333Y-54115593D01*
X26684240Y-54130942D01*
X26702579Y-54132782D01*
X26698374Y-54121104D01*
X26671649Y-54095902D01*
X26650717Y-54076461D01*
X26641701Y-54060808D01*
X26654687Y-54057790D01*
X26689016Y-54067462D01*
X26744031Y-54089879D01*
X26780738Y-54104612D01*
X26812576Y-54114144D01*
X26827922Y-54114398D01*
X26829853Y-54111300D01*
X26822996Y-54100451D01*
X26813963Y-54096699D01*
X26779449Y-54078805D01*
X26743641Y-54056468D01*
X26714800Y-54035129D01*
X26701187Y-54020228D01*
X26699659Y-54011198D01*
X26706681Y-54005292D01*
X26727685Y-54009401D01*
X26765763Y-54024291D01*
X26824008Y-54050733D01*
X26841469Y-54058772D01*
X26884961Y-54077486D01*
X26916580Y-54089166D01*
X26930437Y-54091552D01*
X26923508Y-54082554D01*
X26899014Y-54064468D01*
X26862282Y-54041307D01*
X26811226Y-54009686D01*
X26756837Y-53971479D01*
X26722862Y-53940974D01*
X26711131Y-53919645D01*
X26707889Y-53909072D01*
X26687546Y-53882431D01*
X26653654Y-53850859D01*
X26612204Y-53819656D01*
X26569190Y-53794122D01*
X26550517Y-53783864D01*
X26526332Y-53766246D01*
X26519992Y-53754227D01*
X26532316Y-53745056D01*
X26565579Y-53730951D01*
X26611834Y-53716191D01*
X26663856Y-53703025D01*
X26714421Y-53693702D01*
X26735305Y-53690287D01*
X26765116Y-53683076D01*
X26776745Y-53676558D01*
X26771981Y-53669389D01*
X26748671Y-53652836D01*
X26712304Y-53632964D01*
X26670029Y-53613269D01*
X26628996Y-53597244D01*
X26596356Y-53588384D01*
X26588106Y-53587279D01*
X26552844Y-53587842D01*
X26511747Y-53598462D01*
X26456562Y-53621069D01*
X26444456Y-53626480D01*
X26396463Y-53646311D01*
X26354985Y-53658526D01*
X26315929Y-53662182D01*
X26275198Y-53656337D01*
X26228697Y-53640047D01*
X26172330Y-53612370D01*
X26102002Y-53572362D01*
X26013618Y-53519081D01*
X25998814Y-53510136D01*
X25944106Y-53478570D01*
X25898330Y-53454441D01*
X25865912Y-53439975D01*
X25851281Y-53437400D01*
X25845326Y-53451626D01*
X25500649Y-53451626D01*
X25499633Y-53443763D01*
X25511490Y-53402478D01*
X25542738Y-53374917D01*
X25543549Y-53374535D01*
X25586344Y-53361305D01*
X25649556Y-53350298D01*
X25727505Y-53341788D01*
X25814512Y-53336047D01*
X25904897Y-53333348D01*
X25992979Y-53333964D01*
X26073079Y-53338169D01*
X26139517Y-53346235D01*
X26162385Y-53350704D01*
X26232981Y-53368022D01*
X26318245Y-53392548D01*
X26412445Y-53422303D01*
X26509847Y-53455306D01*
X26604717Y-53489576D01*
X26691321Y-53523133D01*
X26763927Y-53553996D01*
X26816800Y-53580184D01*
X26873196Y-53614425D01*
X26963881Y-53678747D01*
X27049218Y-53749837D01*
X27122829Y-53822218D01*
X27178333Y-53890418D01*
X27181656Y-53895295D01*
X27219458Y-53965780D01*
X27232249Y-54028349D01*
X27219885Y-54083700D01*
X27213828Y-54091552D01*
G37*
G36*
X28233050Y-51392461D02*
G01*
X28275353Y-51409588D01*
X28353627Y-51444096D01*
X28363934Y-51448863D01*
X28448333Y-51487898D01*
X28512983Y-51520514D01*
X28580570Y-51564487D01*
X28628556Y-51613053D01*
X28660580Y-51671465D01*
X28680281Y-51744981D01*
X28691297Y-51838855D01*
X28692353Y-51852526D01*
X28698365Y-51919352D01*
X28705394Y-51984736D01*
X28712128Y-52036264D01*
X28713638Y-52047670D01*
X28718106Y-52090706D01*
X28723765Y-52154348D01*
X28730301Y-52234667D01*
X28737400Y-52327730D01*
X28744749Y-52429608D01*
X28752034Y-52536368D01*
X28755689Y-52593467D01*
X28764731Y-52758184D01*
X28770915Y-52911678D01*
X28773794Y-53032697D01*
X28774249Y-53051812D01*
X28774741Y-53176451D01*
X28772399Y-53283460D01*
X28767231Y-53370704D01*
X28759246Y-53436046D01*
X28748452Y-53477353D01*
X28734549Y-53504734D01*
X28688112Y-53568825D01*
X28622153Y-53637165D01*
X28540261Y-53706580D01*
X28446022Y-53773897D01*
X28343025Y-53835942D01*
X28314092Y-53851521D01*
X28258990Y-53880239D01*
X28192972Y-53913865D01*
X28119859Y-53950529D01*
X28043473Y-53988365D01*
X28029586Y-53995166D01*
X27967635Y-54025505D01*
X27896166Y-54060080D01*
X27832888Y-54090224D01*
X27781622Y-54114067D01*
X27746188Y-54129743D01*
X27730410Y-54135384D01*
X27721384Y-54138462D01*
X27694051Y-54149854D01*
X27655796Y-54166763D01*
X27653976Y-54167584D01*
X27605493Y-54189186D01*
X27545878Y-54215384D01*
X27487608Y-54240694D01*
X27481453Y-54243348D01*
X27426369Y-54267183D01*
X27374472Y-54289757D01*
X27336261Y-54306506D01*
X27329283Y-54309562D01*
X27291937Y-54325608D01*
X27238194Y-54348421D01*
X27174162Y-54375414D01*
X27105950Y-54404003D01*
X27086944Y-54411948D01*
X27018304Y-54440693D01*
X26954867Y-54467334D01*
X26902998Y-54489195D01*
X26869059Y-54503601D01*
X26866454Y-54504715D01*
X26822988Y-54523096D01*
X26775579Y-54542927D01*
X26767429Y-54546336D01*
X26711131Y-54569684D01*
X26706874Y-54571441D01*
X26650221Y-54594932D01*
X26595214Y-54617906D01*
X26553204Y-54635625D01*
X26514934Y-54651500D01*
X26461954Y-54672846D01*
X26400228Y-54697306D01*
X26334500Y-54723041D01*
X26269512Y-54748216D01*
X26210006Y-54770993D01*
X26160724Y-54789537D01*
X26126409Y-54802010D01*
X26111803Y-54806575D01*
X26110775Y-54806665D01*
X26091869Y-54812909D01*
X26061669Y-54825970D01*
X26049743Y-54831254D01*
X26003833Y-54849543D01*
X25938042Y-54873986D01*
X25856092Y-54903280D01*
X25761704Y-54936124D01*
X25658601Y-54971218D01*
X25550502Y-55007260D01*
X25441131Y-55042948D01*
X25368873Y-55066199D01*
X25276477Y-55095686D01*
X25192667Y-55122034D01*
X25108981Y-55147873D01*
X25016955Y-55175833D01*
X24908126Y-55208541D01*
X24905978Y-55209184D01*
X24852095Y-55224969D01*
X24786817Y-55243462D01*
X24707324Y-55265437D01*
X24610800Y-55291665D01*
X24494425Y-55322919D01*
X24355380Y-55359971D01*
X24288946Y-55377595D01*
X24208181Y-55398870D01*
X24137715Y-55417149D01*
X24071559Y-55433928D01*
X24003724Y-55450700D01*
X23928220Y-55468959D01*
X23839058Y-55490198D01*
X23730250Y-55515913D01*
X23663843Y-55531791D01*
X23574814Y-55553551D01*
X23487710Y-55575279D01*
X23414395Y-55594041D01*
X23368952Y-55605509D01*
X23282653Y-55623934D01*
X23217268Y-55631663D01*
X23170468Y-55628336D01*
X23139922Y-55613594D01*
X23123303Y-55587080D01*
X23118281Y-55548433D01*
X23124488Y-55518145D01*
X23141567Y-55471237D01*
X23166608Y-55414230D01*
X23196699Y-55353348D01*
X23228928Y-55294811D01*
X23260383Y-55244840D01*
X23277412Y-55219570D01*
X23304856Y-55177874D01*
X23334076Y-55132732D01*
X23340795Y-55122438D01*
X23368315Y-55085694D01*
X23398585Y-55057273D01*
X23437301Y-55033499D01*
X23490160Y-55010700D01*
X23562860Y-54985201D01*
X23590737Y-54975010D01*
X23620137Y-54961334D01*
X23631546Y-54951620D01*
X23627757Y-54940676D01*
X23613979Y-54910225D01*
X23592484Y-54865984D01*
X23565771Y-54813211D01*
X23524401Y-54726116D01*
X23489983Y-54637565D01*
X23468115Y-54560105D01*
X23460457Y-54498691D01*
X23459534Y-54482369D01*
X23458903Y-54481333D01*
X23644418Y-54481333D01*
X23647335Y-54506718D01*
X23655349Y-54539524D01*
X23662207Y-54563392D01*
X23689239Y-54635421D01*
X23723977Y-54707011D01*
X23762023Y-54769728D01*
X23798983Y-54815136D01*
X23814256Y-54829452D01*
X23839363Y-54850442D01*
X23853116Y-54858288D01*
X23859487Y-54856436D01*
X23885020Y-54846429D01*
X23921079Y-54830844D01*
X23932404Y-54825939D01*
X23976766Y-54807883D01*
X24040684Y-54782858D01*
X24120431Y-54752276D01*
X24212280Y-54717549D01*
X24312506Y-54680091D01*
X24417381Y-54641312D01*
X24523178Y-54602627D01*
X24568888Y-54585380D01*
X24615065Y-54566355D01*
X24646479Y-54551458D01*
X24658074Y-54542927D01*
X24655376Y-54535368D01*
X24635489Y-54512499D01*
X24600836Y-54482914D01*
X24556886Y-54450753D01*
X24509110Y-54420156D01*
X24462976Y-54395262D01*
X24445112Y-54386632D01*
X24424543Y-54376963D01*
X24405401Y-54369678D01*
X24384621Y-54364818D01*
X24359134Y-54362419D01*
X24325872Y-54362521D01*
X24281769Y-54365162D01*
X24223757Y-54370382D01*
X24148769Y-54378218D01*
X24053736Y-54388708D01*
X23935592Y-54401893D01*
X23893230Y-54406617D01*
X23805837Y-54416816D01*
X23740605Y-54426054D01*
X23694692Y-54435727D01*
X23665252Y-54447234D01*
X23649442Y-54461970D01*
X23644418Y-54481333D01*
X23458903Y-54481333D01*
X23452123Y-54470202D01*
X23431601Y-54465304D01*
X23391367Y-54464399D01*
X23383340Y-54464519D01*
X23342410Y-54466379D01*
X23281869Y-54470216D01*
X23206733Y-54475671D01*
X23122017Y-54482386D01*
X23032740Y-54490003D01*
X22915265Y-54500187D01*
X22779096Y-54511253D01*
X22654164Y-54520314D01*
X22535775Y-54527557D01*
X22419234Y-54533169D01*
X22299848Y-54537340D01*
X22172923Y-54540257D01*
X22033764Y-54542108D01*
X21877676Y-54543080D01*
X21699966Y-54543363D01*
X21657378Y-54543361D01*
X21521857Y-54543290D01*
X21409675Y-54543052D01*
X21318503Y-54542552D01*
X21246013Y-54541697D01*
X21189877Y-54540394D01*
X21147767Y-54538548D01*
X21117354Y-54536068D01*
X21096309Y-54532858D01*
X21082305Y-54528826D01*
X21073013Y-54523878D01*
X21066104Y-54517922D01*
X21049584Y-54499981D01*
X21011644Y-54440908D01*
X20988193Y-54368940D01*
X20978366Y-54280549D01*
X20981297Y-54172205D01*
X20982370Y-54157249D01*
X20985523Y-54114609D01*
X20990729Y-54084291D01*
X21001876Y-54063083D01*
X21022855Y-54047774D01*
X21057554Y-54035153D01*
X21109862Y-54022010D01*
X21183670Y-54005133D01*
X21243958Y-53991150D01*
X21345871Y-53966968D01*
X21425381Y-53947025D01*
X21484721Y-53930522D01*
X21526121Y-53916663D01*
X21551814Y-53904648D01*
X21564030Y-53893682D01*
X21565002Y-53882965D01*
X21556961Y-53871701D01*
X21552661Y-53868333D01*
X21544689Y-53865890D01*
X21531043Y-53865780D01*
X21508876Y-53868534D01*
X21475338Y-53874687D01*
X21427582Y-53884769D01*
X21362757Y-53899313D01*
X21278016Y-53918852D01*
X21170509Y-53943918D01*
X21120644Y-53955528D01*
X21062736Y-53968283D01*
X21024236Y-53974594D01*
X21001365Y-53974157D01*
X20990347Y-53966670D01*
X20987403Y-53951830D01*
X20988756Y-53929332D01*
X20992841Y-53881208D01*
X21104706Y-53852067D01*
X21113099Y-53849888D01*
X21184446Y-53831751D01*
X21263633Y-53812131D01*
X21335017Y-53794909D01*
X21391274Y-53781521D01*
X21455343Y-53765715D01*
X21499741Y-53753492D01*
X21528044Y-53743510D01*
X21543831Y-53734431D01*
X21550229Y-53725542D01*
X21608895Y-53725542D01*
X21619615Y-53751469D01*
X21619894Y-53751918D01*
X21629568Y-53779808D01*
X21620809Y-53811973D01*
X21615977Y-53823857D01*
X21613987Y-53842832D01*
X21626445Y-53841597D01*
X21650872Y-53819529D01*
X21655782Y-53814446D01*
X21680969Y-53797083D01*
X21701567Y-53794397D01*
X21710095Y-53807862D01*
X21711253Y-53811523D01*
X21730038Y-53817053D01*
X21772608Y-53813749D01*
X21821811Y-53804822D01*
X21872661Y-53792067D01*
X21916966Y-53777811D01*
X21948277Y-53764137D01*
X21960147Y-53753131D01*
X21966216Y-53742599D01*
X21987563Y-53726818D01*
X21987873Y-53726653D01*
X22014379Y-53719539D01*
X22038899Y-53733793D01*
X22056205Y-53745277D01*
X22071012Y-53742183D01*
X22076695Y-53737620D01*
X22103066Y-53728064D01*
X22141412Y-53720519D01*
X22215835Y-53706969D01*
X22276138Y-53686422D01*
X22314720Y-53659389D01*
X22323981Y-53650086D01*
X22343150Y-53640702D01*
X22366123Y-53650244D01*
X22379479Y-53656696D01*
X22402378Y-53659863D01*
X22436666Y-53656066D01*
X22489255Y-53645010D01*
X22543560Y-53632611D01*
X22604764Y-53618885D01*
X22654329Y-53608019D01*
X22675466Y-53602496D01*
X22731114Y-53581500D01*
X22779132Y-53555750D01*
X22795763Y-53544797D01*
X22823385Y-53529594D01*
X22840991Y-53527804D01*
X22856233Y-53537629D01*
X22860503Y-53541154D01*
X22887204Y-53549777D01*
X22921192Y-53538651D01*
X22966175Y-53506734D01*
X22967942Y-53505280D01*
X22993353Y-53486484D01*
X23008157Y-53483987D01*
X23020551Y-53496200D01*
X23025579Y-53502886D01*
X23036253Y-53510723D01*
X23044341Y-53496404D01*
X23044460Y-53496092D01*
X23050725Y-53465982D01*
X23052161Y-53429383D01*
X23049026Y-53397126D01*
X23041577Y-53380044D01*
X23029459Y-53379258D01*
X22995415Y-53384675D01*
X22939209Y-53397272D01*
X22859854Y-53417272D01*
X22756364Y-53444901D01*
X22749686Y-53446678D01*
X22701056Y-53458423D01*
X22640204Y-53471784D01*
X22578696Y-53484203D01*
X22567892Y-53486294D01*
X22505638Y-53499079D01*
X22446161Y-53512341D01*
X22401027Y-53523521D01*
X22338668Y-53540329D01*
X22283290Y-53554652D01*
X22244810Y-53563586D01*
X22218651Y-53568179D01*
X22200238Y-53569477D01*
X22190401Y-53570535D01*
X22156272Y-53579801D01*
X22116221Y-53595509D01*
X22101030Y-53601813D01*
X22054396Y-53616021D01*
X22014555Y-53621830D01*
X22001614Y-53622519D01*
X21956359Y-53629563D01*
X21909270Y-53641695D01*
X21894212Y-53646305D01*
X21842777Y-53659786D01*
X21797499Y-53668881D01*
X21754411Y-53682534D01*
X21716682Y-53708900D01*
X21698580Y-53726435D01*
X21678454Y-53733967D01*
X21652252Y-53725639D01*
X21647353Y-53723479D01*
X21618440Y-53715975D01*
X21608895Y-53725542D01*
X21550229Y-53725542D01*
X21550680Y-53724916D01*
X21552167Y-53713625D01*
X21552158Y-53712365D01*
X21548971Y-53697505D01*
X21537214Y-53690239D01*
X21512732Y-53690581D01*
X21471373Y-53698547D01*
X21408984Y-53714152D01*
X21314677Y-53738435D01*
X21225631Y-53760613D01*
X21147356Y-53779350D01*
X21083511Y-53793791D01*
X21037757Y-53803081D01*
X21013755Y-53806368D01*
X21002532Y-53803754D01*
X20993057Y-53790700D01*
X20986287Y-53761863D01*
X20980361Y-53711983D01*
X20978163Y-53681187D01*
X20976614Y-53620545D01*
X20977225Y-53550997D01*
X20979699Y-53478412D01*
X20983741Y-53408662D01*
X20989057Y-53347618D01*
X20989756Y-53342456D01*
X23092097Y-53342456D01*
X23093925Y-53360890D01*
X23100705Y-53372068D01*
X23105485Y-53371222D01*
X23132140Y-53365252D01*
X23178661Y-53354315D01*
X23241316Y-53339300D01*
X23316376Y-53321099D01*
X23400109Y-53300602D01*
X23411571Y-53297785D01*
X23511523Y-53273262D01*
X23616029Y-53247695D01*
X23717561Y-53222920D01*
X23808593Y-53200775D01*
X23881597Y-53183096D01*
X23884231Y-53182461D01*
X23971012Y-53161379D01*
X24066303Y-53138013D01*
X24158734Y-53115161D01*
X24236934Y-53095623D01*
X24275401Y-53085957D01*
X24341987Y-53069395D01*
X24403078Y-53054521D01*
X24464915Y-53039865D01*
X24533737Y-53023958D01*
X24615784Y-53005331D01*
X24717297Y-52982514D01*
X24761277Y-52972615D01*
X24805350Y-52962573D01*
X24850624Y-52952090D01*
X24900580Y-52940336D01*
X24958699Y-52926481D01*
X25028462Y-52909695D01*
X25113351Y-52889147D01*
X25216845Y-52864008D01*
X25342426Y-52833448D01*
X25388042Y-52822386D01*
X25467417Y-52803328D01*
X25541148Y-52785847D01*
X25602595Y-52771513D01*
X25645121Y-52761894D01*
X25664057Y-52757632D01*
X25717283Y-52745070D01*
X25785754Y-52728417D01*
X25862672Y-52709335D01*
X25941235Y-52689487D01*
X25975684Y-52680749D01*
X26059065Y-52659955D01*
X26140538Y-52640074D01*
X26212247Y-52623008D01*
X26266339Y-52610664D01*
X26269605Y-52609948D01*
X26323227Y-52598529D01*
X26357434Y-52592870D01*
X26378195Y-52592956D01*
X26391480Y-52598771D01*
X26403256Y-52610298D01*
X26417466Y-52633601D01*
X26413230Y-52662839D01*
X26413042Y-52663262D01*
X26409903Y-52670019D01*
X26405581Y-52676115D01*
X26398040Y-52682114D01*
X26385243Y-52688576D01*
X26365157Y-52696064D01*
X26335745Y-52705139D01*
X26294971Y-52716363D01*
X26240801Y-52730297D01*
X26171199Y-52747504D01*
X26084130Y-52768545D01*
X25977558Y-52793981D01*
X25849447Y-52824375D01*
X25697763Y-52860288D01*
X25685729Y-52863138D01*
X25618207Y-52879164D01*
X25552740Y-52894780D01*
X25485877Y-52910824D01*
X25414165Y-52928131D01*
X25334153Y-52947540D01*
X25242389Y-52969887D01*
X25135420Y-52996009D01*
X25009796Y-53026743D01*
X24862064Y-53062927D01*
X24822563Y-53072599D01*
X24717860Y-53098181D01*
X24617904Y-53122526D01*
X24526857Y-53144627D01*
X24448882Y-53163472D01*
X24388142Y-53178054D01*
X24348799Y-53187363D01*
X24347472Y-53187671D01*
X24292423Y-53200461D01*
X24221086Y-53217027D01*
X24142535Y-53235262D01*
X24065846Y-53253059D01*
X24054541Y-53255683D01*
X23691729Y-53341522D01*
X23334046Y-53429383D01*
X23328851Y-53430659D01*
X23300313Y-53437818D01*
X23227929Y-53456450D01*
X23176430Y-53470909D01*
X23142226Y-53482546D01*
X23121728Y-53492713D01*
X23111348Y-53502762D01*
X23107496Y-53514046D01*
X23108806Y-53531090D01*
X23127040Y-53542746D01*
X23164343Y-53536962D01*
X23197609Y-53527053D01*
X23276376Y-53505818D01*
X23372439Y-53482113D01*
X23480198Y-53457350D01*
X23566100Y-53438115D01*
X23652647Y-53418435D01*
X25349327Y-53418435D01*
X25351850Y-53487921D01*
X25377256Y-53560988D01*
X25386657Y-53578441D01*
X25439175Y-53654828D01*
X25511130Y-53736461D01*
X25598427Y-53819885D01*
X25696972Y-53901646D01*
X25802671Y-53978290D01*
X25911428Y-54046365D01*
X26019150Y-54102416D01*
X26035223Y-54109783D01*
X26079820Y-54129581D01*
X26113104Y-54143406D01*
X26128829Y-54148625D01*
X26129116Y-54148635D01*
X26147207Y-54154607D01*
X26176127Y-54168256D01*
X26178282Y-54169363D01*
X26228224Y-54190082D01*
X26297444Y-54212507D01*
X26379497Y-54234991D01*
X26467938Y-54255887D01*
X26556321Y-54273548D01*
X26638201Y-54286327D01*
X26692691Y-54292603D01*
X26769022Y-54299525D01*
X26839818Y-54304054D01*
X26894833Y-54305425D01*
X26968981Y-54301894D01*
X27081314Y-54284833D01*
X27179813Y-54254843D01*
X27261668Y-54213155D01*
X27324068Y-54161001D01*
X27364203Y-54099615D01*
X27375380Y-54062165D01*
X27381450Y-53995166D01*
X27375190Y-53925586D01*
X27356977Y-53865591D01*
X27353702Y-53858908D01*
X27319602Y-53803682D01*
X27272188Y-53742367D01*
X27218399Y-53683310D01*
X27165173Y-53634855D01*
X27112874Y-53595795D01*
X26992369Y-53519637D01*
X26854038Y-53446900D01*
X26703527Y-53379808D01*
X26546481Y-53320583D01*
X26388545Y-53271451D01*
X26235364Y-53234633D01*
X26092582Y-53212355D01*
X26011383Y-53205681D01*
X25877342Y-53202536D01*
X25749063Y-53208912D01*
X25631415Y-53224298D01*
X25529267Y-53248184D01*
X25447487Y-53280058D01*
X25409035Y-53305789D01*
X25368714Y-53356426D01*
X25349327Y-53418435D01*
X23652647Y-53418435D01*
X23664543Y-53415730D01*
X23759281Y-53393858D01*
X23845916Y-53373531D01*
X23920047Y-53355783D01*
X23977276Y-53341648D01*
X24013204Y-53332158D01*
X24022908Y-53329540D01*
X24058944Y-53320353D01*
X24115256Y-53306323D01*
X24188373Y-53288305D01*
X24274821Y-53267151D01*
X24371129Y-53243717D01*
X24473825Y-53218856D01*
X24524168Y-53206698D01*
X24685480Y-53167697D01*
X24824589Y-53133977D01*
X24944138Y-53104877D01*
X25046770Y-53079737D01*
X25135127Y-53057898D01*
X25211854Y-53038699D01*
X25279592Y-53021480D01*
X25340984Y-53005581D01*
X25398673Y-52990343D01*
X25455302Y-52975104D01*
X25513514Y-52959206D01*
X25537829Y-52952626D01*
X25604682Y-52935079D01*
X25685311Y-52914436D01*
X25771665Y-52892749D01*
X25855691Y-52872069D01*
X25904117Y-52860230D01*
X25980080Y-52841416D01*
X26048501Y-52824187D01*
X26103361Y-52810064D01*
X26138644Y-52800567D01*
X26140915Y-52799926D01*
X26188388Y-52787471D01*
X26248438Y-52772924D01*
X26308639Y-52759301D01*
X26343028Y-52752019D01*
X26385048Y-52744759D01*
X26415538Y-52743626D01*
X26443298Y-52748650D01*
X26477130Y-52759860D01*
X26511002Y-52769928D01*
X26582600Y-52776743D01*
X26645736Y-52763067D01*
X26696456Y-52730157D01*
X26730803Y-52679269D01*
X26748544Y-52614514D01*
X26748871Y-52548879D01*
X26732617Y-52489837D01*
X26709305Y-52453589D01*
X27225781Y-52453589D01*
X27237756Y-52510573D01*
X27252394Y-52537723D01*
X27261974Y-52548879D01*
X27293792Y-52585933D01*
X27355412Y-52639326D01*
X27434494Y-52695605D01*
X27528280Y-52752473D01*
X27699339Y-52849904D01*
X27864522Y-52946730D01*
X28027193Y-53045106D01*
X28063793Y-53067310D01*
X28126385Y-53104339D01*
X28184723Y-53137828D01*
X28229789Y-53162551D01*
X28280543Y-53186149D01*
X28361112Y-53208190D01*
X28436427Y-53206962D01*
X28510390Y-53182745D01*
X28541663Y-53166485D01*
X28567836Y-53146541D01*
X28583835Y-53121026D01*
X28591471Y-53084794D01*
X28592554Y-53032697D01*
X28588895Y-52959590D01*
X28584310Y-52888375D01*
X28570413Y-52683220D01*
X28556831Y-52498881D01*
X28543638Y-52336142D01*
X28530910Y-52195789D01*
X28518720Y-52078605D01*
X28507143Y-51985376D01*
X28496253Y-51916885D01*
X28486124Y-51873918D01*
X28473342Y-51842712D01*
X28433366Y-51785670D01*
X28380285Y-51743699D01*
X28319574Y-51720479D01*
X28256707Y-51719691D01*
X28246147Y-51722555D01*
X28204689Y-51740511D01*
X28142946Y-51773446D01*
X28076108Y-51812492D01*
X28061613Y-51820960D01*
X27961381Y-51882653D01*
X27842945Y-51958126D01*
X27827293Y-51968105D01*
X27792578Y-51989670D01*
X27777383Y-51999109D01*
X27714039Y-52037695D01*
X27643787Y-52079906D01*
X27573152Y-52121784D01*
X27568116Y-52124748D01*
X27472419Y-52181535D01*
X27397135Y-52227378D01*
X27339767Y-52264007D01*
X27297823Y-52293149D01*
X27268805Y-52316536D01*
X27250219Y-52335894D01*
X27239570Y-52352954D01*
X27228061Y-52393100D01*
X27225781Y-52453589D01*
X26709305Y-52453589D01*
X26701838Y-52441979D01*
X26658591Y-52409896D01*
X26604932Y-52398182D01*
X26582292Y-52399947D01*
X26541095Y-52414060D01*
X26493240Y-52445492D01*
X26484475Y-52451991D01*
X26398916Y-52501401D01*
X26294787Y-52541035D01*
X26178126Y-52568536D01*
X26159921Y-52571973D01*
X26108985Y-52582920D01*
X26040227Y-52598758D01*
X25958617Y-52618309D01*
X25869127Y-52640392D01*
X25776727Y-52663827D01*
X25730679Y-52675610D01*
X25636774Y-52699288D01*
X25546973Y-52721497D01*
X25466614Y-52740939D01*
X25401039Y-52756313D01*
X25355587Y-52766321D01*
X25327845Y-52772206D01*
X25264483Y-52786357D01*
X25187184Y-52804231D01*
X25103252Y-52824131D01*
X25019991Y-52844356D01*
X24976404Y-52855069D01*
X24887372Y-52876841D01*
X24799139Y-52898292D01*
X24719957Y-52917419D01*
X24658074Y-52932219D01*
X24625046Y-52940067D01*
X24549531Y-52958104D01*
X24475333Y-52975932D01*
X24414603Y-52990637D01*
X24398617Y-52994525D01*
X24345388Y-53007425D01*
X24274218Y-53024633D01*
X24190463Y-53044854D01*
X24099480Y-53066795D01*
X24006623Y-53089162D01*
X23984702Y-53094440D01*
X23812614Y-53135904D01*
X23664172Y-53171781D01*
X23537633Y-53202555D01*
X23431250Y-53228708D01*
X23343279Y-53250724D01*
X23271974Y-53269086D01*
X23215591Y-53284278D01*
X23172383Y-53296783D01*
X23140606Y-53307084D01*
X23118514Y-53315666D01*
X23104362Y-53323010D01*
X23096406Y-53329601D01*
X23092899Y-53335922D01*
X23092097Y-53342456D01*
X20989756Y-53342456D01*
X20995351Y-53301151D01*
X21002328Y-53275131D01*
X21004685Y-53271928D01*
X21027421Y-53254430D01*
X21068868Y-53229713D01*
X21124600Y-53199992D01*
X21190191Y-53167480D01*
X21261213Y-53134391D01*
X21333239Y-53102938D01*
X21401843Y-53075337D01*
X21423008Y-53067517D01*
X21475105Y-53049024D01*
X21546469Y-53024239D01*
X21633562Y-52994349D01*
X21732851Y-52960541D01*
X21840798Y-52924002D01*
X21953870Y-52885919D01*
X22068529Y-52847479D01*
X22181242Y-52809869D01*
X22288472Y-52774276D01*
X22386684Y-52741887D01*
X22472342Y-52713888D01*
X22541912Y-52691467D01*
X22591856Y-52675811D01*
X22625599Y-52665544D01*
X22702226Y-52642347D01*
X22778457Y-52619399D01*
X22841908Y-52600434D01*
X22887556Y-52586652D01*
X22969643Y-52560694D01*
X23040692Y-52536691D01*
X23097126Y-52515927D01*
X23135367Y-52499685D01*
X23151836Y-52489249D01*
X23148797Y-52480420D01*
X23130481Y-52456301D01*
X23099292Y-52421809D01*
X23058877Y-52381185D01*
X22958809Y-52284623D01*
X22962871Y-52213221D01*
X22966934Y-52141818D01*
X23052478Y-52100087D01*
X23095155Y-52080790D01*
X23158813Y-52055632D01*
X26395276Y-52055632D01*
X26401984Y-52054371D01*
X26427881Y-52042657D01*
X26638864Y-52042657D01*
X26640714Y-52052282D01*
X26664273Y-52054158D01*
X26707936Y-52047306D01*
X26769314Y-52031921D01*
X26809311Y-52018930D01*
X26842273Y-52003030D01*
X26853025Y-51989670D01*
X26840549Y-51980468D01*
X26803828Y-51977042D01*
X26794128Y-51977430D01*
X26749503Y-51985691D01*
X26702403Y-52001840D01*
X26662349Y-52022092D01*
X26638864Y-52042657D01*
X26427881Y-52042657D01*
X26428381Y-52042431D01*
X26464862Y-52021438D01*
X26504808Y-51995759D01*
X26541599Y-51969761D01*
X26568617Y-51947809D01*
X26579244Y-51934270D01*
X26577258Y-51927450D01*
X26562538Y-51927789D01*
X26532485Y-51944283D01*
X26485903Y-51977647D01*
X26421597Y-52028595D01*
X26418727Y-52030957D01*
X26399546Y-52048379D01*
X26395276Y-52055632D01*
X23158813Y-52055632D01*
X23178628Y-52047801D01*
X23281761Y-52011125D01*
X23400891Y-51971832D01*
X23532357Y-51930993D01*
X23672496Y-51889678D01*
X23817646Y-51848958D01*
X23964146Y-51809903D01*
X24049859Y-51788313D01*
X26901960Y-51788313D01*
X26941442Y-51808456D01*
X27012047Y-51840002D01*
X27127336Y-51878374D01*
X27252442Y-51907282D01*
X27378012Y-51924246D01*
X27456928Y-51930526D01*
X27514893Y-51934246D01*
X27515786Y-51934270D01*
X27557106Y-51935381D01*
X27588791Y-51933907D01*
X27615173Y-51929800D01*
X27641475Y-51923036D01*
X27663573Y-51913250D01*
X27699536Y-51884380D01*
X27726830Y-51847808D01*
X27737660Y-51812492D01*
X27737240Y-51807059D01*
X27721196Y-51775452D01*
X27686159Y-51744209D01*
X27637982Y-51717582D01*
X27582517Y-51699820D01*
X27568202Y-51697187D01*
X27494356Y-51690458D01*
X27404303Y-51690331D01*
X27305116Y-51696086D01*
X27203865Y-51707001D01*
X27107623Y-51722355D01*
X27023460Y-51741425D01*
X26958449Y-51763491D01*
X26901960Y-51788313D01*
X24049859Y-51788313D01*
X24108333Y-51773584D01*
X24246545Y-51741071D01*
X24375121Y-51713435D01*
X24418549Y-51704594D01*
X24493628Y-51689213D01*
X24575054Y-51672447D01*
X24651494Y-51656624D01*
X24800495Y-51625905D01*
X25059959Y-51573711D01*
X25300140Y-51527329D01*
X25324959Y-51522780D01*
X27318396Y-51522780D01*
X27329319Y-51522500D01*
X27357203Y-51506549D01*
X27500970Y-51506549D01*
X27506004Y-51515169D01*
X27528385Y-51518247D01*
X27562640Y-51512129D01*
X27602106Y-51498737D01*
X27640120Y-51479991D01*
X27670021Y-51457813D01*
X27677444Y-51448863D01*
X27673882Y-51439227D01*
X27647951Y-51431406D01*
X27626621Y-51429523D01*
X27584227Y-51437077D01*
X27543744Y-51455198D01*
X27513287Y-51479738D01*
X27500970Y-51506549D01*
X27357203Y-51506549D01*
X27358103Y-51506034D01*
X27369166Y-51498668D01*
X27406178Y-51473988D01*
X27446356Y-51447162D01*
X27464709Y-51433819D01*
X27490602Y-51409899D01*
X27500768Y-51392461D01*
X27494201Y-51379413D01*
X27471690Y-51383586D01*
X27433973Y-51407268D01*
X27381885Y-51450052D01*
X27346341Y-51483695D01*
X27324385Y-51509102D01*
X27318396Y-51522780D01*
X25324959Y-51522780D01*
X25525032Y-51486110D01*
X25738629Y-51449403D01*
X25944922Y-51416560D01*
X26147906Y-51386929D01*
X26351574Y-51359863D01*
X26559919Y-51334710D01*
X26776934Y-51310822D01*
X26814134Y-51306946D01*
X26930232Y-51295673D01*
X27034065Y-51287262D01*
X27133346Y-51281310D01*
X27235790Y-51277416D01*
X27349113Y-51275179D01*
X27481027Y-51274197D01*
X27583082Y-51273914D01*
X27670627Y-51273997D01*
X27739365Y-51274739D01*
X27793183Y-51276406D01*
X27835970Y-51279264D01*
X27871613Y-51283578D01*
X27903999Y-51289614D01*
X27937016Y-51297637D01*
X27974551Y-51307913D01*
X27986264Y-51311198D01*
X28068966Y-51335180D01*
X28140038Y-51357795D01*
X28206495Y-51381710D01*
X28233050Y-51392461D01*
G37*
%TO.C,D25*%
X163718750Y-52358750D02*
X163718750Y-56218750D01*
X161718750Y-52358750D02*
X163718750Y-52358750D01*
X161718750Y-52358750D02*
X161718750Y-56218750D01*
%TO.C,D19*%
X157368750Y-46802500D02*
X157368750Y-50662500D01*
X155368750Y-46802500D02*
X157368750Y-46802500D01*
X155368750Y-46802500D02*
X155368750Y-50662500D01*
%TO.C,D28*%
X151812500Y-52358750D02*
X151812500Y-56218750D01*
X149812500Y-52358750D02*
X151812500Y-52358750D01*
X149812500Y-52358750D02*
X149812500Y-56218750D01*
%TO.C,D_PWR1*%
X153781250Y-28156875D02*
X153781250Y-24146875D01*
X155781250Y-28156875D02*
X153781250Y-28156875D01*
X155781250Y-28156875D02*
X155781250Y-24146875D01*
%TO.C,D33*%
X177212500Y-52358750D02*
X177212500Y-56218750D01*
X175212500Y-52358750D02*
X177212500Y-52358750D01*
X175212500Y-52358750D02*
X175212500Y-56218750D01*
%TO.C,R2*%
X146572500Y-25559617D02*
X146572500Y-26034133D01*
X145527500Y-25559617D02*
X145527500Y-26034133D01*
%TO.C,D38*%
X151418750Y-58102500D02*
X151418750Y-61962500D01*
X149418750Y-58102500D02*
X151418750Y-58102500D01*
X149418750Y-58102500D02*
X149418750Y-61962500D01*
%TO.C,D37*%
X149037500Y-58102500D02*
X149037500Y-61962500D01*
X147037500Y-58102500D02*
X149037500Y-58102500D01*
X147037500Y-58102500D02*
X147037500Y-61962500D01*
%TO.C,D21*%
X162131250Y-46802500D02*
X162131250Y-50662500D01*
X160131250Y-46802500D02*
X162131250Y-46802500D01*
X160131250Y-46802500D02*
X160131250Y-50662500D01*
%TO.C,D35*%
X167687500Y-52358750D02*
X167687500Y-56218750D01*
X165687500Y-52358750D02*
X167687500Y-52358750D01*
X165687500Y-52358750D02*
X165687500Y-56218750D01*
%TO.C,C9*%
X152540580Y-71536250D02*
X152259420Y-71536250D01*
X152540580Y-70516250D02*
X152259420Y-70516250D01*
%TO.C,D36*%
X146656250Y-58102500D02*
X146656250Y-61962500D01*
X144656250Y-58102500D02*
X146656250Y-58102500D01*
X144656250Y-58102500D02*
X144656250Y-61962500D01*
%TO.C,D3*%
X139000000Y-45666250D02*
X139000000Y-41806250D01*
X141000000Y-45666250D02*
X139000000Y-45666250D01*
X141000000Y-45666250D02*
X141000000Y-41806250D01*
%TO.C,D40*%
X157768750Y-58102500D02*
X157768750Y-61962500D01*
X155768750Y-58102500D02*
X157768750Y-58102500D01*
X155768750Y-58102500D02*
X155768750Y-61962500D01*
%TO.C,SW1*%
X168822500Y-74951250D02*
X170902500Y-74951250D01*
X167142500Y-73681250D02*
X167632500Y-74171250D01*
X167142500Y-73681250D02*
X167142500Y-70781250D01*
X172582500Y-73681250D02*
X172092500Y-74171250D01*
X172582500Y-73681250D02*
X172582500Y-70781250D01*
X167142500Y-70781250D02*
X167632500Y-70291250D01*
X172582500Y-70781250D02*
X172092500Y-70291250D01*
X168822500Y-69511250D02*
X170902500Y-69511250D01*
%TO.C,D16*%
X146256250Y-46802500D02*
X146256250Y-50662500D01*
X144256250Y-46802500D02*
X146256250Y-46802500D01*
X144256250Y-46802500D02*
X144256250Y-50662500D01*
%TO.C,D2*%
X136618750Y-45666250D02*
X136618750Y-41806250D01*
X138618750Y-45666250D02*
X136618750Y-45666250D01*
X138618750Y-45666250D02*
X138618750Y-41806250D01*
%TO.C,D41*%
X160150000Y-58102500D02*
X160150000Y-61962500D01*
X158150000Y-58102500D02*
X160150000Y-58102500D01*
X158150000Y-58102500D02*
X158150000Y-61962500D01*
%TO.C,D39*%
X153800000Y-58102500D02*
X153800000Y-61962500D01*
X151800000Y-58102500D02*
X153800000Y-58102500D01*
X151800000Y-58102500D02*
X151800000Y-61962500D01*
%TO.C,D1*%
X134237500Y-45666250D02*
X134237500Y-41806250D01*
X136237500Y-45666250D02*
X134237500Y-45666250D01*
X136237500Y-45666250D02*
X136237500Y-41806250D01*
%TO.C,R3*%
X152922500Y-25559617D02*
X152922500Y-26034133D01*
X151877500Y-25559617D02*
X151877500Y-26034133D01*
%TO.C,D42*%
X162531250Y-58102500D02*
X162531250Y-61962500D01*
X160531250Y-58102500D02*
X162531250Y-58102500D01*
X160531250Y-58102500D02*
X160531250Y-61962500D01*
%TO.C,C5*%
X159384420Y-84421250D02*
X159665580Y-84421250D01*
X159384420Y-85441250D02*
X159665580Y-85441250D01*
%TO.C,D34*%
X170068750Y-52358750D02*
X170068750Y-56218750D01*
X168068750Y-52358750D02*
X170068750Y-52358750D01*
X168068750Y-52358750D02*
X168068750Y-56218750D01*
%TO.C,U1*%
X150277500Y-83778750D02*
X150727500Y-83778750D01*
X157047500Y-83778750D02*
X157047500Y-85068750D01*
X157497500Y-83778750D02*
X157047500Y-83778750D01*
X150277500Y-83328750D02*
X150277500Y-83778750D01*
X157497500Y-83328750D02*
X157497500Y-83778750D01*
X150277500Y-77008750D02*
X150277500Y-76558750D01*
X157497500Y-77008750D02*
X157497500Y-76558750D01*
X150277500Y-76558750D02*
X150727500Y-76558750D01*
X157497500Y-76558750D02*
X157047500Y-76558750D01*
%TO.C,D8*%
X152493750Y-45666250D02*
X152493750Y-41806250D01*
X154493750Y-45666250D02*
X152493750Y-45666250D01*
X154493750Y-45666250D02*
X154493750Y-41806250D01*
%TO.C,D7*%
X150112500Y-45666250D02*
X150112500Y-41806250D01*
X152112500Y-45666250D02*
X150112500Y-45666250D01*
X152112500Y-45666250D02*
X152112500Y-41806250D01*
%TO.C,D20*%
X159750000Y-46802500D02*
X159750000Y-50662500D01*
X157750000Y-46802500D02*
X159750000Y-46802500D01*
X157750000Y-46802500D02*
X157750000Y-50662500D01*
%TO.C,D23*%
X166893750Y-46802500D02*
X166893750Y-50662500D01*
X164893750Y-46802500D02*
X166893750Y-46802500D01*
X164893750Y-46802500D02*
X164893750Y-50662500D01*
%TO.C,C3*%
X159403170Y-86008750D02*
X159684330Y-86008750D01*
X159403170Y-87028750D02*
X159684330Y-87028750D01*
%TO.C,D22*%
X169275000Y-46802500D02*
X169275000Y-50662500D01*
X167275000Y-46802500D02*
X169275000Y-46802500D01*
X167275000Y-46802500D02*
X167275000Y-50662500D01*
%TO.C,C2*%
X152910000Y-87171920D02*
X152910000Y-87453080D01*
X151890000Y-87171920D02*
X151890000Y-87453080D01*
%TO.C,C6*%
X147778080Y-74328750D02*
X147496920Y-74328750D01*
X147778080Y-73308750D02*
X147496920Y-73308750D01*
%TO.C,C4*%
X159403170Y-74896250D02*
X159684330Y-74896250D01*
X159403170Y-75916250D02*
X159684330Y-75916250D01*
%TO.C,U3*%
X150840000Y-68262500D02*
X150840000Y-68912500D01*
X150840000Y-68262500D02*
X150840000Y-67612500D01*
X153960000Y-68262500D02*
X153960000Y-69937500D01*
X153960000Y-68262500D02*
X153960000Y-67612500D01*
%TO.C,D17*%
X143875000Y-46802500D02*
X143875000Y-50662500D01*
X141875000Y-46802500D02*
X143875000Y-46802500D01*
X141875000Y-46802500D02*
X141875000Y-50662500D01*
%TD*%
M02*
