%TF.GenerationSoftware,KiCad,Pcbnew,(7.0.0)*%
%TF.CreationDate,2024-02-05T18:27:13+01:00*%
%TF.ProjectId,the expanse,74686520-6578-4706-916e-73652e6b6963,rev?*%
%TF.SameCoordinates,Original*%
%TF.FileFunction,Soldermask,Top*%
%TF.FilePolarity,Negative*%
%FSLAX46Y46*%
G04 Gerber Fmt 4.6, Leading zero omitted, Abs format (unit mm)*
G04 Created by KiCad (PCBNEW (7.0.0)) date 2024-02-05 18:27:13*
%MOMM*%
%LPD*%
G01*
G04 APERTURE LIST*
%ADD10C,1.750000*%
%ADD11C,3.987800*%
%ADD12C,0.650000*%
%ADD13O,1.000000X1.600000*%
%ADD14O,1.000000X2.100000*%
G04 APERTURE END LIST*
D10*
%TO.C,MX8*%
X191770000Y-25400000D03*
D11*
X196850000Y-25400000D03*
D10*
X201930000Y-25400000D03*
%TD*%
%TO.C,MX26*%
X53657500Y-63500000D03*
D11*
X58737500Y-63500000D03*
D10*
X63817500Y-63500000D03*
%TD*%
%TO.C,MX6*%
X115570000Y-25400000D03*
D11*
X120650000Y-25400000D03*
D10*
X125730000Y-25400000D03*
%TD*%
%TO.C,MX19*%
X177482500Y-44450000D03*
D11*
X182562500Y-44450000D03*
D10*
X187642500Y-44450000D03*
%TD*%
%TO.C,MX31*%
X187007500Y-63500000D03*
D11*
X192087500Y-63500000D03*
D10*
X197167500Y-63500000D03*
%TD*%
%TO.C,MX40*%
X65563750Y-82550000D03*
D11*
X70643750Y-82550000D03*
D10*
X75723750Y-82550000D03*
%TD*%
%TO.C,MX16*%
X82232500Y-44450000D03*
D11*
X87312500Y-44450000D03*
D10*
X92392500Y-44450000D03*
%TD*%
%TO.C,MX34*%
X244157500Y-63500000D03*
D11*
X249237500Y-63500000D03*
D10*
X254317500Y-63500000D03*
%TD*%
%TO.C,MX46*%
X275113750Y-34925000D03*
D11*
X280193750Y-34925000D03*
D10*
X285273750Y-34925000D03*
%TD*%
%TO.C,MX44*%
X253682500Y-82550000D03*
D11*
X258762500Y-82550000D03*
D10*
X263842500Y-82550000D03*
%TD*%
%TO.C,MX23*%
X253682500Y-44450000D03*
D11*
X258762500Y-44450000D03*
D10*
X263842500Y-44450000D03*
%TD*%
%TO.C,MX33*%
X225107500Y-63500000D03*
D11*
X230187500Y-63500000D03*
D10*
X235267500Y-63500000D03*
%TD*%
%TO.C,MX18*%
X120332500Y-44450000D03*
D11*
X125412500Y-44450000D03*
D10*
X130492500Y-44450000D03*
%TD*%
%TO.C,MX11*%
X248920000Y-25400000D03*
D11*
X254000000Y-25400000D03*
D10*
X259080000Y-25400000D03*
%TD*%
%TO.C,MX13*%
X22701250Y-44450000D03*
D11*
X27781250Y-44450000D03*
D10*
X32861250Y-44450000D03*
%TD*%
%TO.C,MX27*%
X72707500Y-63500000D03*
D11*
X77787500Y-63500000D03*
D10*
X82867500Y-63500000D03*
%TD*%
%TO.C,MX3*%
X58420000Y-25400000D03*
D11*
X63500000Y-25400000D03*
D10*
X68580000Y-25400000D03*
%TD*%
D11*
%TO.C,S5*%
X271938750Y-23018750D03*
X271938750Y-46831250D03*
%TD*%
D10*
%TO.C,MX15*%
X63182500Y-44450000D03*
D11*
X68262500Y-44450000D03*
D10*
X73342500Y-44450000D03*
%TD*%
D11*
%TO.C,S4*%
X211137500Y-74295000D03*
X187325000Y-74295000D03*
%TD*%
D10*
%TO.C,MX17*%
X101282500Y-44450000D03*
D11*
X106362500Y-44450000D03*
D10*
X111442500Y-44450000D03*
%TD*%
%TO.C,MX38*%
X22701250Y-82550000D03*
D11*
X27781250Y-82550000D03*
D10*
X32861250Y-82550000D03*
%TD*%
%TO.C,MX14*%
X44132500Y-44450000D03*
D11*
X49212500Y-44450000D03*
D10*
X54292500Y-44450000D03*
%TD*%
%TO.C,MX28*%
X91757500Y-63500000D03*
D11*
X96837500Y-63500000D03*
D10*
X101917500Y-63500000D03*
%TD*%
%TO.C,MX37*%
X227488750Y-82550000D03*
D11*
X232568750Y-82550000D03*
D10*
X237648750Y-82550000D03*
%TD*%
%TO.C,MX1*%
X20320000Y-25400000D03*
D11*
X25400000Y-25400000D03*
D10*
X30480000Y-25400000D03*
%TD*%
D11*
%TO.C,S3*%
X120650000Y-74295000D03*
X96837500Y-74295000D03*
%TD*%
D10*
%TO.C,MX43*%
X232251250Y-82550000D03*
D11*
X237331250Y-82550000D03*
D10*
X242411250Y-82550000D03*
%TD*%
%TO.C,MX4*%
X77470000Y-25400000D03*
D11*
X82550000Y-25400000D03*
D10*
X87630000Y-25400000D03*
%TD*%
D11*
%TO.C,S2*%
X282575000Y-74295000D03*
X182562500Y-74295000D03*
%TD*%
D10*
%TO.C,MX42*%
X194151250Y-82550000D03*
D11*
X199231250Y-82550000D03*
D10*
X204311250Y-82550000D03*
%TD*%
%TO.C,MX41*%
X103663750Y-82550000D03*
D11*
X108743750Y-82550000D03*
D10*
X113823750Y-82550000D03*
%TD*%
D11*
%TO.C,S1*%
X125412500Y-74295000D03*
X25400000Y-74295000D03*
%TD*%
D10*
%TO.C,MX35*%
X270351250Y-63500000D03*
D11*
X275431250Y-63500000D03*
D10*
X280511250Y-63500000D03*
%TD*%
%TO.C,MX36*%
X70008750Y-82550000D03*
D11*
X75088750Y-82550000D03*
D10*
X80168750Y-82550000D03*
%TD*%
%TO.C,MX32*%
X206057500Y-63500000D03*
D11*
X211137500Y-63500000D03*
D10*
X216217500Y-63500000D03*
%TD*%
%TO.C,MX25*%
X27463750Y-63500000D03*
D11*
X32543750Y-63500000D03*
D10*
X37623750Y-63500000D03*
%TD*%
%TO.C,MX22*%
X234632500Y-44450000D03*
D11*
X239712500Y-44450000D03*
D10*
X244792500Y-44450000D03*
%TD*%
%TO.C,MX39*%
X44132500Y-82550000D03*
D11*
X49212500Y-82550000D03*
D10*
X54292500Y-82550000D03*
%TD*%
%TO.C,MX20*%
X196532500Y-44450000D03*
D11*
X201612500Y-44450000D03*
D10*
X206692500Y-44450000D03*
%TD*%
%TO.C,MX12*%
X272732500Y-25400000D03*
D11*
X277812500Y-25400000D03*
D10*
X282892500Y-25400000D03*
%TD*%
%TO.C,MX10*%
X229870000Y-25400000D03*
D11*
X234950000Y-25400000D03*
D10*
X240030000Y-25400000D03*
%TD*%
%TO.C,MX9*%
X210820000Y-25400000D03*
D11*
X215900000Y-25400000D03*
D10*
X220980000Y-25400000D03*
%TD*%
%TO.C,MX7*%
X172720000Y-25400000D03*
D11*
X177800000Y-25400000D03*
D10*
X182880000Y-25400000D03*
%TD*%
%TO.C,MX45*%
X275113750Y-82550000D03*
D11*
X280193750Y-82550000D03*
D10*
X285273750Y-82550000D03*
%TD*%
%TO.C,MX5*%
X96520000Y-25400000D03*
D11*
X101600000Y-25400000D03*
D10*
X106680000Y-25400000D03*
%TD*%
%TO.C,MX21*%
X215582500Y-44450000D03*
D11*
X220662500Y-44450000D03*
D10*
X225742500Y-44450000D03*
%TD*%
%TO.C,MX29*%
X110807500Y-63500000D03*
D11*
X115887500Y-63500000D03*
D10*
X120967500Y-63500000D03*
%TD*%
%TO.C,MX24*%
X275113750Y-44450000D03*
D11*
X280193750Y-44450000D03*
D10*
X285273750Y-44450000D03*
%TD*%
%TO.C,MX2*%
X39370000Y-25400000D03*
D11*
X44450000Y-25400000D03*
D10*
X49530000Y-25400000D03*
%TD*%
%TO.C,MX30*%
X129857500Y-63500000D03*
D11*
X134937500Y-63500000D03*
D10*
X140017500Y-63500000D03*
%TD*%
D12*
%TO.C,J1*%
X146335000Y-20459375D03*
X152115000Y-20459375D03*
D13*
X144904999Y-16809374D03*
D14*
X144904999Y-20989374D03*
D13*
X153544999Y-16809374D03*
D14*
X153544999Y-20989374D03*
%TD*%
M02*
