%TF.GenerationSoftware,KiCad,Pcbnew,(7.0.0)*%
%TF.CreationDate,2024-02-03T20:40:06+01:00*%
%TF.ProjectId,the expanse,74686520-6578-4706-916e-73652e6b6963,rev?*%
%TF.SameCoordinates,Original*%
%TF.FileFunction,Soldermask,Bot*%
%TF.FilePolarity,Negative*%
%FSLAX46Y46*%
G04 Gerber Fmt 4.6, Leading zero omitted, Abs format (unit mm)*
G04 Created by KiCad (PCBNEW (7.0.0)) date 2024-02-03 20:40:06*
%MOMM*%
%LPD*%
G01*
G04 APERTURE LIST*
G04 Aperture macros list*
%AMRoundRect*
0 Rectangle with rounded corners*
0 $1 Rounding radius*
0 $2 $3 $4 $5 $6 $7 $8 $9 X,Y pos of 4 corners*
0 Add a 4 corners polygon primitive as box body*
4,1,4,$2,$3,$4,$5,$6,$7,$8,$9,$2,$3,0*
0 Add four circle primitives for the rounded corners*
1,1,$1+$1,$2,$3*
1,1,$1+$1,$4,$5*
1,1,$1+$1,$6,$7*
1,1,$1+$1,$8,$9*
0 Add four rect primitives between the rounded corners*
20,1,$1+$1,$2,$3,$4,$5,0*
20,1,$1+$1,$4,$5,$6,$7,0*
20,1,$1+$1,$6,$7,$8,$9,0*
20,1,$1+$1,$8,$9,$2,$3,0*%
G04 Aperture macros list end*
%ADD10C,1.750000*%
%ADD11C,3.987800*%
%ADD12C,2.300000*%
%ADD13C,4.000000*%
%ADD14RoundRect,0.250000X0.300000X-0.300000X0.300000X0.300000X-0.300000X0.300000X-0.300000X-0.300000X0*%
%ADD15RoundRect,0.250000X-0.300000X0.300000X-0.300000X-0.300000X0.300000X-0.300000X0.300000X0.300000X0*%
%ADD16RoundRect,0.225000X0.225000X0.250000X-0.225000X0.250000X-0.225000X-0.250000X0.225000X-0.250000X0*%
%ADD17C,0.650000*%
%ADD18R,0.600000X1.450000*%
%ADD19R,0.300000X1.450000*%
%ADD20O,1.000000X1.600000*%
%ADD21O,1.000000X2.100000*%
%ADD22RoundRect,0.150000X0.150000X-0.512500X0.150000X0.512500X-0.150000X0.512500X-0.150000X-0.512500X0*%
%ADD23RoundRect,0.200000X0.275000X-0.200000X0.275000X0.200000X-0.275000X0.200000X-0.275000X-0.200000X0*%
%ADD24RoundRect,0.225000X-0.250000X0.225000X-0.250000X-0.225000X0.250000X-0.225000X0.250000X0.225000X0*%
%ADD25RoundRect,0.250000X-0.625000X0.375000X-0.625000X-0.375000X0.625000X-0.375000X0.625000X0.375000X0*%
%ADD26RoundRect,0.225000X0.375000X-0.225000X0.375000X0.225000X-0.375000X0.225000X-0.375000X-0.225000X0*%
%ADD27RoundRect,0.200000X-0.275000X0.200000X-0.275000X-0.200000X0.275000X-0.200000X0.275000X0.200000X0*%
%ADD28RoundRect,0.275000X0.275000X-0.625000X0.275000X0.625000X-0.275000X0.625000X-0.275000X-0.625000X0*%
%ADD29RoundRect,0.225000X-0.225000X-0.250000X0.225000X-0.250000X0.225000X0.250000X-0.225000X0.250000X0*%
%ADD30RoundRect,0.075000X0.075000X-0.662500X0.075000X0.662500X-0.075000X0.662500X-0.075000X-0.662500X0*%
%ADD31RoundRect,0.075000X0.662500X-0.075000X0.662500X0.075000X-0.662500X0.075000X-0.662500X-0.075000X0*%
%ADD32RoundRect,0.150000X0.150000X-0.587500X0.150000X0.587500X-0.150000X0.587500X-0.150000X-0.587500X0*%
G04 APERTURE END LIST*
D10*
%TO.C,MX8*%
X191770000Y-25400000D03*
D11*
X196850000Y-25400000D03*
D10*
X201930000Y-25400000D03*
D12*
X193040000Y-22860000D03*
X199390000Y-20320000D03*
%TD*%
D10*
%TO.C,MX26*%
X53657500Y-63500000D03*
D11*
X58737500Y-63500000D03*
D10*
X63817500Y-63500000D03*
D12*
X54927500Y-60960000D03*
X61277500Y-58420000D03*
%TD*%
D10*
%TO.C,MX6*%
X115570000Y-25400000D03*
D11*
X120650000Y-25400000D03*
D10*
X125730000Y-25400000D03*
D12*
X116840000Y-22860000D03*
X123190000Y-20320000D03*
%TD*%
D10*
%TO.C,MX19*%
X177482500Y-44450000D03*
D11*
X182562500Y-44450000D03*
D10*
X187642500Y-44450000D03*
D12*
X178752500Y-41910000D03*
X185102500Y-39370000D03*
%TD*%
D10*
%TO.C,MX31*%
X187007500Y-63500000D03*
D11*
X192087500Y-63500000D03*
D10*
X197167500Y-63500000D03*
D12*
X188277500Y-60960000D03*
X194627500Y-58420000D03*
%TD*%
D10*
%TO.C,MX40*%
X65563750Y-82550000D03*
D11*
X70643750Y-82550000D03*
D10*
X75723750Y-82550000D03*
D12*
X66833750Y-80010000D03*
X73183750Y-77470000D03*
%TD*%
D10*
%TO.C,MX16*%
X82232500Y-44450000D03*
D11*
X87312500Y-44450000D03*
D10*
X92392500Y-44450000D03*
D12*
X83502500Y-41910000D03*
X89852500Y-39370000D03*
%TD*%
D10*
%TO.C,MX34*%
X244157500Y-63500000D03*
D11*
X249237500Y-63500000D03*
D10*
X254317500Y-63500000D03*
D12*
X245427500Y-60960000D03*
X251777500Y-58420000D03*
%TD*%
D10*
%TO.C,MX44*%
X253682500Y-82550000D03*
D11*
X258762500Y-82550000D03*
D10*
X263842500Y-82550000D03*
D12*
X254952500Y-80010000D03*
X261302500Y-77470000D03*
%TD*%
D10*
%TO.C,MX23*%
X253682500Y-44450000D03*
D11*
X258762500Y-44450000D03*
D10*
X263842500Y-44450000D03*
D12*
X254952500Y-41910000D03*
X261302500Y-39370000D03*
%TD*%
D10*
%TO.C,MX33*%
X225107500Y-63500000D03*
D11*
X230187500Y-63500000D03*
D10*
X235267500Y-63500000D03*
D12*
X226377500Y-60960000D03*
X232727500Y-58420000D03*
%TD*%
D10*
%TO.C,MX18*%
X120332500Y-44450000D03*
D11*
X125412500Y-44450000D03*
D10*
X130492500Y-44450000D03*
D12*
X121602500Y-41910000D03*
X127952500Y-39370000D03*
%TD*%
D10*
%TO.C,MX11*%
X248920000Y-25400000D03*
D11*
X254000000Y-25400000D03*
D10*
X259080000Y-25400000D03*
D12*
X250190000Y-22860000D03*
X256540000Y-20320000D03*
%TD*%
D10*
%TO.C,MX13*%
X22701250Y-44450000D03*
D11*
X27781250Y-44450000D03*
D10*
X32861250Y-44450000D03*
D12*
X23971250Y-41910000D03*
X30321250Y-39370000D03*
%TD*%
D10*
%TO.C,MX27*%
X72707500Y-63500000D03*
D11*
X77787500Y-63500000D03*
D10*
X82867500Y-63500000D03*
D12*
X73977500Y-60960000D03*
X80327500Y-58420000D03*
%TD*%
D10*
%TO.C,MX3*%
X58420000Y-25400000D03*
D11*
X63500000Y-25400000D03*
D10*
X68580000Y-25400000D03*
D12*
X59690000Y-22860000D03*
X66040000Y-20320000D03*
%TD*%
D10*
%TO.C,MX15*%
X63182500Y-44450000D03*
D11*
X68262500Y-44450000D03*
D10*
X73342500Y-44450000D03*
D12*
X64452500Y-41910000D03*
X70802500Y-39370000D03*
%TD*%
D13*
%TO.C,S4*%
X211137500Y-89535000D03*
D11*
X211137500Y-74295000D03*
D13*
X187325000Y-89535000D03*
D11*
X187325000Y-74295000D03*
%TD*%
D10*
%TO.C,MX17*%
X101282500Y-44450000D03*
D11*
X106362500Y-44450000D03*
D10*
X111442500Y-44450000D03*
D12*
X102552500Y-41910000D03*
X108902500Y-39370000D03*
%TD*%
D10*
%TO.C,MX38*%
X22701250Y-82550000D03*
D11*
X27781250Y-82550000D03*
D10*
X32861250Y-82550000D03*
D12*
X23971250Y-80010000D03*
X30321250Y-77470000D03*
%TD*%
D10*
%TO.C,MX14*%
X44132500Y-44450000D03*
D11*
X49212500Y-44450000D03*
D10*
X54292500Y-44450000D03*
D12*
X45402500Y-41910000D03*
X51752500Y-39370000D03*
%TD*%
D10*
%TO.C,MX28*%
X91757500Y-63500000D03*
D11*
X96837500Y-63500000D03*
D10*
X101917500Y-63500000D03*
D12*
X93027500Y-60960000D03*
X99377500Y-58420000D03*
%TD*%
D10*
%TO.C,MX37*%
X227488750Y-82550000D03*
D11*
X232568750Y-82550000D03*
D10*
X237648750Y-82550000D03*
D12*
X228758750Y-80010000D03*
X235108750Y-77470000D03*
%TD*%
D10*
%TO.C,MX1*%
X20320000Y-25400000D03*
D11*
X25400000Y-25400000D03*
D10*
X30480000Y-25400000D03*
D12*
X21590000Y-22860000D03*
X27940000Y-20320000D03*
%TD*%
D13*
%TO.C,S3*%
X120650000Y-89535000D03*
D11*
X120650000Y-74295000D03*
D13*
X96837500Y-89535000D03*
D11*
X96837500Y-74295000D03*
%TD*%
D10*
%TO.C,MX43*%
X232251250Y-82550000D03*
D11*
X237331250Y-82550000D03*
D10*
X242411250Y-82550000D03*
D12*
X233521250Y-80010000D03*
X239871250Y-77470000D03*
%TD*%
D10*
%TO.C,MX4*%
X77470000Y-25400000D03*
D11*
X82550000Y-25400000D03*
D10*
X87630000Y-25400000D03*
D12*
X78740000Y-22860000D03*
X85090000Y-20320000D03*
%TD*%
D13*
%TO.C,S2*%
X282575000Y-89535000D03*
D11*
X282575000Y-74295000D03*
D13*
X182562500Y-89535000D03*
D11*
X182562500Y-74295000D03*
%TD*%
D10*
%TO.C,MX42*%
X194151250Y-82550000D03*
D11*
X199231250Y-82550000D03*
D10*
X204311250Y-82550000D03*
D12*
X195421250Y-80010000D03*
X201771250Y-77470000D03*
%TD*%
D10*
%TO.C,MX41*%
X103663750Y-82550000D03*
D11*
X108743750Y-82550000D03*
D10*
X113823750Y-82550000D03*
D12*
X104933750Y-80010000D03*
X111283750Y-77470000D03*
%TD*%
D13*
%TO.C,S1*%
X125412500Y-89535000D03*
D11*
X125412500Y-74295000D03*
D13*
X25400000Y-89535000D03*
D11*
X25400000Y-74295000D03*
%TD*%
D10*
%TO.C,MX35*%
X270351250Y-63500000D03*
D11*
X275431250Y-63500000D03*
D10*
X280511250Y-63500000D03*
D12*
X271621250Y-60960000D03*
X277971250Y-58420000D03*
%TD*%
D10*
%TO.C,MX36*%
X70008750Y-82550000D03*
D11*
X75088750Y-82550000D03*
D10*
X80168750Y-82550000D03*
D12*
X71278750Y-80010000D03*
X77628750Y-77470000D03*
%TD*%
D10*
%TO.C,MX32*%
X206057500Y-63500000D03*
D11*
X211137500Y-63500000D03*
D10*
X216217500Y-63500000D03*
D12*
X207327500Y-60960000D03*
X213677500Y-58420000D03*
%TD*%
D10*
%TO.C,MX25*%
X27463750Y-63500000D03*
D11*
X32543750Y-63500000D03*
D10*
X37623750Y-63500000D03*
D12*
X28733750Y-60960000D03*
X35083750Y-58420000D03*
%TD*%
D10*
%TO.C,MX22*%
X234632500Y-44450000D03*
D11*
X239712500Y-44450000D03*
D10*
X244792500Y-44450000D03*
D12*
X235902500Y-41910000D03*
X242252500Y-39370000D03*
%TD*%
D10*
%TO.C,MX39*%
X44132500Y-82550000D03*
D11*
X49212500Y-82550000D03*
D10*
X54292500Y-82550000D03*
D12*
X45402500Y-80010000D03*
X51752500Y-77470000D03*
%TD*%
D10*
%TO.C,MX20*%
X196532500Y-44450000D03*
D11*
X201612500Y-44450000D03*
D10*
X206692500Y-44450000D03*
D12*
X197802500Y-41910000D03*
X204152500Y-39370000D03*
%TD*%
D10*
%TO.C,MX12*%
X272732500Y-25400000D03*
D11*
X277812500Y-25400000D03*
D10*
X282892500Y-25400000D03*
D12*
X274002500Y-22860000D03*
X280352500Y-20320000D03*
%TD*%
D10*
%TO.C,MX10*%
X229870000Y-25400000D03*
D11*
X234950000Y-25400000D03*
D10*
X240030000Y-25400000D03*
D12*
X231140000Y-22860000D03*
X237490000Y-20320000D03*
%TD*%
D10*
%TO.C,MX9*%
X210820000Y-25400000D03*
D11*
X215900000Y-25400000D03*
D10*
X220980000Y-25400000D03*
D12*
X212090000Y-22860000D03*
X218440000Y-20320000D03*
%TD*%
D10*
%TO.C,MX7*%
X172720000Y-25400000D03*
D11*
X177800000Y-25400000D03*
D10*
X182880000Y-25400000D03*
D12*
X173990000Y-22860000D03*
X180340000Y-20320000D03*
%TD*%
D10*
%TO.C,MX45*%
X275113750Y-82550000D03*
D11*
X280193750Y-82550000D03*
D10*
X285273750Y-82550000D03*
D12*
X276383750Y-80010000D03*
X282733750Y-77470000D03*
%TD*%
D10*
%TO.C,MX5*%
X96520000Y-25400000D03*
D11*
X101600000Y-25400000D03*
D10*
X106680000Y-25400000D03*
D12*
X97790000Y-22860000D03*
X104140000Y-20320000D03*
%TD*%
D10*
%TO.C,MX21*%
X215582500Y-44450000D03*
D11*
X220662500Y-44450000D03*
D10*
X225742500Y-44450000D03*
D12*
X216852500Y-41910000D03*
X223202500Y-39370000D03*
%TD*%
D10*
%TO.C,MX29*%
X110807500Y-63500000D03*
D11*
X115887500Y-63500000D03*
D10*
X120967500Y-63500000D03*
D12*
X112077500Y-60960000D03*
X118427500Y-58420000D03*
%TD*%
D10*
%TO.C,MX24*%
X275113750Y-44450000D03*
D11*
X280193750Y-44450000D03*
D10*
X285273750Y-44450000D03*
D12*
X276383750Y-41910000D03*
X282733750Y-39370000D03*
%TD*%
D10*
%TO.C,MX2*%
X39370000Y-25400000D03*
D11*
X44450000Y-25400000D03*
D10*
X49530000Y-25400000D03*
D12*
X40640000Y-22860000D03*
X46990000Y-20320000D03*
%TD*%
D10*
%TO.C,MX30*%
X129857500Y-63500000D03*
D11*
X134937500Y-63500000D03*
D10*
X140017500Y-63500000D03*
D12*
X131127500Y-60960000D03*
X137477500Y-58420000D03*
%TD*%
D14*
%TO.C,D11*%
X160637500Y-44856250D03*
X160637500Y-42056250D03*
%TD*%
D15*
%TO.C,D29*%
X153193750Y-53168750D03*
X153193750Y-55968750D03*
%TD*%
D14*
%TO.C,D6*%
X147143750Y-44856250D03*
X147143750Y-42056250D03*
%TD*%
D15*
%TO.C,D31*%
X171450000Y-53168750D03*
X171450000Y-55968750D03*
%TD*%
D14*
%TO.C,D10*%
X158256250Y-44856250D03*
X158256250Y-42056250D03*
%TD*%
%TO.C,D4*%
X142381250Y-44856250D03*
X142381250Y-42056250D03*
%TD*%
%TO.C,D12*%
X163018750Y-44856250D03*
X163018750Y-42056250D03*
%TD*%
D16*
%TO.C,C8*%
X153175000Y-65487500D03*
X151625000Y-65487500D03*
%TD*%
D15*
%TO.C,D32*%
X173831250Y-53168750D03*
X173831250Y-55968750D03*
%TD*%
%TO.C,D27*%
X157956250Y-53168750D03*
X157956250Y-55968750D03*
%TD*%
D17*
%TO.C,J1*%
X146335000Y-20062500D03*
X152115000Y-20062500D03*
D18*
X145974999Y-21507499D03*
X146774999Y-21507499D03*
D19*
X147974999Y-21507499D03*
X148974999Y-21507499D03*
X149474999Y-21507499D03*
X150474999Y-21507499D03*
D18*
X151674999Y-21507499D03*
X152474999Y-21507499D03*
X152474999Y-21507499D03*
X151674999Y-21507499D03*
D19*
X150974999Y-21507499D03*
X149974999Y-21507499D03*
X148474999Y-21507499D03*
X147474999Y-21507499D03*
D18*
X146774999Y-21507499D03*
X145974999Y-21507499D03*
D20*
X144904999Y-16412499D03*
D21*
X144904999Y-20592499D03*
D20*
X153544999Y-16412499D03*
D21*
X153544999Y-20592499D03*
%TD*%
D22*
%TO.C,U2*%
X150175000Y-26537500D03*
X149225000Y-26537500D03*
X148275000Y-26537500D03*
X148275000Y-24262500D03*
X149225000Y-24262500D03*
X150175000Y-24262500D03*
%TD*%
D15*
%TO.C,D26*%
X160337500Y-53168750D03*
X160337500Y-55968750D03*
%TD*%
D14*
%TO.C,D9*%
X155875000Y-44856250D03*
X155875000Y-42056250D03*
%TD*%
D15*
%TO.C,D18*%
X140493750Y-47612500D03*
X140493750Y-50412500D03*
%TD*%
D23*
%TO.C,R1*%
X165893750Y-77025000D03*
X165893750Y-75375000D03*
%TD*%
D16*
%TO.C,C1*%
X148431250Y-75406250D03*
X146881250Y-75406250D03*
%TD*%
D24*
%TO.C,C7*%
X153987500Y-86537500D03*
X153987500Y-88087500D03*
%TD*%
D15*
%TO.C,D15*%
X147637500Y-47612500D03*
X147637500Y-50412500D03*
%TD*%
%TO.C,D13*%
X152400000Y-47612500D03*
X152400000Y-50412500D03*
%TD*%
%TO.C,D14*%
X150018750Y-47612500D03*
X150018750Y-50412500D03*
%TD*%
%TO.C,D43*%
X163912500Y-58912500D03*
X163912500Y-61712500D03*
%TD*%
%TO.C,D30*%
X155575000Y-53168750D03*
X155575000Y-55968750D03*
%TD*%
D25*
%TO.C,F1*%
X143668750Y-24000000D03*
X143668750Y-26800000D03*
%TD*%
D14*
%TO.C,D5*%
X144762500Y-44856250D03*
X144762500Y-42056250D03*
%TD*%
D15*
%TO.C,D24*%
X163512500Y-47612500D03*
X163512500Y-50412500D03*
%TD*%
%TO.C,D25*%
X162718750Y-53168750D03*
X162718750Y-55968750D03*
%TD*%
%TO.C,D19*%
X156368750Y-47612500D03*
X156368750Y-50412500D03*
%TD*%
%TO.C,D28*%
X150812500Y-53168750D03*
X150812500Y-55968750D03*
%TD*%
D26*
%TO.C,D_PWR1*%
X154781250Y-27050000D03*
X154781250Y-23750000D03*
%TD*%
D15*
%TO.C,D33*%
X176212500Y-53168750D03*
X176212500Y-55968750D03*
%TD*%
D27*
%TO.C,R2*%
X146050000Y-24575000D03*
X146050000Y-26225000D03*
%TD*%
D15*
%TO.C,D38*%
X150418750Y-58912500D03*
X150418750Y-61712500D03*
%TD*%
%TO.C,D37*%
X148037500Y-58912500D03*
X148037500Y-61712500D03*
%TD*%
%TO.C,D21*%
X161131250Y-47612500D03*
X161131250Y-50412500D03*
%TD*%
%TO.C,D35*%
X166687500Y-53168750D03*
X166687500Y-55968750D03*
%TD*%
D16*
%TO.C,C9*%
X153175000Y-71026250D03*
X151625000Y-71026250D03*
%TD*%
D15*
%TO.C,D36*%
X145656250Y-58912500D03*
X145656250Y-61712500D03*
%TD*%
D14*
%TO.C,D3*%
X140000000Y-44856250D03*
X140000000Y-42056250D03*
%TD*%
D15*
%TO.C,D40*%
X156768750Y-58912500D03*
X156768750Y-61712500D03*
%TD*%
D28*
%TO.C,SW1*%
X171712500Y-75331250D03*
X171712500Y-69131250D03*
X168012500Y-75331250D03*
X168012500Y-69131250D03*
%TD*%
D15*
%TO.C,D16*%
X145256250Y-47612500D03*
X145256250Y-50412500D03*
%TD*%
D14*
%TO.C,D2*%
X137618750Y-44856250D03*
X137618750Y-42056250D03*
%TD*%
D15*
%TO.C,D41*%
X159150000Y-58912500D03*
X159150000Y-61712500D03*
%TD*%
%TO.C,D39*%
X152800000Y-58912500D03*
X152800000Y-61712500D03*
%TD*%
D14*
%TO.C,D1*%
X135237500Y-44856250D03*
X135237500Y-42056250D03*
%TD*%
D27*
%TO.C,R3*%
X152400000Y-24575000D03*
X152400000Y-26225000D03*
%TD*%
D15*
%TO.C,D42*%
X161531250Y-58912500D03*
X161531250Y-61712500D03*
%TD*%
D29*
%TO.C,C5*%
X158750000Y-84931250D03*
X160300000Y-84931250D03*
%TD*%
D15*
%TO.C,D34*%
X169068750Y-53168750D03*
X169068750Y-55968750D03*
%TD*%
D30*
%TO.C,U1*%
X156637500Y-84331250D03*
X156137500Y-84331250D03*
X155637500Y-84331250D03*
X155137500Y-84331250D03*
X154637500Y-84331250D03*
X154137500Y-84331250D03*
X153637500Y-84331250D03*
X153137500Y-84331250D03*
X152637500Y-84331250D03*
X152137500Y-84331250D03*
X151637500Y-84331250D03*
X151137500Y-84331250D03*
D31*
X149725000Y-82918750D03*
X149725000Y-82418750D03*
X149725000Y-81918750D03*
X149725000Y-81418750D03*
X149725000Y-80918750D03*
X149725000Y-80418750D03*
X149725000Y-79918750D03*
X149725000Y-79418750D03*
X149725000Y-78918750D03*
X149725000Y-78418750D03*
X149725000Y-77918750D03*
X149725000Y-77418750D03*
D30*
X151137500Y-76006250D03*
X151637500Y-76006250D03*
X152137500Y-76006250D03*
X152637500Y-76006250D03*
X153137500Y-76006250D03*
X153637500Y-76006250D03*
X154137500Y-76006250D03*
X154637500Y-76006250D03*
X155137500Y-76006250D03*
X155637500Y-76006250D03*
X156137500Y-76006250D03*
X156637500Y-76006250D03*
D31*
X158050000Y-77418750D03*
X158050000Y-77918750D03*
X158050000Y-78418750D03*
X158050000Y-78918750D03*
X158050000Y-79418750D03*
X158050000Y-79918750D03*
X158050000Y-80418750D03*
X158050000Y-80918750D03*
X158050000Y-81418750D03*
X158050000Y-81918750D03*
X158050000Y-82418750D03*
X158050000Y-82918750D03*
%TD*%
D14*
%TO.C,D8*%
X153493750Y-44856250D03*
X153493750Y-42056250D03*
%TD*%
%TO.C,D7*%
X151112500Y-44856250D03*
X151112500Y-42056250D03*
%TD*%
D15*
%TO.C,D20*%
X158750000Y-47612500D03*
X158750000Y-50412500D03*
%TD*%
%TO.C,D23*%
X165893750Y-47612500D03*
X165893750Y-50412500D03*
%TD*%
D29*
%TO.C,C3*%
X158768750Y-86518750D03*
X160318750Y-86518750D03*
%TD*%
D15*
%TO.C,D22*%
X168275000Y-47612500D03*
X168275000Y-50412500D03*
%TD*%
D24*
%TO.C,C2*%
X152400000Y-86537500D03*
X152400000Y-88087500D03*
%TD*%
D16*
%TO.C,C6*%
X148412500Y-73818750D03*
X146862500Y-73818750D03*
%TD*%
D29*
%TO.C,C4*%
X158768750Y-75406250D03*
X160318750Y-75406250D03*
%TD*%
D32*
%TO.C,U3*%
X153350000Y-69200000D03*
X151450000Y-69200000D03*
X152400000Y-67325000D03*
%TD*%
D15*
%TO.C,D17*%
X142875000Y-47612500D03*
X142875000Y-50412500D03*
%TD*%
M02*
