%TF.GenerationSoftware,KiCad,Pcbnew,(7.0.0)*%
%TF.CreationDate,2024-02-03T22:00:31+01:00*%
%TF.ProjectId,the expanse,74686520-6578-4706-916e-73652e6b6963,rev?*%
%TF.SameCoordinates,Original*%
%TF.FileFunction,Paste,Bot*%
%TF.FilePolarity,Positive*%
%FSLAX46Y46*%
G04 Gerber Fmt 4.6, Leading zero omitted, Abs format (unit mm)*
G04 Created by KiCad (PCBNEW (7.0.0)) date 2024-02-03 22:00:31*
%MOMM*%
%LPD*%
G01*
G04 APERTURE LIST*
G04 Aperture macros list*
%AMRoundRect*
0 Rectangle with rounded corners*
0 $1 Rounding radius*
0 $2 $3 $4 $5 $6 $7 $8 $9 X,Y pos of 4 corners*
0 Add a 4 corners polygon primitive as box body*
4,1,4,$2,$3,$4,$5,$6,$7,$8,$9,$2,$3,0*
0 Add four circle primitives for the rounded corners*
1,1,$1+$1,$2,$3*
1,1,$1+$1,$4,$5*
1,1,$1+$1,$6,$7*
1,1,$1+$1,$8,$9*
0 Add four rect primitives between the rounded corners*
20,1,$1+$1,$2,$3,$4,$5,0*
20,1,$1+$1,$4,$5,$6,$7,0*
20,1,$1+$1,$6,$7,$8,$9,0*
20,1,$1+$1,$8,$9,$2,$3,0*%
G04 Aperture macros list end*
%ADD10RoundRect,0.250000X0.300000X-0.300000X0.300000X0.300000X-0.300000X0.300000X-0.300000X-0.300000X0*%
%ADD11RoundRect,0.250000X-0.300000X0.300000X-0.300000X-0.300000X0.300000X-0.300000X0.300000X0.300000X0*%
%ADD12RoundRect,0.225000X0.225000X0.250000X-0.225000X0.250000X-0.225000X-0.250000X0.225000X-0.250000X0*%
%ADD13R,0.600000X1.450000*%
%ADD14R,0.300000X1.450000*%
%ADD15RoundRect,0.150000X0.150000X-0.512500X0.150000X0.512500X-0.150000X0.512500X-0.150000X-0.512500X0*%
%ADD16RoundRect,0.200000X0.275000X-0.200000X0.275000X0.200000X-0.275000X0.200000X-0.275000X-0.200000X0*%
%ADD17RoundRect,0.225000X-0.250000X0.225000X-0.250000X-0.225000X0.250000X-0.225000X0.250000X0.225000X0*%
%ADD18RoundRect,0.250000X-0.625000X0.375000X-0.625000X-0.375000X0.625000X-0.375000X0.625000X0.375000X0*%
%ADD19RoundRect,0.225000X0.375000X-0.225000X0.375000X0.225000X-0.375000X0.225000X-0.375000X-0.225000X0*%
%ADD20RoundRect,0.200000X-0.275000X0.200000X-0.275000X-0.200000X0.275000X-0.200000X0.275000X0.200000X0*%
%ADD21RoundRect,0.275000X0.275000X-0.625000X0.275000X0.625000X-0.275000X0.625000X-0.275000X-0.625000X0*%
%ADD22RoundRect,0.225000X-0.225000X-0.250000X0.225000X-0.250000X0.225000X0.250000X-0.225000X0.250000X0*%
%ADD23RoundRect,0.075000X0.075000X-0.662500X0.075000X0.662500X-0.075000X0.662500X-0.075000X-0.662500X0*%
%ADD24RoundRect,0.075000X0.662500X-0.075000X0.662500X0.075000X-0.662500X0.075000X-0.662500X-0.075000X0*%
%ADD25RoundRect,0.150000X0.150000X-0.587500X0.150000X0.587500X-0.150000X0.587500X-0.150000X-0.587500X0*%
G04 APERTURE END LIST*
D10*
%TO.C,D11*%
X160637500Y-44856250D03*
X160637500Y-42056250D03*
%TD*%
D11*
%TO.C,D29*%
X153193750Y-53168750D03*
X153193750Y-55968750D03*
%TD*%
D10*
%TO.C,D6*%
X147143750Y-44856250D03*
X147143750Y-42056250D03*
%TD*%
D11*
%TO.C,D31*%
X171450000Y-53168750D03*
X171450000Y-55968750D03*
%TD*%
D10*
%TO.C,D10*%
X158256250Y-44856250D03*
X158256250Y-42056250D03*
%TD*%
%TO.C,D4*%
X142381250Y-44856250D03*
X142381250Y-42056250D03*
%TD*%
%TO.C,D12*%
X163018750Y-44856250D03*
X163018750Y-42056250D03*
%TD*%
D12*
%TO.C,C8*%
X153175000Y-65487500D03*
X151625000Y-65487500D03*
%TD*%
D11*
%TO.C,D32*%
X173831250Y-53168750D03*
X173831250Y-55968750D03*
%TD*%
%TO.C,D27*%
X157956250Y-53168750D03*
X157956250Y-55968750D03*
%TD*%
D13*
%TO.C,J1*%
X145974999Y-21904374D03*
X146774999Y-21904374D03*
D14*
X147974999Y-21904374D03*
X148974999Y-21904374D03*
X149474999Y-21904374D03*
X150474999Y-21904374D03*
D13*
X151674999Y-21904374D03*
X152474999Y-21904374D03*
X152474999Y-21904374D03*
X151674999Y-21904374D03*
D14*
X150974999Y-21904374D03*
X149974999Y-21904374D03*
X148474999Y-21904374D03*
X147474999Y-21904374D03*
D13*
X146774999Y-21904374D03*
X145974999Y-21904374D03*
%TD*%
D15*
%TO.C,U2*%
X150175000Y-26934375D03*
X149225000Y-26934375D03*
X148275000Y-26934375D03*
X148275000Y-24659375D03*
X149225000Y-24659375D03*
X150175000Y-24659375D03*
%TD*%
D11*
%TO.C,D26*%
X160337500Y-53168750D03*
X160337500Y-55968750D03*
%TD*%
D10*
%TO.C,D9*%
X155875000Y-44856250D03*
X155875000Y-42056250D03*
%TD*%
D11*
%TO.C,D18*%
X140493750Y-47612500D03*
X140493750Y-50412500D03*
%TD*%
D16*
%TO.C,R1*%
X165893750Y-77025000D03*
X165893750Y-75375000D03*
%TD*%
D12*
%TO.C,C1*%
X148431250Y-75406250D03*
X146881250Y-75406250D03*
%TD*%
D17*
%TO.C,C7*%
X153987500Y-86537500D03*
X153987500Y-88087500D03*
%TD*%
D11*
%TO.C,D15*%
X147637500Y-47612500D03*
X147637500Y-50412500D03*
%TD*%
%TO.C,D13*%
X152400000Y-47612500D03*
X152400000Y-50412500D03*
%TD*%
%TO.C,D14*%
X150018750Y-47612500D03*
X150018750Y-50412500D03*
%TD*%
%TO.C,D43*%
X163912500Y-58912500D03*
X163912500Y-61712500D03*
%TD*%
%TO.C,D30*%
X155575000Y-53168750D03*
X155575000Y-55968750D03*
%TD*%
D18*
%TO.C,F1*%
X143668750Y-24396875D03*
X143668750Y-27196875D03*
%TD*%
D10*
%TO.C,D5*%
X144762500Y-44856250D03*
X144762500Y-42056250D03*
%TD*%
D11*
%TO.C,D24*%
X163512500Y-47612500D03*
X163512500Y-50412500D03*
%TD*%
%TO.C,D25*%
X162718750Y-53168750D03*
X162718750Y-55968750D03*
%TD*%
%TO.C,D19*%
X156368750Y-47612500D03*
X156368750Y-50412500D03*
%TD*%
%TO.C,D28*%
X150812500Y-53168750D03*
X150812500Y-55968750D03*
%TD*%
D19*
%TO.C,D_PWR1*%
X154781250Y-27446875D03*
X154781250Y-24146875D03*
%TD*%
D11*
%TO.C,D33*%
X176212500Y-53168750D03*
X176212500Y-55968750D03*
%TD*%
D20*
%TO.C,R2*%
X146050000Y-24971875D03*
X146050000Y-26621875D03*
%TD*%
D11*
%TO.C,D38*%
X150418750Y-58912500D03*
X150418750Y-61712500D03*
%TD*%
%TO.C,D37*%
X148037500Y-58912500D03*
X148037500Y-61712500D03*
%TD*%
%TO.C,D21*%
X161131250Y-47612500D03*
X161131250Y-50412500D03*
%TD*%
%TO.C,D35*%
X166687500Y-53168750D03*
X166687500Y-55968750D03*
%TD*%
D12*
%TO.C,C9*%
X153175000Y-71026250D03*
X151625000Y-71026250D03*
%TD*%
D11*
%TO.C,D36*%
X145656250Y-58912500D03*
X145656250Y-61712500D03*
%TD*%
D10*
%TO.C,D3*%
X140000000Y-44856250D03*
X140000000Y-42056250D03*
%TD*%
D11*
%TO.C,D40*%
X156768750Y-58912500D03*
X156768750Y-61712500D03*
%TD*%
D21*
%TO.C,SW1*%
X171712500Y-75331250D03*
X171712500Y-69131250D03*
X168012500Y-75331250D03*
X168012500Y-69131250D03*
%TD*%
D11*
%TO.C,D16*%
X145256250Y-47612500D03*
X145256250Y-50412500D03*
%TD*%
D10*
%TO.C,D2*%
X137618750Y-44856250D03*
X137618750Y-42056250D03*
%TD*%
D11*
%TO.C,D41*%
X159150000Y-58912500D03*
X159150000Y-61712500D03*
%TD*%
%TO.C,D39*%
X152800000Y-58912500D03*
X152800000Y-61712500D03*
%TD*%
D10*
%TO.C,D1*%
X135237500Y-44856250D03*
X135237500Y-42056250D03*
%TD*%
D20*
%TO.C,R3*%
X152400000Y-24971875D03*
X152400000Y-26621875D03*
%TD*%
D11*
%TO.C,D42*%
X161531250Y-58912500D03*
X161531250Y-61712500D03*
%TD*%
D22*
%TO.C,C5*%
X158750000Y-84931250D03*
X160300000Y-84931250D03*
%TD*%
D11*
%TO.C,D34*%
X169068750Y-53168750D03*
X169068750Y-55968750D03*
%TD*%
D23*
%TO.C,U1*%
X156637500Y-84331250D03*
X156137500Y-84331250D03*
X155637500Y-84331250D03*
X155137500Y-84331250D03*
X154637500Y-84331250D03*
X154137500Y-84331250D03*
X153637500Y-84331250D03*
X153137500Y-84331250D03*
X152637500Y-84331250D03*
X152137500Y-84331250D03*
X151637500Y-84331250D03*
X151137500Y-84331250D03*
D24*
X149725000Y-82918750D03*
X149725000Y-82418750D03*
X149725000Y-81918750D03*
X149725000Y-81418750D03*
X149725000Y-80918750D03*
X149725000Y-80418750D03*
X149725000Y-79918750D03*
X149725000Y-79418750D03*
X149725000Y-78918750D03*
X149725000Y-78418750D03*
X149725000Y-77918750D03*
X149725000Y-77418750D03*
D23*
X151137500Y-76006250D03*
X151637500Y-76006250D03*
X152137500Y-76006250D03*
X152637500Y-76006250D03*
X153137500Y-76006250D03*
X153637500Y-76006250D03*
X154137500Y-76006250D03*
X154637500Y-76006250D03*
X155137500Y-76006250D03*
X155637500Y-76006250D03*
X156137500Y-76006250D03*
X156637500Y-76006250D03*
D24*
X158050000Y-77418750D03*
X158050000Y-77918750D03*
X158050000Y-78418750D03*
X158050000Y-78918750D03*
X158050000Y-79418750D03*
X158050000Y-79918750D03*
X158050000Y-80418750D03*
X158050000Y-80918750D03*
X158050000Y-81418750D03*
X158050000Y-81918750D03*
X158050000Y-82418750D03*
X158050000Y-82918750D03*
%TD*%
D10*
%TO.C,D8*%
X153493750Y-44856250D03*
X153493750Y-42056250D03*
%TD*%
%TO.C,D7*%
X151112500Y-44856250D03*
X151112500Y-42056250D03*
%TD*%
D11*
%TO.C,D20*%
X158750000Y-47612500D03*
X158750000Y-50412500D03*
%TD*%
%TO.C,D23*%
X165893750Y-47612500D03*
X165893750Y-50412500D03*
%TD*%
D22*
%TO.C,C3*%
X158768750Y-86518750D03*
X160318750Y-86518750D03*
%TD*%
D11*
%TO.C,D22*%
X168275000Y-47612500D03*
X168275000Y-50412500D03*
%TD*%
D17*
%TO.C,C2*%
X152400000Y-86537500D03*
X152400000Y-88087500D03*
%TD*%
D12*
%TO.C,C6*%
X148412500Y-73818750D03*
X146862500Y-73818750D03*
%TD*%
D22*
%TO.C,C4*%
X158768750Y-75406250D03*
X160318750Y-75406250D03*
%TD*%
D25*
%TO.C,U3*%
X153350000Y-69200000D03*
X151450000Y-69200000D03*
X152400000Y-67325000D03*
%TD*%
D11*
%TO.C,D17*%
X142875000Y-47612500D03*
X142875000Y-50412500D03*
%TD*%
M02*
