M48
; DRILL file {KiCad (7.0.0)} date Sat Feb  3 20:42:43 2024
; FORMAT={-:-/ absolute / inch / decimal}
; #@! TF.CreationDate,2024-02-03T20:42:43+01:00
; #@! TF.GenerationSoftware,Kicad,Pcbnew,(7.0.0)
; #@! TF.FileFunction,Plated,1,2,PTH
FMAT,2
INCH
; #@! TA.AperFunction,Plated,PTH,ViaDrill
T1C0.0157
; #@! TA.AperFunction,Plated,PTH,ComponentDrill
T2C0.0236
; #@! TA.AperFunction,Plated,PTH,ComponentDrill
T3C0.0600
; #@! TA.AperFunction,Plated,PTH,ComponentDrill
T4C0.1200
%
G90
G05
T1
X4.5625Y-3.1562
X5.1875Y-3.1562
X5.6562Y-1.125
X5.75Y-1.0938
X5.75Y-2.9062
X5.75Y-2.9688
X5.7931Y-1.7188
X5.875Y-3.0
X5.9069Y-2.5631
X5.9375Y-1.0
X5.9493Y-1.7188
X5.9688Y-2.8438
X5.9788Y-2.8836
X6.0Y-1.0938
X6.0Y-1.9375
X6.0Y-3.375
X6.0Y-3.5
X6.0157Y-2.375
X6.0297Y-2.899
X6.0312Y-2.5312
X6.0312Y-2.8438
X6.0379Y-2.9375
X6.0625Y-3.1562
X6.0625Y-3.5
X6.0938Y-0.875
X6.0938Y-1.0
X6.1562Y-1.9375
X6.1562Y-2.5312
X6.172Y-2.375
X6.2188Y-3.0
X6.2188Y-3.3125
X6.3438Y-2.9688
X6.3438Y-3.3438
X6.3438Y-3.4062
X6.4062Y-2.1562
X6.5312Y-2.9375
X6.5625Y-2.1562
X6.7603Y-2.8438
X8.4062Y-3.1562
T3
X0.85Y-0.9
X0.9437Y-1.65
X0.9437Y-3.15
X1.1Y-0.8
X1.1312Y-2.4
X1.1937Y-1.55
X1.1937Y-3.05
X1.3812Y-2.3
X1.6Y-0.9
X1.7875Y-1.65
X1.7875Y-3.15
X1.85Y-0.8
X2.0375Y-1.55
X2.0375Y-3.05
X2.1625Y-2.4
X2.35Y-0.9
X2.4125Y-2.3
X2.5375Y-1.65
X2.6Y-0.8
X2.6313Y-3.15
X2.7875Y-1.55
X2.8062Y-3.15
X2.8813Y-3.05
X2.9125Y-2.4
X3.0562Y-3.05
X3.1Y-0.9
X3.1625Y-2.3
X3.2875Y-1.65
X3.35Y-0.8
X3.5375Y-1.55
X3.6625Y-2.4
X3.85Y-0.9
X3.9125Y-2.3
X4.0375Y-1.65
X4.1Y-0.8
X4.1312Y-3.15
X4.2875Y-1.55
X4.3812Y-3.05
X4.4125Y-2.4
X4.6Y-0.9
X4.6625Y-2.3
X4.7875Y-1.65
X4.85Y-0.8
X5.0375Y-1.55
X5.1625Y-2.4
X5.4125Y-2.3
X6.85Y-0.9
X7.0375Y-1.65
X7.1Y-0.8
X7.2875Y-1.55
X7.4125Y-2.4
X7.6Y-0.9
X7.6625Y-2.3
X7.6937Y-3.15
X7.7875Y-1.65
X7.85Y-0.8
X7.9437Y-3.05
X8.0375Y-1.55
X8.1625Y-2.4
X8.35Y-0.9
X8.4125Y-2.3
X8.5375Y-1.65
X8.6Y-0.8
X8.7875Y-1.55
X8.9125Y-2.4
X9.0062Y-3.15
X9.1Y-0.9
X9.1625Y-2.3
X9.1937Y-3.15
X9.2562Y-3.05
X9.2875Y-1.65
X9.35Y-0.8
X9.4437Y-3.05
X9.5375Y-1.55
X9.6625Y-2.4
X9.85Y-0.9
X9.9125Y-2.3
X10.0375Y-1.65
X10.0375Y-3.15
X10.1Y-0.8
X10.2875Y-1.55
X10.2875Y-3.05
X10.6937Y-2.4
X10.7875Y-0.9
X10.8812Y-1.65
X10.8812Y-3.15
X10.9437Y-2.3
X11.0375Y-0.8
X11.1312Y-1.55
X11.1312Y-3.05
T4
X1.0Y-3.525
X3.8125Y-3.525
X4.75Y-3.525
X4.9375Y-3.525
X7.1875Y-3.525
X7.375Y-3.525
X8.3125Y-3.525
X11.125Y-3.525
T2
G00X5.7049Y-0.6344
M15
G01X5.7049Y-0.658
M16
G05
G00X5.7049Y-0.7891
M15
G01X5.7049Y-0.8324
M16
G05
G00X6.0451Y-0.6344
M15
G01X6.0451Y-0.658
M16
G05
G00X6.0451Y-0.7891
M15
G01X6.0451Y-0.8324
M16
G05
T0
M30
