M48
; DRILL file {KiCad (7.0.0)} date Sat Feb  3 20:42:43 2024
; FORMAT={-:-/ absolute / inch / decimal}
; #@! TF.CreationDate,2024-02-03T20:42:43+01:00
; #@! TF.GenerationSoftware,Kicad,Pcbnew,(7.0.0)
; #@! TF.FileFunction,NonPlated,1,2,NPTH
FMAT,2
INCH
; #@! TA.AperFunction,NonPlated,NPTH,ComponentDrill
T1C0.0256
; #@! TA.AperFunction,NonPlated,NPTH,ComponentDrill
T2C0.0689
; #@! TA.AperFunction,NonPlated,NPTH,ComponentDrill
T3C0.1570
%
G90
G05
T1
X5.7612Y-0.7899
X5.9888Y-0.7899
T2
X0.8Y-1.0
X0.8937Y-1.75
X0.8937Y-3.25
X1.0813Y-2.5
X1.2Y-1.0
X1.2937Y-1.75
X1.2937Y-3.25
X1.4812Y-2.5
X1.55Y-1.0
X1.7375Y-1.75
X1.7375Y-3.25
X1.95Y-1.0
X2.1125Y-2.5
X2.1375Y-1.75
X2.1375Y-3.25
X2.3Y-1.0
X2.4875Y-1.75
X2.5125Y-2.5
X2.5812Y-3.25
X2.7Y-1.0
X2.7563Y-3.25
X2.8625Y-2.5
X2.8875Y-1.75
X2.9812Y-3.25
X3.05Y-1.0
X3.1562Y-3.25
X3.2375Y-1.75
X3.2625Y-2.5
X3.45Y-1.0
X3.6125Y-2.5
X3.6375Y-1.75
X3.8Y-1.0
X3.9875Y-1.75
X4.0125Y-2.5
X4.0812Y-3.25
X4.2Y-1.0
X4.3625Y-2.5
X4.3875Y-1.75
X4.4813Y-3.25
X4.55Y-1.0
X4.7375Y-1.75
X4.7625Y-2.5
X4.95Y-1.0
X5.1125Y-2.5
X5.1375Y-1.75
X5.5125Y-2.5
X6.8Y-1.0
X6.9875Y-1.75
X7.2Y-1.0
X7.3625Y-2.5
X7.3875Y-1.75
X7.55Y-1.0
X7.6437Y-3.25
X7.7375Y-1.75
X7.7625Y-2.5
X7.95Y-1.0
X8.0437Y-3.25
X8.1125Y-2.5
X8.1375Y-1.75
X8.3Y-1.0
X8.4875Y-1.75
X8.5125Y-2.5
X8.7Y-1.0
X8.8625Y-2.5
X8.8875Y-1.75
X8.9562Y-3.25
X9.05Y-1.0
X9.1437Y-3.25
X9.2375Y-1.75
X9.2625Y-2.5
X9.3562Y-3.25
X9.45Y-1.0
X9.5437Y-3.25
X9.6125Y-2.5
X9.6375Y-1.75
X9.8Y-1.0
X9.9875Y-1.75
X9.9875Y-3.25
X10.0125Y-2.5
X10.2Y-1.0
X10.3875Y-1.75
X10.3875Y-3.25
X10.6437Y-2.5
X10.7375Y-1.0
X10.8312Y-1.75
X10.8312Y-3.25
X11.0437Y-2.5
X11.1375Y-1.0
X11.2312Y-1.75
X11.2312Y-3.25
T3
X1.0Y-1.0
X1.0Y-2.925
X1.0938Y-1.75
X1.0938Y-3.25
X1.2812Y-2.5
X1.75Y-1.0
X1.9375Y-1.75
X1.9375Y-3.25
X2.3125Y-2.5
X2.5Y-1.0
X2.6875Y-1.75
X2.7812Y-3.25
X2.9562Y-3.25
X3.0625Y-2.5
X3.25Y-1.0
X3.4375Y-1.75
X3.8125Y-2.5
X3.8125Y-2.925
X4.0Y-1.0
X4.1875Y-1.75
X4.2812Y-3.25
X4.5625Y-2.5
X4.75Y-1.0
X4.75Y-2.925
X4.9375Y-1.75
X4.9375Y-2.925
X5.3125Y-2.5
X7.0Y-1.0
X7.1875Y-1.75
X7.1875Y-2.925
X7.375Y-2.925
X7.5625Y-2.5
X7.75Y-1.0
X7.8438Y-3.25
X7.9375Y-1.75
X8.3125Y-2.5
X8.3125Y-2.925
X8.5Y-1.0
X8.6875Y-1.75
X9.0625Y-2.5
X9.1562Y-3.25
X9.25Y-1.0
X9.3438Y-3.25
X9.4375Y-1.75
X9.8125Y-2.5
X10.0Y-1.0
X10.1875Y-1.75
X10.1875Y-3.25
X10.8438Y-2.5
X10.9375Y-1.0
X11.0312Y-1.75
X11.0312Y-3.25
X11.125Y-2.925
T0
M30
