%TF.GenerationSoftware,KiCad,Pcbnew,(7.0.0)*%
%TF.CreationDate,2024-02-03T20:42:43+01:00*%
%TF.ProjectId,the expanse,74686520-6578-4706-916e-73652e6b6963,rev?*%
%TF.SameCoordinates,Original*%
%TF.FileFunction,Other,Comment*%
%FSLAX46Y46*%
G04 Gerber Fmt 4.6, Leading zero omitted, Abs format (unit mm)*
G04 Created by KiCad (PCBNEW (7.0.0)) date 2024-02-03 20:42:43*
%MOMM*%
%LPD*%
G01*
G04 APERTURE LIST*
%ADD10C,0.150000*%
%ADD11C,0.030000*%
G04 APERTURE END LIST*
D10*
%TO.C,S4*%
X197993155Y-73884619D02*
X198040774Y-73837000D01*
X198040774Y-73837000D02*
X198136012Y-73789380D01*
X198136012Y-73789380D02*
X198374107Y-73789380D01*
X198374107Y-73789380D02*
X198469345Y-73837000D01*
X198469345Y-73837000D02*
X198516964Y-73884619D01*
X198516964Y-73884619D02*
X198564583Y-73979857D01*
X198564583Y-73979857D02*
X198564583Y-74075095D01*
X198564583Y-74075095D02*
X198516964Y-74217952D01*
X198516964Y-74217952D02*
X197945536Y-74789380D01*
X197945536Y-74789380D02*
X198564583Y-74789380D01*
X198897917Y-73789380D02*
X199564583Y-73789380D01*
X199564583Y-73789380D02*
X199136012Y-74789380D01*
X200421726Y-73789380D02*
X199945536Y-73789380D01*
X199945536Y-73789380D02*
X199897917Y-74265571D01*
X199897917Y-74265571D02*
X199945536Y-74217952D01*
X199945536Y-74217952D02*
X200040774Y-74170333D01*
X200040774Y-74170333D02*
X200278869Y-74170333D01*
X200278869Y-74170333D02*
X200374107Y-74217952D01*
X200374107Y-74217952D02*
X200421726Y-74265571D01*
X200421726Y-74265571D02*
X200469345Y-74360809D01*
X200469345Y-74360809D02*
X200469345Y-74598904D01*
X200469345Y-74598904D02*
X200421726Y-74694142D01*
X200421726Y-74694142D02*
X200374107Y-74741761D01*
X200374107Y-74741761D02*
X200278869Y-74789380D01*
X200278869Y-74789380D02*
X200040774Y-74789380D01*
X200040774Y-74789380D02*
X199945536Y-74741761D01*
X199945536Y-74741761D02*
X199897917Y-74694142D01*
%TO.C,S3*%
X107505655Y-73884619D02*
X107553274Y-73837000D01*
X107553274Y-73837000D02*
X107648512Y-73789380D01*
X107648512Y-73789380D02*
X107886607Y-73789380D01*
X107886607Y-73789380D02*
X107981845Y-73837000D01*
X107981845Y-73837000D02*
X108029464Y-73884619D01*
X108029464Y-73884619D02*
X108077083Y-73979857D01*
X108077083Y-73979857D02*
X108077083Y-74075095D01*
X108077083Y-74075095D02*
X108029464Y-74217952D01*
X108029464Y-74217952D02*
X107458036Y-74789380D01*
X107458036Y-74789380D02*
X108077083Y-74789380D01*
X108410417Y-73789380D02*
X109077083Y-73789380D01*
X109077083Y-73789380D02*
X108648512Y-74789380D01*
X109934226Y-73789380D02*
X109458036Y-73789380D01*
X109458036Y-73789380D02*
X109410417Y-74265571D01*
X109410417Y-74265571D02*
X109458036Y-74217952D01*
X109458036Y-74217952D02*
X109553274Y-74170333D01*
X109553274Y-74170333D02*
X109791369Y-74170333D01*
X109791369Y-74170333D02*
X109886607Y-74217952D01*
X109886607Y-74217952D02*
X109934226Y-74265571D01*
X109934226Y-74265571D02*
X109981845Y-74360809D01*
X109981845Y-74360809D02*
X109981845Y-74598904D01*
X109981845Y-74598904D02*
X109934226Y-74694142D01*
X109934226Y-74694142D02*
X109886607Y-74741761D01*
X109886607Y-74741761D02*
X109791369Y-74789380D01*
X109791369Y-74789380D02*
X109553274Y-74789380D01*
X109553274Y-74789380D02*
X109458036Y-74741761D01*
X109458036Y-74741761D02*
X109410417Y-74694142D01*
%TO.C,S2*%
X231806845Y-73789380D02*
X231616369Y-73789380D01*
X231616369Y-73789380D02*
X231521131Y-73837000D01*
X231521131Y-73837000D02*
X231473512Y-73884619D01*
X231473512Y-73884619D02*
X231378274Y-74027476D01*
X231378274Y-74027476D02*
X231330655Y-74217952D01*
X231330655Y-74217952D02*
X231330655Y-74598904D01*
X231330655Y-74598904D02*
X231378274Y-74694142D01*
X231378274Y-74694142D02*
X231425893Y-74741761D01*
X231425893Y-74741761D02*
X231521131Y-74789380D01*
X231521131Y-74789380D02*
X231711607Y-74789380D01*
X231711607Y-74789380D02*
X231806845Y-74741761D01*
X231806845Y-74741761D02*
X231854464Y-74694142D01*
X231854464Y-74694142D02*
X231902083Y-74598904D01*
X231902083Y-74598904D02*
X231902083Y-74360809D01*
X231902083Y-74360809D02*
X231854464Y-74265571D01*
X231854464Y-74265571D02*
X231806845Y-74217952D01*
X231806845Y-74217952D02*
X231711607Y-74170333D01*
X231711607Y-74170333D02*
X231521131Y-74170333D01*
X231521131Y-74170333D02*
X231425893Y-74217952D01*
X231425893Y-74217952D02*
X231378274Y-74265571D01*
X231378274Y-74265571D02*
X231330655Y-74360809D01*
X232283036Y-73884619D02*
X232330655Y-73837000D01*
X232330655Y-73837000D02*
X232425893Y-73789380D01*
X232425893Y-73789380D02*
X232663988Y-73789380D01*
X232663988Y-73789380D02*
X232759226Y-73837000D01*
X232759226Y-73837000D02*
X232806845Y-73884619D01*
X232806845Y-73884619D02*
X232854464Y-73979857D01*
X232854464Y-73979857D02*
X232854464Y-74075095D01*
X232854464Y-74075095D02*
X232806845Y-74217952D01*
X232806845Y-74217952D02*
X232235417Y-74789380D01*
X232235417Y-74789380D02*
X232854464Y-74789380D01*
X233759226Y-73789380D02*
X233283036Y-73789380D01*
X233283036Y-73789380D02*
X233235417Y-74265571D01*
X233235417Y-74265571D02*
X233283036Y-74217952D01*
X233283036Y-74217952D02*
X233378274Y-74170333D01*
X233378274Y-74170333D02*
X233616369Y-74170333D01*
X233616369Y-74170333D02*
X233711607Y-74217952D01*
X233711607Y-74217952D02*
X233759226Y-74265571D01*
X233759226Y-74265571D02*
X233806845Y-74360809D01*
X233806845Y-74360809D02*
X233806845Y-74598904D01*
X233806845Y-74598904D02*
X233759226Y-74694142D01*
X233759226Y-74694142D02*
X233711607Y-74741761D01*
X233711607Y-74741761D02*
X233616369Y-74789380D01*
X233616369Y-74789380D02*
X233378274Y-74789380D01*
X233378274Y-74789380D02*
X233283036Y-74741761D01*
X233283036Y-74741761D02*
X233235417Y-74694142D01*
%TO.C,S1*%
X74644345Y-73789380D02*
X74453869Y-73789380D01*
X74453869Y-73789380D02*
X74358631Y-73837000D01*
X74358631Y-73837000D02*
X74311012Y-73884619D01*
X74311012Y-73884619D02*
X74215774Y-74027476D01*
X74215774Y-74027476D02*
X74168155Y-74217952D01*
X74168155Y-74217952D02*
X74168155Y-74598904D01*
X74168155Y-74598904D02*
X74215774Y-74694142D01*
X74215774Y-74694142D02*
X74263393Y-74741761D01*
X74263393Y-74741761D02*
X74358631Y-74789380D01*
X74358631Y-74789380D02*
X74549107Y-74789380D01*
X74549107Y-74789380D02*
X74644345Y-74741761D01*
X74644345Y-74741761D02*
X74691964Y-74694142D01*
X74691964Y-74694142D02*
X74739583Y-74598904D01*
X74739583Y-74598904D02*
X74739583Y-74360809D01*
X74739583Y-74360809D02*
X74691964Y-74265571D01*
X74691964Y-74265571D02*
X74644345Y-74217952D01*
X74644345Y-74217952D02*
X74549107Y-74170333D01*
X74549107Y-74170333D02*
X74358631Y-74170333D01*
X74358631Y-74170333D02*
X74263393Y-74217952D01*
X74263393Y-74217952D02*
X74215774Y-74265571D01*
X74215774Y-74265571D02*
X74168155Y-74360809D01*
X75120536Y-73884619D02*
X75168155Y-73837000D01*
X75168155Y-73837000D02*
X75263393Y-73789380D01*
X75263393Y-73789380D02*
X75501488Y-73789380D01*
X75501488Y-73789380D02*
X75596726Y-73837000D01*
X75596726Y-73837000D02*
X75644345Y-73884619D01*
X75644345Y-73884619D02*
X75691964Y-73979857D01*
X75691964Y-73979857D02*
X75691964Y-74075095D01*
X75691964Y-74075095D02*
X75644345Y-74217952D01*
X75644345Y-74217952D02*
X75072917Y-74789380D01*
X75072917Y-74789380D02*
X75691964Y-74789380D01*
X76596726Y-73789380D02*
X76120536Y-73789380D01*
X76120536Y-73789380D02*
X76072917Y-74265571D01*
X76072917Y-74265571D02*
X76120536Y-74217952D01*
X76120536Y-74217952D02*
X76215774Y-74170333D01*
X76215774Y-74170333D02*
X76453869Y-74170333D01*
X76453869Y-74170333D02*
X76549107Y-74217952D01*
X76549107Y-74217952D02*
X76596726Y-74265571D01*
X76596726Y-74265571D02*
X76644345Y-74360809D01*
X76644345Y-74360809D02*
X76644345Y-74598904D01*
X76644345Y-74598904D02*
X76596726Y-74694142D01*
X76596726Y-74694142D02*
X76549107Y-74741761D01*
X76549107Y-74741761D02*
X76453869Y-74789380D01*
X76453869Y-74789380D02*
X76215774Y-74789380D01*
X76215774Y-74789380D02*
X76120536Y-74741761D01*
X76120536Y-74741761D02*
X76072917Y-74694142D01*
D11*
%TO.C,SW1*%
X169735976Y-75779821D02*
X169535976Y-75779821D01*
X169535976Y-75779821D02*
X169735976Y-75665536D01*
X169735976Y-75665536D02*
X169535976Y-75665536D01*
X169735976Y-75541726D02*
X169726452Y-75560774D01*
X169726452Y-75560774D02*
X169716928Y-75570297D01*
X169716928Y-75570297D02*
X169697880Y-75579821D01*
X169697880Y-75579821D02*
X169640738Y-75579821D01*
X169640738Y-75579821D02*
X169621690Y-75570297D01*
X169621690Y-75570297D02*
X169612166Y-75560774D01*
X169612166Y-75560774D02*
X169602642Y-75541726D01*
X169602642Y-75541726D02*
X169602642Y-75513155D01*
X169602642Y-75513155D02*
X169612166Y-75494107D01*
X169612166Y-75494107D02*
X169621690Y-75484583D01*
X169621690Y-75484583D02*
X169640738Y-75475059D01*
X169640738Y-75475059D02*
X169697880Y-75475059D01*
X169697880Y-75475059D02*
X169716928Y-75484583D01*
X169716928Y-75484583D02*
X169726452Y-75494107D01*
X169726452Y-75494107D02*
X169735976Y-75513155D01*
X169735976Y-75513155D02*
X169735976Y-75541726D01*
X169631214Y-75202679D02*
X169631214Y-75269345D01*
X169735976Y-75269345D02*
X169535976Y-75269345D01*
X169535976Y-75269345D02*
X169535976Y-75174107D01*
X169716928Y-75097916D02*
X169726452Y-75088393D01*
X169726452Y-75088393D02*
X169735976Y-75097916D01*
X169735976Y-75097916D02*
X169726452Y-75107440D01*
X169726452Y-75107440D02*
X169716928Y-75097916D01*
X169716928Y-75097916D02*
X169735976Y-75097916D01*
X169716928Y-74888393D02*
X169726452Y-74897917D01*
X169726452Y-74897917D02*
X169735976Y-74926488D01*
X169735976Y-74926488D02*
X169735976Y-74945536D01*
X169735976Y-74945536D02*
X169726452Y-74974107D01*
X169726452Y-74974107D02*
X169707404Y-74993155D01*
X169707404Y-74993155D02*
X169688357Y-75002678D01*
X169688357Y-75002678D02*
X169650261Y-75012202D01*
X169650261Y-75012202D02*
X169621690Y-75012202D01*
X169621690Y-75012202D02*
X169583595Y-75002678D01*
X169583595Y-75002678D02*
X169564547Y-74993155D01*
X169564547Y-74993155D02*
X169545500Y-74974107D01*
X169545500Y-74974107D02*
X169535976Y-74945536D01*
X169535976Y-74945536D02*
X169535976Y-74926488D01*
X169535976Y-74926488D02*
X169545500Y-74897917D01*
X169545500Y-74897917D02*
X169555023Y-74888393D01*
X169602642Y-74716964D02*
X169735976Y-74716964D01*
X169602642Y-74802678D02*
X169707404Y-74802678D01*
X169707404Y-74802678D02*
X169726452Y-74793155D01*
X169726452Y-74793155D02*
X169735976Y-74774107D01*
X169735976Y-74774107D02*
X169735976Y-74745536D01*
X169735976Y-74745536D02*
X169726452Y-74726488D01*
X169726452Y-74726488D02*
X169716928Y-74716964D01*
X169602642Y-74530298D02*
X169602642Y-74454107D01*
X169535976Y-74501726D02*
X169707404Y-74501726D01*
X169707404Y-74501726D02*
X169726452Y-74492203D01*
X169726452Y-74492203D02*
X169735976Y-74473155D01*
X169735976Y-74473155D02*
X169735976Y-74454107D01*
X169735976Y-74387440D02*
X169602642Y-74387440D01*
X169640738Y-74387440D02*
X169621690Y-74377917D01*
X169621690Y-74377917D02*
X169612166Y-74368393D01*
X169612166Y-74368393D02*
X169602642Y-74349345D01*
X169602642Y-74349345D02*
X169602642Y-74330298D01*
X169735976Y-74177916D02*
X169631214Y-74177916D01*
X169631214Y-74177916D02*
X169612166Y-74187440D01*
X169612166Y-74187440D02*
X169602642Y-74206488D01*
X169602642Y-74206488D02*
X169602642Y-74244583D01*
X169602642Y-74244583D02*
X169612166Y-74263630D01*
X169726452Y-74177916D02*
X169735976Y-74196964D01*
X169735976Y-74196964D02*
X169735976Y-74244583D01*
X169735976Y-74244583D02*
X169726452Y-74263630D01*
X169726452Y-74263630D02*
X169707404Y-74273154D01*
X169707404Y-74273154D02*
X169688357Y-74273154D01*
X169688357Y-74273154D02*
X169669309Y-74263630D01*
X169669309Y-74263630D02*
X169659785Y-74244583D01*
X169659785Y-74244583D02*
X169659785Y-74196964D01*
X169659785Y-74196964D02*
X169650261Y-74177916D01*
X169726452Y-73996964D02*
X169735976Y-74016012D01*
X169735976Y-74016012D02*
X169735976Y-74054107D01*
X169735976Y-74054107D02*
X169726452Y-74073155D01*
X169726452Y-74073155D02*
X169716928Y-74082678D01*
X169716928Y-74082678D02*
X169697880Y-74092202D01*
X169697880Y-74092202D02*
X169640738Y-74092202D01*
X169640738Y-74092202D02*
X169621690Y-74082678D01*
X169621690Y-74082678D02*
X169612166Y-74073155D01*
X169612166Y-74073155D02*
X169602642Y-74054107D01*
X169602642Y-74054107D02*
X169602642Y-74016012D01*
X169602642Y-74016012D02*
X169612166Y-73996964D01*
X169735976Y-73911249D02*
X169535976Y-73911249D01*
X169659785Y-73892202D02*
X169735976Y-73835059D01*
X169602642Y-73835059D02*
X169678833Y-73911249D01*
X169726452Y-73758868D02*
X169735976Y-73739821D01*
X169735976Y-73739821D02*
X169735976Y-73701725D01*
X169735976Y-73701725D02*
X169726452Y-73682678D01*
X169726452Y-73682678D02*
X169707404Y-73673154D01*
X169707404Y-73673154D02*
X169697880Y-73673154D01*
X169697880Y-73673154D02*
X169678833Y-73682678D01*
X169678833Y-73682678D02*
X169669309Y-73701725D01*
X169669309Y-73701725D02*
X169669309Y-73730297D01*
X169669309Y-73730297D02*
X169659785Y-73749344D01*
X169659785Y-73749344D02*
X169640738Y-73758868D01*
X169640738Y-73758868D02*
X169631214Y-73758868D01*
X169631214Y-73758868D02*
X169612166Y-73749344D01*
X169612166Y-73749344D02*
X169602642Y-73730297D01*
X169602642Y-73730297D02*
X169602642Y-73701725D01*
X169602642Y-73701725D02*
X169612166Y-73682678D01*
X170135976Y-75929344D02*
X169935976Y-75929344D01*
X170135976Y-75815059D02*
X170021690Y-75900773D01*
X169935976Y-75815059D02*
X170050261Y-75929344D01*
X170031214Y-75729344D02*
X170031214Y-75662678D01*
X170135976Y-75634106D02*
X170135976Y-75729344D01*
X170135976Y-75729344D02*
X169935976Y-75729344D01*
X169935976Y-75729344D02*
X169935976Y-75634106D01*
X170031214Y-75548392D02*
X170031214Y-75481726D01*
X170135976Y-75453154D02*
X170135976Y-75548392D01*
X170135976Y-75548392D02*
X169935976Y-75548392D01*
X169935976Y-75548392D02*
X169935976Y-75453154D01*
X170135976Y-75367440D02*
X169935976Y-75367440D01*
X169935976Y-75367440D02*
X169935976Y-75291250D01*
X169935976Y-75291250D02*
X169945500Y-75272202D01*
X169945500Y-75272202D02*
X169955023Y-75262679D01*
X169955023Y-75262679D02*
X169974071Y-75253155D01*
X169974071Y-75253155D02*
X170002642Y-75253155D01*
X170002642Y-75253155D02*
X170021690Y-75262679D01*
X170021690Y-75262679D02*
X170031214Y-75272202D01*
X170031214Y-75272202D02*
X170040738Y-75291250D01*
X170040738Y-75291250D02*
X170040738Y-75367440D01*
X170059785Y-75167440D02*
X170059785Y-75015060D01*
X169935976Y-74881726D02*
X169935976Y-74843631D01*
X169935976Y-74843631D02*
X169945500Y-74824583D01*
X169945500Y-74824583D02*
X169964547Y-74805536D01*
X169964547Y-74805536D02*
X170002642Y-74796012D01*
X170002642Y-74796012D02*
X170069309Y-74796012D01*
X170069309Y-74796012D02*
X170107404Y-74805536D01*
X170107404Y-74805536D02*
X170126452Y-74824583D01*
X170126452Y-74824583D02*
X170135976Y-74843631D01*
X170135976Y-74843631D02*
X170135976Y-74881726D01*
X170135976Y-74881726D02*
X170126452Y-74900774D01*
X170126452Y-74900774D02*
X170107404Y-74919821D01*
X170107404Y-74919821D02*
X170069309Y-74929345D01*
X170069309Y-74929345D02*
X170002642Y-74929345D01*
X170002642Y-74929345D02*
X169964547Y-74919821D01*
X169964547Y-74919821D02*
X169945500Y-74900774D01*
X169945500Y-74900774D02*
X169935976Y-74881726D01*
X169935976Y-74710297D02*
X170097880Y-74710297D01*
X170097880Y-74710297D02*
X170116928Y-74700774D01*
X170116928Y-74700774D02*
X170126452Y-74691250D01*
X170126452Y-74691250D02*
X170135976Y-74672202D01*
X170135976Y-74672202D02*
X170135976Y-74634107D01*
X170135976Y-74634107D02*
X170126452Y-74615059D01*
X170126452Y-74615059D02*
X170116928Y-74605536D01*
X170116928Y-74605536D02*
X170097880Y-74596012D01*
X170097880Y-74596012D02*
X169935976Y-74596012D01*
X169935976Y-74529345D02*
X169935976Y-74415059D01*
X170135976Y-74472202D02*
X169935976Y-74472202D01*
X169935976Y-74247440D02*
X169935976Y-74114107D01*
X169935976Y-74114107D02*
X170135976Y-74247440D01*
X170135976Y-74247440D02*
X170135976Y-74114107D01*
X169935976Y-73999821D02*
X169935976Y-73961726D01*
X169935976Y-73961726D02*
X169945500Y-73942678D01*
X169945500Y-73942678D02*
X169964547Y-73923631D01*
X169964547Y-73923631D02*
X170002642Y-73914107D01*
X170002642Y-73914107D02*
X170069309Y-73914107D01*
X170069309Y-73914107D02*
X170107404Y-73923631D01*
X170107404Y-73923631D02*
X170126452Y-73942678D01*
X170126452Y-73942678D02*
X170135976Y-73961726D01*
X170135976Y-73961726D02*
X170135976Y-73999821D01*
X170135976Y-73999821D02*
X170126452Y-74018869D01*
X170126452Y-74018869D02*
X170107404Y-74037916D01*
X170107404Y-74037916D02*
X170069309Y-74047440D01*
X170069309Y-74047440D02*
X170002642Y-74047440D01*
X170002642Y-74047440D02*
X169964547Y-74037916D01*
X169964547Y-74037916D02*
X169945500Y-74018869D01*
X169945500Y-74018869D02*
X169935976Y-73999821D01*
X170135976Y-73828392D02*
X169935976Y-73828392D01*
X169935976Y-73828392D02*
X170135976Y-73714107D01*
X170135976Y-73714107D02*
X169935976Y-73714107D01*
X170031214Y-73618868D02*
X170031214Y-73552202D01*
X170135976Y-73523630D02*
X170135976Y-73618868D01*
X170135976Y-73618868D02*
X169935976Y-73618868D01*
X169935976Y-73618868D02*
X169935976Y-73523630D01*
X170135976Y-70929344D02*
X169935976Y-70929344D01*
X170135976Y-70815059D02*
X170021690Y-70900773D01*
X169935976Y-70815059D02*
X170050261Y-70929344D01*
X170031214Y-70729344D02*
X170031214Y-70662678D01*
X170135976Y-70634106D02*
X170135976Y-70729344D01*
X170135976Y-70729344D02*
X169935976Y-70729344D01*
X169935976Y-70729344D02*
X169935976Y-70634106D01*
X170031214Y-70548392D02*
X170031214Y-70481726D01*
X170135976Y-70453154D02*
X170135976Y-70548392D01*
X170135976Y-70548392D02*
X169935976Y-70548392D01*
X169935976Y-70548392D02*
X169935976Y-70453154D01*
X170135976Y-70367440D02*
X169935976Y-70367440D01*
X169935976Y-70367440D02*
X169935976Y-70291250D01*
X169935976Y-70291250D02*
X169945500Y-70272202D01*
X169945500Y-70272202D02*
X169955023Y-70262679D01*
X169955023Y-70262679D02*
X169974071Y-70253155D01*
X169974071Y-70253155D02*
X170002642Y-70253155D01*
X170002642Y-70253155D02*
X170021690Y-70262679D01*
X170021690Y-70262679D02*
X170031214Y-70272202D01*
X170031214Y-70272202D02*
X170040738Y-70291250D01*
X170040738Y-70291250D02*
X170040738Y-70367440D01*
X170059785Y-70167440D02*
X170059785Y-70015060D01*
X169935976Y-69881726D02*
X169935976Y-69843631D01*
X169935976Y-69843631D02*
X169945500Y-69824583D01*
X169945500Y-69824583D02*
X169964547Y-69805536D01*
X169964547Y-69805536D02*
X170002642Y-69796012D01*
X170002642Y-69796012D02*
X170069309Y-69796012D01*
X170069309Y-69796012D02*
X170107404Y-69805536D01*
X170107404Y-69805536D02*
X170126452Y-69824583D01*
X170126452Y-69824583D02*
X170135976Y-69843631D01*
X170135976Y-69843631D02*
X170135976Y-69881726D01*
X170135976Y-69881726D02*
X170126452Y-69900774D01*
X170126452Y-69900774D02*
X170107404Y-69919821D01*
X170107404Y-69919821D02*
X170069309Y-69929345D01*
X170069309Y-69929345D02*
X170002642Y-69929345D01*
X170002642Y-69929345D02*
X169964547Y-69919821D01*
X169964547Y-69919821D02*
X169945500Y-69900774D01*
X169945500Y-69900774D02*
X169935976Y-69881726D01*
X169935976Y-69710297D02*
X170097880Y-69710297D01*
X170097880Y-69710297D02*
X170116928Y-69700774D01*
X170116928Y-69700774D02*
X170126452Y-69691250D01*
X170126452Y-69691250D02*
X170135976Y-69672202D01*
X170135976Y-69672202D02*
X170135976Y-69634107D01*
X170135976Y-69634107D02*
X170126452Y-69615059D01*
X170126452Y-69615059D02*
X170116928Y-69605536D01*
X170116928Y-69605536D02*
X170097880Y-69596012D01*
X170097880Y-69596012D02*
X169935976Y-69596012D01*
X169935976Y-69529345D02*
X169935976Y-69415059D01*
X170135976Y-69472202D02*
X169935976Y-69472202D01*
X169935976Y-69247440D02*
X169935976Y-69114107D01*
X169935976Y-69114107D02*
X170135976Y-69247440D01*
X170135976Y-69247440D02*
X170135976Y-69114107D01*
X169935976Y-68999821D02*
X169935976Y-68961726D01*
X169935976Y-68961726D02*
X169945500Y-68942678D01*
X169945500Y-68942678D02*
X169964547Y-68923631D01*
X169964547Y-68923631D02*
X170002642Y-68914107D01*
X170002642Y-68914107D02*
X170069309Y-68914107D01*
X170069309Y-68914107D02*
X170107404Y-68923631D01*
X170107404Y-68923631D02*
X170126452Y-68942678D01*
X170126452Y-68942678D02*
X170135976Y-68961726D01*
X170135976Y-68961726D02*
X170135976Y-68999821D01*
X170135976Y-68999821D02*
X170126452Y-69018869D01*
X170126452Y-69018869D02*
X170107404Y-69037916D01*
X170107404Y-69037916D02*
X170069309Y-69047440D01*
X170069309Y-69047440D02*
X170002642Y-69047440D01*
X170002642Y-69047440D02*
X169964547Y-69037916D01*
X169964547Y-69037916D02*
X169945500Y-69018869D01*
X169945500Y-69018869D02*
X169935976Y-68999821D01*
X170135976Y-68828392D02*
X169935976Y-68828392D01*
X169935976Y-68828392D02*
X170135976Y-68714107D01*
X170135976Y-68714107D02*
X169935976Y-68714107D01*
X170031214Y-68618868D02*
X170031214Y-68552202D01*
X170135976Y-68523630D02*
X170135976Y-68618868D01*
X170135976Y-68618868D02*
X169935976Y-68618868D01*
X169935976Y-68618868D02*
X169935976Y-68523630D01*
X169735976Y-70779821D02*
X169535976Y-70779821D01*
X169535976Y-70779821D02*
X169735976Y-70665536D01*
X169735976Y-70665536D02*
X169535976Y-70665536D01*
X169735976Y-70541726D02*
X169726452Y-70560774D01*
X169726452Y-70560774D02*
X169716928Y-70570297D01*
X169716928Y-70570297D02*
X169697880Y-70579821D01*
X169697880Y-70579821D02*
X169640738Y-70579821D01*
X169640738Y-70579821D02*
X169621690Y-70570297D01*
X169621690Y-70570297D02*
X169612166Y-70560774D01*
X169612166Y-70560774D02*
X169602642Y-70541726D01*
X169602642Y-70541726D02*
X169602642Y-70513155D01*
X169602642Y-70513155D02*
X169612166Y-70494107D01*
X169612166Y-70494107D02*
X169621690Y-70484583D01*
X169621690Y-70484583D02*
X169640738Y-70475059D01*
X169640738Y-70475059D02*
X169697880Y-70475059D01*
X169697880Y-70475059D02*
X169716928Y-70484583D01*
X169716928Y-70484583D02*
X169726452Y-70494107D01*
X169726452Y-70494107D02*
X169735976Y-70513155D01*
X169735976Y-70513155D02*
X169735976Y-70541726D01*
X169631214Y-70202679D02*
X169631214Y-70269345D01*
X169735976Y-70269345D02*
X169535976Y-70269345D01*
X169535976Y-70269345D02*
X169535976Y-70174107D01*
X169716928Y-70097916D02*
X169726452Y-70088393D01*
X169726452Y-70088393D02*
X169735976Y-70097916D01*
X169735976Y-70097916D02*
X169726452Y-70107440D01*
X169726452Y-70107440D02*
X169716928Y-70097916D01*
X169716928Y-70097916D02*
X169735976Y-70097916D01*
X169716928Y-69888393D02*
X169726452Y-69897917D01*
X169726452Y-69897917D02*
X169735976Y-69926488D01*
X169735976Y-69926488D02*
X169735976Y-69945536D01*
X169735976Y-69945536D02*
X169726452Y-69974107D01*
X169726452Y-69974107D02*
X169707404Y-69993155D01*
X169707404Y-69993155D02*
X169688357Y-70002678D01*
X169688357Y-70002678D02*
X169650261Y-70012202D01*
X169650261Y-70012202D02*
X169621690Y-70012202D01*
X169621690Y-70012202D02*
X169583595Y-70002678D01*
X169583595Y-70002678D02*
X169564547Y-69993155D01*
X169564547Y-69993155D02*
X169545500Y-69974107D01*
X169545500Y-69974107D02*
X169535976Y-69945536D01*
X169535976Y-69945536D02*
X169535976Y-69926488D01*
X169535976Y-69926488D02*
X169545500Y-69897917D01*
X169545500Y-69897917D02*
X169555023Y-69888393D01*
X169602642Y-69716964D02*
X169735976Y-69716964D01*
X169602642Y-69802678D02*
X169707404Y-69802678D01*
X169707404Y-69802678D02*
X169726452Y-69793155D01*
X169726452Y-69793155D02*
X169735976Y-69774107D01*
X169735976Y-69774107D02*
X169735976Y-69745536D01*
X169735976Y-69745536D02*
X169726452Y-69726488D01*
X169726452Y-69726488D02*
X169716928Y-69716964D01*
X169602642Y-69530298D02*
X169602642Y-69454107D01*
X169535976Y-69501726D02*
X169707404Y-69501726D01*
X169707404Y-69501726D02*
X169726452Y-69492203D01*
X169726452Y-69492203D02*
X169735976Y-69473155D01*
X169735976Y-69473155D02*
X169735976Y-69454107D01*
X169735976Y-69387440D02*
X169602642Y-69387440D01*
X169640738Y-69387440D02*
X169621690Y-69377917D01*
X169621690Y-69377917D02*
X169612166Y-69368393D01*
X169612166Y-69368393D02*
X169602642Y-69349345D01*
X169602642Y-69349345D02*
X169602642Y-69330298D01*
X169735976Y-69177916D02*
X169631214Y-69177916D01*
X169631214Y-69177916D02*
X169612166Y-69187440D01*
X169612166Y-69187440D02*
X169602642Y-69206488D01*
X169602642Y-69206488D02*
X169602642Y-69244583D01*
X169602642Y-69244583D02*
X169612166Y-69263630D01*
X169726452Y-69177916D02*
X169735976Y-69196964D01*
X169735976Y-69196964D02*
X169735976Y-69244583D01*
X169735976Y-69244583D02*
X169726452Y-69263630D01*
X169726452Y-69263630D02*
X169707404Y-69273154D01*
X169707404Y-69273154D02*
X169688357Y-69273154D01*
X169688357Y-69273154D02*
X169669309Y-69263630D01*
X169669309Y-69263630D02*
X169659785Y-69244583D01*
X169659785Y-69244583D02*
X169659785Y-69196964D01*
X169659785Y-69196964D02*
X169650261Y-69177916D01*
X169726452Y-68996964D02*
X169735976Y-69016012D01*
X169735976Y-69016012D02*
X169735976Y-69054107D01*
X169735976Y-69054107D02*
X169726452Y-69073155D01*
X169726452Y-69073155D02*
X169716928Y-69082678D01*
X169716928Y-69082678D02*
X169697880Y-69092202D01*
X169697880Y-69092202D02*
X169640738Y-69092202D01*
X169640738Y-69092202D02*
X169621690Y-69082678D01*
X169621690Y-69082678D02*
X169612166Y-69073155D01*
X169612166Y-69073155D02*
X169602642Y-69054107D01*
X169602642Y-69054107D02*
X169602642Y-69016012D01*
X169602642Y-69016012D02*
X169612166Y-68996964D01*
X169735976Y-68911249D02*
X169535976Y-68911249D01*
X169659785Y-68892202D02*
X169735976Y-68835059D01*
X169602642Y-68835059D02*
X169678833Y-68911249D01*
X169726452Y-68758868D02*
X169735976Y-68739821D01*
X169735976Y-68739821D02*
X169735976Y-68701725D01*
X169735976Y-68701725D02*
X169726452Y-68682678D01*
X169726452Y-68682678D02*
X169707404Y-68673154D01*
X169707404Y-68673154D02*
X169697880Y-68673154D01*
X169697880Y-68673154D02*
X169678833Y-68682678D01*
X169678833Y-68682678D02*
X169669309Y-68701725D01*
X169669309Y-68701725D02*
X169669309Y-68730297D01*
X169669309Y-68730297D02*
X169659785Y-68749344D01*
X169659785Y-68749344D02*
X169640738Y-68758868D01*
X169640738Y-68758868D02*
X169631214Y-68758868D01*
X169631214Y-68758868D02*
X169612166Y-68749344D01*
X169612166Y-68749344D02*
X169602642Y-68730297D01*
X169602642Y-68730297D02*
X169602642Y-68701725D01*
X169602642Y-68701725D02*
X169612166Y-68682678D01*
%TD*%
M02*
